<mxfile host="app.diagrams.net" agent="Mozilla/5.0 (Windows NT 10.0; Win64; x64) AppleWebKit/537.36 (KHTML, like Gecko) Chrome/128.0.0.0 Safari/537.36 Edg/128.0.0.0" version="24.7.10">
  <diagram name="Landscape" id="HvzquBMpW4NL-ALrAOJ6">
    <mxGraphModel dx="1386" dy="791" grid="1" gridSize="10" guides="1" tooltips="1" connect="1" arrows="1" fold="1" page="1" pageScale="1" pageWidth="827" pageHeight="1169" math="0" shadow="0">
      <root>
        <mxCell id="0" />
        <mxCell id="1" parent="0" />
        <mxCell id="QbOQhwquOFobYFgs6uR9-1" value="" style="shape=image;verticalLabelPosition=bottom;labelBackgroundColor=default;verticalAlign=top;aspect=fixed;imageAspect=0;image=data:image/png,iVBORw0KGgoAAAANSUhEUgAABlkAAAKlCAYAAABIcYqnAAAAAXNSR0IArs4c6QAAAARnQU1BAACxjwv8YQUAAAAJcEhZcwAAFxEAABcRAcom8z8AAP+lSURBVHhe7P1r8B9XeeeL8ursqT1n19xy9pn95tRUnTe7TtWuM3UmL6hJUpvsZLJJduVCUrnAnpx4hpoQZ9sJ2xlzYExsQBjZJsiDLUuWjIxQjCDIQaDgWwS2I7BsbJCMCCSyZGQsERMMNteIoKT6+Nv6Pf+s/9Lq62+t7l7dn0/VI/1/fVndvdbz7Wf1evrysiquu/nmf/32W3fuuGHnruNbd97+F9fe/O4Cw5Zu79hx+5ekiZf+f99LGnnFSi6jglYx7FKbolaFq1ftY2jfMWxJdv2OnV+ZulaJrRh20aYYW9Eqhl1qU9SqcPWqfQztO4YtyXLoB6NVDFtDqy8t/E9vvP2OD998595vHj12rDhz9mxx9q+eKwCgKJ772tdKTTz+uRPF7e//wIs33r7r0etu2v4vV/IZFLQKUM2UtCpCetU+Aiyd57/xwuS1SmwFuAj9YIA8oB8MkAc59IPRKkBPrV7zrne/8obbd33ts3/+5z9YlQMANTx15pnixl27v75l+/b/tJLRIKBVgG6MpVWBXgHag1YB8oF+MEAeEFsB8gCtAuRBo1YlqO377vrWd777vdUqANCG89//frH/o4e+9Y6dO9+0klNS0CpAP4bWqkCvAN1BqwD5QD8YIA+IrQB5gFYB8qBSq3okTBlLBAXQjwsX/q7Ytue937juD275H1eySgJaBViPobQq0CtAf9AqQD7QDwbIA2IrQB6gVYA8CGpV79zjkTCA9dB7oPXBzZWskoBWAdZnCK0K9AqwHmgVIB/oBwPkAbEVIA/QKkAebNLqde9698tv3feHL67mAcAaHLjnvu+8+eabLyvFFRm0ChCPlFoV6BUgDmgVIB/oBwPkAbEVIA/QKkAebGj1HTtuf5++jg8A61N+/Oj2XY+uYlZU0CpAPFJqVaBXgDigVYB8oB8MkAfEVoA8QKsAebChVT3SokdbAGB99B7LLdtv+9YqZkUFrQLEI6VWxUsd1i8997WvrbYGAH1JrVViK0A86AcD5AH9YIA8QKsAebCh1bdv3/H8i9/61moyAKzLtTe/u1jFrKigVYC4pNKqUIBVoAWA9UmpVWIrQFzoBwPkAf1ggDxAqwB5UGpV/wBAPFIFQbQKEJeUHVb0ChAPtAqQD6n0ilYB4kJsBcgDtAqQB6VWERVAXFIFQbQKEJdUWhXoFSAeaBUgH1LpFa0CxIXYCpAHaBUgD0qtIiqAuKQKgmgVIC6ptCrQK0A80CpAPqTSK1oFiAuxFSAP0CpAHpRaRVQAcUkVBNEqQFxSaVWgV4B4oFWAfEilV7QKEBdiK0AeoFWAPCi1iqgA4pIqCKJVgLik0qpArwDxQKsA+ZBKr2gVIC7EVoA8QKsAeVBqFVEBxCVVEESrAHFJpVWBXgHigVYB8iGVXtEqQFyIrQB5gFYB8qDUKqICiEuqIIhWAeKSSqsCvQLEA60C5EMqvaJVgLgQWwHyAK0C5EGpVUQFEJdUQRCtAsQllVYFegWIB1oFyIdUekWrAHEhtgLkAVoFyINSq4gKIC6pgiBaBYhLKq0K9AoQD7QKkA+p9IpWAeJCbAXIA7QKkAelVhHVdHnm3FfKRpI9ePTR1VSYOqWwEoBWAeKSSqsCvQLEA63OC/q38yaVXtEqQFxSaVXMWa/EMBgatJoff/f3f1/c8+DDG+cKzhfLoNRqbqJ64ZvfLN6x4/ZNzmq250N3F188dXq1ZP4QwPNE7bWKWVFRuSmo09Rb331r8cf3PVD89de/vlo6LZ/9/J9vbPvgnx5eTQVIg/xsJa/oqGwIc/yLXyx2vv8DG1qX3bJ3X6n5F775rdVSecA5axhUvytpRUdlLwXXX3fetb/42x/8YDVnWKr6t2PrCT3HQfW3kldUVO5cWNL1bBPobjxU5yt5RUdlD0GdlmTSk38du67PMUYDQyNfW0krOip7afQ5b3Tlvj87Upal8bQvf+UrxddffHE1B+aM2jw7UbmC2H/oT8ppyhI+/rkTG9NjXTge/tQjxR0f/FA5yDzGhSgBPE/UXquYFRWVm4KQpsQ3v/3t4s4Dd5fTFRzOPvfcak46uNCCIZGfreQVHZUNl+J2OG0Q6elnn9041+gcNNbAbx+qzllj9x/mhup3Ja3oqOwloL7yXR85tOGvQ8X1EGMnWar0SR8kDqq/lbyionLnwpKuZ5tAd+OhOl/JKzoqewjqrmPdmHfiL0+u5qzvc4zRLJMxz6XytZW0oqOyl0af80YXfnDhQvGu9+wpyxjzpiYYHrV5dqKqEoSom9cV92J0LGEQwPNE7bWKWVFRuSkYSlMAUyOVVkUqveaMG9P8Tqtiru7wmUMndAr9h7mBVtfHjedmY/Utx+zfos/0qG5X8oqKyp0LS7qehemSSqtiKL3W6SXVQCdjNMtj7HOptruSVnRU9tJIfd5wy2AMbVmUWs1NVE0dT7tLVtY38yim0CklgOeJ2msVs6KiclPQNsgQIGBupNKqSKXXnHHvHFwnPk8dBrXig1bXx/SnJ1jsdX1L7N+iz/SoblfyiorKnQtLup6F6SK/WMkrOip7CNpqacuttxXf/d73VlPXgzGa5UGSZV6kPm8whrZcSq3mJqomQbjz3aCnE6NeSfK+Dx8s57mmx0TdE6U7EOSbyuxSlo8eQQutZ+a+vqEqgGv77uPkZnp00X13YNVyesfgc1/7Wqdl2h6vu88H7r3vknJDr6dw15nDwJuOYxWzoqJyU1CnqSo9VQ2WVgWUNn4mqnze9yv/ew6+H1Ztz10ulj5cuu6nqNOM6rZqH3y9G6fOPHPJdrfvu2vT+72Hrp9Y24uNyl/JKzoqGzbj+nrbC5Q2vuPSxv+7nr/qNPrRw5/Y+FvnrLr+g9kS4mBsVC8raUVHZc8d6cgdHHj0+PFWvtg3jjWt4y5fFevd6aJO2zq+Nv3Upv591farzkOhONyn/uaGjnMlr6io3LmQ8/VsHx/312kTR9vEyj7HUHUuqXtFsr/duaDjWckrOip7COq0JP+w2OcOlrrt2eZc71+LVK3vJkf1/UGfOh3I7z71mc8WX33+6xu+6E536eL3/jbr9NpVT23HtarqtWlf16mfpu11qZemc+kQaFsraUVHZS+NPucN0dW3XHOvfWNoom6cqKmcNnE71pjS0tDxZyeqpk6pO0jiOrKmKwjoPYoKepoux9FyobKqyhFdyzL8fderUdz1/JO0Kwab54peQUVO7r470IKZsEDvBjh7l6R1ENss0+V4q04qrvn1k+IOkzHRsaxiVlRUbgqqNPW1b3xjoxOjE6rbNm5nw73YcHXjltXGz0TI54XvV3bilj/6y7sa0X5rAMTViOk5lj5cqvZTerE69s8nVZrRNvWRtLZ61765+6u60TlGg2nu/g5dPzG3FxttbyWv6Khs2IzrCzK/o+bT1nds2Tb+L7qev+o0+qnPfGbjt52DqvoPdf0X2/e5xMHYqG5W0oqOyp47vu+5v+v6nrI+caxpHXf5qljvxvQmbXfpp1bpU1Rt38452n5dHBZVdRHqr8wVHeNKXlFRuXOhLh6IKj/t4uuizt+7lmV01bvw1zELxdG685MfK7scQ9O55OHHPl3ZJnON0Tqmlbyio7KHoE5LVf4fOtcL1z/qrkVC67t9y6pzvK+Djz9ytPRB266Z9lVJnbr+at+xmbqY1KVcv951HO6yVqYbQ5v68jHqp+32utSLqPKlodB2V9KKjspeGn3OG1182S3DL38dTZjpHOWOE3Utp87ftX91sbKr1paGjj07UfXtlFZR1WnqcyKtKsuwQODPt/X87bhiMKdvMzikcs5///uNDu4Ko+0xuoSO191nlSmxGaHl605AuaJjWcWsqKjcFLiaClnoTs02fmjt2cXPQj4vqqaHdGr7Zh1kwz1OBYsU+qjaT1FVZ3Waaat397j9ZX2Grp9Y20uBtreSV3RUNlyK/OaeBx8u695MvnHk8Scuafc2vmO+3tb/RdWyVfGoTqMhzYf0aSwlDsZGdbOSVnRU9tzxfb7OR9eNY23WqVo+NL2Ltn2a9Nbm2NucL9xyqo6tbrtzQ8e4kldUVO5ccONYbtezXfUu3HW0H3VxtKp/6R5LU6wMHUObc8nSYrSOaSWv6KjsIajSkgb7qp5OCvnwOter7u86HwltV7jH0NfnRch/q7bZ5dxQpyf/PGHLWpm2XJu+fIz6abu9rvXSpb5SoO2upBUdlb00+pw3uvhynXb7akJ+FxonWkdbIb+2ct31Q3TZ/pLQcWcnqipBGF1PgFXO0edEWlWWEQpQwg9Ghi8GN/j7ZQh3+/4d8BrE9HHLq1qmjtDxVglYuPNCgp+LCHUsq5gVFZWbgipNyT+Usbb2UcbbsLaXue0WCihd/KzKf6qm+x1iN7nonx/cZe/6yEcb96mPPur8363nrsfWRe+hZQ23zCHqJ+b2UqDtreQVHZUN1Xz7u98t7w40TVjbWyxp6zua5/6u83+jy/lL1Ok6NK+u/+AuP+c4GBvVzUpa0VHZc6ZKH9b3dHUn6vy9axwToXWqlvend9W2T6if2lafbbbfpR/sltX2uiJXdIwreUVF5c6FnK9nu+pd1K0TmtekraZY6a/f9lwS2kaX7eaGjmklr+io7CFwfS5ketWXf7NgyOdcH5Hf1F2LuOvfsnffxvabNBbarqjqf3aNG6liUqjcNuNaba/Lbd669dNle13rpc+5NCba7kpa0VHZS6PreSPkr0ZoXhufbVNOGz+NVY6vobpY2XX7S0LHnZ2ounRKQ/OVndRjyXoU0hWWGzREmxNp27IMC1Ay7Zv/WKXfcfPF0LRP7vIqS8v776zU3cIvfPNbqzUuHmfTMkab460SsAjtf1WAzhkdzypmRUXlpqBJU67fmo+Gpgm3jd2y2vpZlf+0DQzf+5u/2dh+nWnfYutD1Pl/VT1XrRPSi4u73mf//Au1yxpumXUWq35iby822s5KXtFR2dCMNKxki7W7xYKuvtPG/42u5686XYfm1e1PaN4c42BsVD8raUVHZc+ZrrGnzt+7liVC67Tddldtt+mn1pXZdfvu8nYuqTo2v7/SdCw5o2NcySsqKncuNPW9Xd8LzR/zerbKx0Wfc0RonluOTauLlU3H0PZcElpuzjFax7WSV3RU9hCEfM7aTOb284wqf1T7t7kWcdd3LaRVl7rthvTeFDfWGZupK7tNuW3GtdzjqjM75nXrp8s4QNd6CZ0bhkTbXUkrOip7aXQ9b3T15SqfTaGJOmsqp05DdX7edftLQsednaiaOqVtHEimVyCdfubLG3fq+x1J13F8B+taluGvZ6Y7IEJ3S/jHUrdPwl3ePTEoUOr1LG6QdOtG1C3T5Xir6t+wgKx1zpw9t3E8oWVzRcezillRUbkpaNJU6EKn6yCl0eSLVf7TRtd+YGh7Ul9XHy51/l9Vz1XrdNF7nyTLEPWTanuxUNkreUVHZUN7/I5tF99p0orPmEkWsYQ4GBvVz0pa0VHZc8b19ypz/TRmHBOhdaqW96e31XaXfmpdmV237y5v55KqY/P7K1XHMgd0jCt5RUXlzoWmvncbP5KNcT1btW+izzmiap71C7Tfbv++T320PZeIJcVoHddKXtFR2UMQ8rku5+5QuzZdi7jr++b2K32qtuvur6ubqrjRRbtV2wyV3aVcf1kzd1yr6riqWLd+uowDdKkX0eUckgJtdyWt6KjspdH1vNHVl6uW71pOV01U0dbf+yRZ2mx/SahOshNVU6fUOmR+x7BqutuRcqe7juM7WNeyDJWpuyPa3gnji8EVQaiMpu03rS9Cy3Q53ioBG277mVXtb67omFYxKyoqNwVNmgq1qTutS5LFqPLFKv+pmu4HhraPOIboqw+XOv9f59hC23L11+d1YUPUz7e+852k21sXlb2SV3RUNrTH1YHOKV3av6uv+Nsyqs5fXXVd138QS4iDsVEdraQVHZU9V5q0EerfdfV30XWdtuW01XaXfmqdPrtuv0s/2C2r7sJ1DugYV/KKisqdCzlfz1b5uGirbZc265j1rY8u/YQlxWgd20pe0VHZQ1ClJfMBWVuf86nyG3d9+Ubb67Cq7Vb1P6viRhftVm0zVHaXcrXPTeNaXXQn1q2fLuMAXepF1J1Lh0DbXUkrOip7aXQ9b3T15TY+u44mUpTTRUNdt78kVCfZiaquU1o1r84JQkFDVJ1I+5RlNM33CYnBFX7V4FDdib/NPrjL1HUaQmVVCdjFArjZGIEqJTqmVcyKispNQZ2mRJd2birLpUu5bQOD/MjKldXdTRQitE8+dcvU+X9Vx7VunapjCem97XEPXT+pt7cOKnslr+iobNjM2b96rvjo4U8E2zLU1l18p8uyXc9fdRoNzWsTj+ceB2OjOlpJKzoqe640xeSQ/9b5e584FlqnavnQ9CZtd+2X1+mzy/aryqk6tlB/Za7oGFfyiorKnQt12qyaN5Xr2a56F3XrVM1z991snWOo0nKIpcRoHdtKXtFR2UNQpRfXf3z/qPNHn5AvhdZvireija9Xad58sKvfV23TL7tucLVOT77WfbroLkb9tN1e23ox3VedS4dC211JKzoqe2n0OW908eUqnxUxNCFilLOOhrpsf0moPrITVUgQco7HP3diY3roxOc6gR5h9NcJBYiqjmKfsoTr3CHzXxvmHquJwRWCtvPFU6fLR1rdadq2CVu/9S5R1YeWc8XeZhnR5XjrTgSGXw/ucnqXZ1075oD2fRWzoqJyU1AVZOzD1Jouc9vJ72jow2BPP/vsRjluWW39TFT5T5fA4GvENKVt3v+SprUP9ihkDH24uPtp29Y7au0xa5mvizrNtNV7aFnbtrR6xwc/VBz808OVy4lU9RNreylQ2St5RUdlwz8gf7H3XKud5Y/2jmv3Hc5V+q7yHfmKaOv/osv5S9RptGpeVf/BcNfz14VLUR2tpBUdlT1Xmi6AfC1IT+vGsTbrhPq3IqSnNtru2i/vMhDsb78uDotQGcItJ9f+bVt0jCt5RUXlzoW5XM9qmSa9iypdiLp5frLDn9/lGFwNuvut5f1+grtPMn+7c0HHtpJXdFT2EFRdx4oq3wpN73LdV1Vul76fu54bi93tuD7rng+6+H3VNkNl9y03ZDauFdKdCPXlY9RP2+11qRejqX1Tou2upBUdlb00+pw3uvhylc+KGJoQMcoJ+Xuo3FCs7LL9JaH6yE5UriB82/Ohu8uLnxByAnfAWKaT/8EH/rT8W47hnyy1jt7H6a4jkfQpS2g9OdzHPvHQJofT9NBJ29++CULT3YBnpvdmarDI0KCRPljmLqPyJQzbfptluhxv3YnAUHmuIN26cgfb/Hm5oH1fxayoqNwU1GlKVqUrred+HFAmH7S2dQNKGz8TVf7TJTDYdGlk5/s/sLGeTH5rJ/xY+nBx91PLuett33dXsB6bNNNW76JqWb8Nh66fWNuLjbaxkld0VDZsRn6gc7w6aG47y6rOM218x2jr/6LL+atOo3XnplD/wdD8qjgIl6J6WkkrOip7jrg+5t+N5+L3P9eNY23W8fVh2qnTU522Nb9Lv9zfvkz67Lr9UByuKyPUX5kjOsaVvKKicudCztez654jXF2ItvOqjq2r9tv0E7TcEmK0jm8lr+io7CFwteT2s0RVO1b5XNtrkar1QzcuuLRZr6qv6F/nrjs2Eyq7S7latu24lqa16cvHrJ+m7XWpF0Pz6vr2KdG2VtKKjspeGn3OG6KNb4m6JItoW06VnxrrluMea0hDbWJlm+0vCR0/A0ED4TpwSCCu48/9casqMRt20qsbFJgyOq5VzIqKyoVp0xQIYVqk0qpAr1BHUxyEzaDV4egTx4h94CI/WMkrKioXxmcJel9KjE6lVYFe5wvjWsODVgHyoNQqohoGN5sZCkZjPn44NG7mOBR4rS6GujMgNtr3VcyKisqFacNAU16k0qpAr1BHUxyEzaDV4SDJAusiP1jJKyoqF8ZnCXpfSoxOpVWBXucL41rDg1YB8qDUKqIaBjfjr4Bj76zTdPexzLlfnOodfVYPoUfzrC70uHmOT7EI7f8qZkVF5cK0YaApL1JpVaBXqKIuDkIYtDocJFlgXeQHK3lFReXC+Mxd70uK0am0KtDrfGFca3jQKkAelFpFVMOhwBN6Z52CU+i9znPCvSNIVvWdhTNnzxVPfelM1o9l6/hWMSsqKhemDQNNeZFKqwK9gk/bOAiXglaHgyQLrIv8YCWvqKhcGJ+56n2JMVrHuZJXdFQ2zJclj2uNAVoFyINSq4gKIC6pgiBaBYhLKq0K9AoQD7QKkA+p9IpWAeJCbAXIA7QKkAelVhEVQFxSBUG0ChCXVFoV6BUgHmgVIB9S6RWtAsSF2AqQB2gVIA9KrSIqgLikCoJoFSAuqbQq0CtAPNAqQD6k0itaBYgLsRUgD9AqQB6UWkVUAHFJFQTRKkBcUmlVoFeAeKBVgHxIpVe0ChAXYitAHqBVgDwotYqoAOKSKgiiVYC4pNKqQK8A8UCrAPmQSq9oFSAuxFaAPECrAHlQahVRAcQlVRBEqwBxSaVVgV4B4oFWAfIhlV7RKkBciK0AeYBWAfKg1OrcRfXMua+UByp78Oijq6kwFktoDx3bKmZFReUCQDxSaVWgV4B4oFWAfEilV7QKEBdiK0AeoNV58Hd///fFXR85VLbnlltvK777ve+t5sBcKLU6d1FVDep/9vN/vjH94J8eXk1txzrr9uWb3/52ceeBuze2+9Z331oc/+IXV3PzIdQeY9RnSnQcq5gVFZULAPFIpVWBXgHigVahjrn1I3MnlV7RKkBcUmlVoFeAeKDVeUCSZf6UWp27qOaQZPnBhQvFu96zp9zexx85Wpw680z5txItZ597brVUHnRJshz+1CPFHR/8UPHH9z1Q/O0PfrCaOn10HKuYFRWVCwDxSKVVgV5hTHKNn1WgVahjbv3I3EmlV7QKEJdUWhXoFSAeaHUexE6y0M+dHqVW5y6qObyeyo7BhOgmXU785cnVUnnQtj3cE9DOu/aTZHkJlQsA8UilVYFeYSxyjp9VoFXoyhx1kAup9IpWAeJCbAXIA7Q6D2ImWejnTpNSq3MX1RySLHaHngnxhW9+s3jHjtvLaSRZpof2eRWzoqJyASAeqbQq0CuMBUmWbqDVecLF53ik0itaBYgLsRUgD9DqPCDJMn9KrY4pKnfA/cC99xU73/+Bjd8yPfIfchY51OOfO7GRaDDTY1J//fWvr5a6SNWgft1gv17H5e/L9n13FV88dbqcX7Vu1X65x1G1zJ4P3V0897Wvlcv42Pb0erAvf+UrxX1/dqT83UWYoe2qPDtOvyz31QtuIsd9imb/oT8pp6nsp599tnjfhw9urGPmt2Go7vxp7rarLPSqNLecMZNP2v4qZkVF5QJAPFJpVeSqV/c8qrjsx4xPfeazxVef//ol3wjTdJcucUH4223qD3QtX981Cy1rZjGlKkbXxbJ166lpe13qpi5++n2dnND+r6QVHZW9NOr81/pPfbUQuy9ftZzbb3b3oakfaTpou31RV18yO3+4uOvkdkPUuuiYV/KKisoFgHik0qpArwDxQKv5Eepnqr9ov/3xVy3f9tq2qZ/bpSyIi+p4VFG5FyBugyvJYc7nZ+XkMJaxk5Mq8aHBE3eae6HjX3gZoekq2xIYKkcflv/6iy8Wjx4/Xr7rzi6Sqta1fVBCRhdo7n7Zcbjl24COvUuv6iLMfXLFzD/OOkJ1Ztu18tZJsmiaBKxjUJ1ZG9r6tpwI1V1omrsd1wfcunDLFX2STynQPqxiVlRULgDEI5VWRa56dc/HMn0HTHHQzq9mOi9rgLMuVrSNC8LfrvUHtK5Nc2N4l/L9uKHjcZftGsdFjHpqu70+dROKnzmjY1lJKzoqe2n4PmXm9k37aiF2X75Nv9ndh6Z+pOiyfVFVX65NtU86BjrulbyionIBIB6ptCrQK0A80GpehPqZ1n/VNJnfP+x67VzXz+1aFsRD9TuqqEIXRUbVwE2bwf+qiz93G6HpVWX71K3rX5i5gztycBObL4Q6XJHKdMHrbqOJquNyy10nyVJF6AIzVHehaXUnjVC5XfYrNdqHVcyKisoFgHik0qrIVa9VMdONZe45ueu5t2rgsWq7dbEgRKh8i2f+Nm1ZK7dNHLd4GKOe2m6va910rbMc0LGspBUdlb00XJ+Sj/hPbsTQgqjqS1ZN9333/Pe/36rfHNqHOh203b6tU1dfU++TjoGOeyWvqKhcAIhHKq0K9AoQD7SaF1X9zLrx1yqqrp37XO9VlQXxUP2OKqq6CzP3Qs7mNTll6KKwahv+9C4OX7eufzHlzrvrIx/d+Fv7qKRLG9yMp8yvq9BxG3XHVTevzQVo04Vj2/YITas7abjL276Fpo2F9mEVs6KicgEgHqm0KnLVa+h8LKrO/W4cadPBq4pXVduNUX5Vh9JNsriDuXVx3OatW09dtte1bvp0uqeOjmUlreio7KVR5VMi5O9GFy2IdfvyekWuLavfVf3m0D5U6aDL9puuJYQ7b4p90jHQca/kFRWVCwDxSKVVgV4B4oFW86Gun9nUBw1Rde3c53qvqiyIh+p3VFG1vTCzC7kmR2q60HG34U/v4qR169aZjkPL+u9oP/L4Ey8d77dWpW/GBoFcc0XhCjW033XHVSdyE6DMvUB0y/MvvvWqhU995jPlo2nWdrKmC9XQtLr9Ds2bUlZW+7GKWVFRuQAQj1RaFbnqtSpmVp37m2JQm7ggqrYbo3w3nmnf/deFKca5x1dnduzr1tP3/uZvWm+va93Uxc9c0bGspBUdlb00qnxKxNKCiNGX1/JN/ebQPlRtp+v2/Wl19WXlLf1OQR37Sl5RUbkAEI9UWhXoFSAeaDUf6vqZdeOvRttr56b+rGhbFsRD9TuqqFJfmPnT3G3409s4qVG3rjuoUocc/p4HH97k7E114IrShBE6Zpe+Iu+SZHHLkemjoaef+XL5LRv9dkUcao/QtKb2cLOwZ86e21jWr8Mx0H6sYlZUVC4AxCOVVkWueg2dj0VVnKsa6O8SF0TVdmOU7y9rdsvefRt3xneN4+vWk5tkadpe17ppip85omNZSSs6KntpVPmUiKUFEasvL+r6zaF9qNpOn+3XHaOYcp90DHTsK3lFReUCQDxSaVWgV4B4oNV8qOtnutdu/vhrl2tb0XY7bcqCeKh+RxVV3UVLaF6dUwr3IqduUF/405vKdllnXZ+6dd3t2IWexGR39Ok47WIzdKEo3PK7iDy0beGK2S6Y7Y49X6xt2yM0reki2L1wN5vKyUL7sopZUVG5ABCPVFoVueo1dD4WoXO/qIoxXeKCqNpujPItbtbF57p4GGLdenJfF9a0va510xQ/c0THspJWdFT20qjyKRFLCyI0r6n8qnOEEVo/tJ0qHfTZft0xiin3ScdAx7+SV1RULgDEI5VWBXoFiAdazYeq6zNR1wfteu1cd73XtSyIh+p3VFHVXbQ0OYasavDfdbKqbYSmV5Xts866Iaqc3b1oc/ddx+q/OqFOJFV1WSfyqnqre7rGLyN0XKFyQ9PaDBLZcZlVLTc02pdVzIqKygWAeKTSqshVr1Xnfvec3JRk6RoXRNV2Y5RftU0fW07WFMdj1FPb7XWpG9EmfuaGjmUlreio7KVR5VNGDC2IWH15H1/ToX2oK6vr9pvqS0y1TzoGOv6VvKKicgEgHqm0KtArQDzQal50HX/tem0rqvqsfcqCeKh+RxWVe9GihtZrO/SudHuMSeZfzLhOo3W+eOp0+QoBd5rrMFWJitAFk1+27c/jnztR3PHBDxUH//RwuVzbdYX27f6XRKb3R9vrQTRfvyUEzTdxuAMyhitQK/Nr3/jGpiSLzF57ErqgcwUoof3117++8doFW98XoC9arfP0s89uulPP9te9WNU+qC5UZ7as2yah9qi6eK06ORnuev66Y6J9WcWsqKhcAIhHKq2KXPVadT52Y0JT8kB0iQuiarsxyvdjhW8WP91tuTHXjeO2/Rj11HZ7XetGNMXP3NCxrKQVHZW9NKp8yuirBVs2Vl/e9KTfdf3mquNpc5Fbt32jqb6Eu0zdcktAx7+SV1RULgDEI5VWBXoFiAdazYuq8VfrZ9r0UAJEZtelddfOoqqf26csiIPqd1RR+Rdm9rds+767youeEL6TmOldc3JgFy3rJhPsoqfqgqmq7D0funtjf5rW3fn+D2xaVwM4dnGoRIU+POTO17ErgeMOkLhIGH6ZWkfH+9SXzmy8o7pOLBK1Ww8y7Zcdpy9yoYSIn8zRNu3kYBe3Ou7Dn3pk03Iq++ADf1r+7e5XqD3q6tPf56pBq7pjHxrtzypmRUXlAkA8UmlV5KrXqvNx1yRLl7gg6uLAuuVrWQ0Mf+wTD22Ks5rud041rSmOi5j11LS9rnUjNK8ufuaG9n8lreio7KVR5VMufbQgHbnLxujLt+k312mkSgdtty/a1tcU+6RjoDpYySsqKhcA4pFKqwK9AsQDreZHaPxV/WKb5o+/qh/Z5dpZVPVz+5QFcVD9jiqqNhctkA73gjCUZJk67v77A0xjov1ZxayoqFwAiEcqrQr0Og3cOBHqZ7j9kKbXIsF4oNXpQl/+IlPtk45BKr2iVYC4pNKqQK8A8UCrAHlQanVMUXFhNi65J1ncV49NaXBM+7OKWVFRuQAQj1RaFeh1GrhPloT6GXN7rdZcQavThb78RabaJx2DVHpFqwBxSaVVgV4B4oFWAfKg1OqYouLCbFxyTrK47zSc2itQtE+rmBUVlQsA8UilVYFep4Eb55RIsW9LaLr7GDV9kGmDVqcLfflp90nHIJVe0SpAXFJpVaBXgHigVYA8KLU6pqi4MBuXHJMs7p2Csrpv2YyF9msVs6KicgEgHqm0KtDrdFCsC31bQkmX0PcXYHqg1emy5L58Dn3SMVBdrOQVFZULAPFIpVWBXgHigVYB8qDUKqICiEuqIIhWAeKSSqsCvQLEA60C5EMqvaJVgLgQWwHyAK0C5EGpVUQFEJdUQRCtAsQllVYFegWIB1oFyIdUekWrAHEhtgLkAVoFyINSq4gKIC6pgiBaBYhLKq0K9AoQD7QKkA+p9IpWAeJCbAXIA7QKkAelVhEVQFxSBUG0ChCXVFoV6BUgHmgVIB9S6RWtAsSF2AqQB2gVIA9KrSIqgLikCoJoFSAuqbQq0CtAPNAqQD6k0itaBYgLsRUgD9AqQB6UWkVUAHFJFQTRKkBcUmlVoFeAeKBVgHxIpVe0ChAXYitAHqBVgDwotYqoAOKSKgiiVYC4pNKqQK8A8UCrAPmQSq9oFSAuxFaAPECrAHlQahVRAcQlVRBEqwBxSaVVgV4B4oFWAfIhlV7RKkBciK0AeYBWAfKg1CqiAohLqiCIVgHikkqrAr0CxAOtAuRDKr2iVYC4EFsB8gCtAuRBqVVEBRCXVEEQrQLEJZVWBXoFiAdaBciHVHpFqwBxIbYC5AFaBciDUquICiAuqYIgWgWISyqtCvQKEA+0CpAPqfSKVgHiQmwFyAO0CpAHpVaHFNVDR44UV/7efy5+/JU/Xfzwj/4Y1tL+7f/yE8XrrvydYv8ffWhVk+2hzvvZOnWeKghONQDiY5hr62hnaFJpVUxVr31B58NaTjoaArS6Huh32jY3vafS6xK06oJup2FzjsfE1mbQ4XyNa9aLzDW2ot18bE5xttTqUKJ61y23FP/5Tf+lOPrYY8W3v/Od1VRow9/+7d8Wnzl2rKxDnSj0uw3UeX/61rlIFQSnGADxMfBZRztDk0qrYop67Qs6H56cdDQEaLU/6Hf6zE3vqfQ6d626oNvpMOd4TGytBx3Om5y0jVa7gXbzYk5xttTqEKL6k3vvLd76jnesfsE67NpzZ2lNUOfxaFvnRqogOLUAiI9BE121MzSptCqmpte+oPPxmbqOhgCt9gP95scc9J5Kr3PWqgu6nS5zi8fE1mrQ4bKYurbRanvQbt7kHmdLrQ4hKj36o8wUrM9fPfdc8XO//MurX9VQ5/FoW+dGqiA4tQCIj0ETXbUzNKm0Kqam176g8/GZuo6GAK32A/3mxxz0nkqvc9aqC7qdLnOLx8TWatDhsuCadT6g3bzJPc6WWh1CVHrH2pwerR0bvbeuCeo8Lm3q3EgVBKcWAPExaEMX7QxNKq2Kqem1L+h8GkxZR0OAVvsxdf1euHCh+D/f8P8rdu3Zs+n3773pTeXv2KQuPxa56z2VXuesVRfi7rSZUzwmtlaDDpcH16zzAO3mT85xttTqEKJa+uBAbNrUJ3Uely71mSoITi0A4mPQhin7SSqtiqnptS/ofBosvR3Qaj9i+Y0lJ370J/9d8cILL66mrk9VkuW23bvL37FJXX4sctd7Kr3OWasuxN1pM6f2IbZWgw6Xx5TbHK22B+3mT85tWGp1CFHh6HFpU5/UeVy61GeqIDi1AIiPQRum7CeptCqmpte+oPNpsPR2QKv9iOU3577yleI3r7jiJbuyuP/wx1dT18dPssTm+Oc+N/mnVkLkrvdUep2zVl2Iu9NmTu1DbK0GHS6PKbc5Wm0P2s2fnNuw1OoQosLR49KmPqnzuHSpz1RBcGoBEB+DNkzZT1JpVUxNr31B59Ng6e2AVvsRy28+8rGPlckK+z8WqZMssfd3KHLXeyq9zlmrLsTdaTOn9iG2VoMOl8eU2xyttgft5k/ObVhqdQhR4ehxaVOf1HlcutRnqiA4tQCIj0EbpuwnqbQqpqbXvqDzabD0dkCr/YjhN5YI0RMseqLlf/vFX9p4ZZjN23vXXcUVV/1eub2Xv+LHiz/8wAc6zfdfF+YmXTRt++27ynVl127ZUpw/f76cd+aZZzbKlb3tHVs35m279daN6TIlW6rKv+nmmzeWc8u35bX/toz2332a52P33V/8+E//dDnvV/+/v1Gc/tKXVnP6o7JyJpVe56xVl9zbf+7MqX2IrdWgw+Ux5TZHq+1Bu/mTcxuWWh1CVDh6XNrUJ3Uely71mSoITi0A4mPQhin7SSqtiqnptS/ofBosvR3Qaj9i+I2bWPn+979f/m1JBktCuMmFxz/zmeJ//bmfL/78C19oPb8uyaJkyf/+H1+7sf5njx/fSIIowfHQnx0p/37uq1/dtG/Cf5KlantaRmXqtxI62p791nwlVrS/QmXat2lUN3Yswt23dchd76n0OmetuhB3p82c2ofYWg06XB5TbnO02h60mz85t2Gp1SFEhaPHpU19Uudx6VKfqYLg1AIgPgZtmLKfpNKqmJpe+4LOp8HS2wGt9iOG3/iJCiU97HcoKeJO6zrf/+0nMZrQvrnbakqyhMp3E0mh/XeTTvpbT7HoyZwYyRUjd72n0uuctepC3J02c2ofYms16HB5TLnN0Wp70G7+5NyGpVaHEBWOHpc29Umdx6VLfaYKglMLgPgYtGHKfpJKq2Jqeu0LOp8GS28HtNqPdf3GkgwqxzV7kiOUhBCWiOk63/+tD9fbtkJo+bsPHixfGWav7HK31ZRkCZXvLuMvL9wki9ATNPYqMfdVY+ugsnImlV7nrFWX3Nt/7sypfYit1aDD5THlNker7UG7+ZNzG5ZaHUJUOHpc2tQndR6XLvWZKghOLQDiY9CGKftJKq2Kqem1L+h8Giy9HdBqP9b1mz5PejQlKerm+79D2zdsP5TYOHnqVDlt6CdZXLSs+5TPOuSu91R6nbNWXYi702ZO7UNsrQYdLo8ptzlabQ/azZ+c27DU6hCiwtHj0qY+p1jndRfLLlUX3TEuXPvSpT5TBcGpBcAp+NgUfAPqmfL5P5VWxdT02pcpt1+IuZ4TcmuH2KDVfqzrN0pS2PdJXPwnUdxvpmgd/0mXpvl+f8//7e6Dvumisvw+pabraRY3IeLvf1X5OhYto9+hb7K4ZbpJFv2tj+Jb+R88cHeUc0/uek+l1zlr1WUp53tXfzkxp/Yhtlazbju39e9QnIFxmLK20Wp7hmpH0662l1scq6LteG1qco6zpVaHENXQlaSLP23TTB/ctA9jzoE29dm3zlV3oVczSHD+xWtX2orW72zY79t27y5/j0GX+kwVBKcWALvUia9JfURW7WkDE32Zgm8I//hksV4bkjuqi6mSSqtianrtS9v2kxY1OGn+/0uv+d/Lj1IPTcxzQsp42JUp62gI0Go/1vEbvy/mYq/Z+trzz5fL/Je3vKX4zSuuLLenPrf186yMqvlCiRD7sHxom5pmr+OSKba6CRt3upZz19VTKbZdJU6+893vtirfYndof6R/S7L467of+F8HlZUzqfQ6Z6269G3/3K5/TV9j9+G7krs+XYit1TS1c+ja723v2HpJ/Gjy71CcgXFoavMxQavtaduOTRpuQn1h90aeOUCSZX1KrQ4hqqErSYJxs4lHH3us84CIRDPVjGSb+uxb53ay0WsSXOxCdp0OQN8kyxToUp+pguDUAmCXOvE1qXeYa5BiLh3K0PHJh+dyV8M69D0XDUEqrYqp6bUvbdtPGnj9G96w0dHUXeU3vmvbJDqefeN5zHi4bp9iyjoaArTaj9R+09RfY/CoH7nrPZVe56xVl77t7/dF53b9OxXmFI+JrdU0tXOsaz/iZFq6nNOmrG202p627biuhnU92FXvU6drkiVVnyHnOFtqdQhRDV1JvmCEHCB0R2oVUxZNm/rsW+equ+tvumnTsSv4v+HNby7e+o53rNUBIMmyHlMLgF3qJKTJOQWmGOecuTL0+b8LqbQqpqbXvrRpPztn+8mIqdD3XBMzHq57vpuyjoYArfYjtd809dem2J/Lgdz1nkqvc9aqS9/2n/v171SYUzwmtlbT1M5Veut6ZztxMi1dzmlT1jZabU/bdlxXw3OMl12TLKnqIOc4W2p1CFENXUkhwbgfshRnnnmmuOKq3yv3TeY+Gqb1bbrMyqpbZ0i07SbaLBNCx67HWvVqB+uQS2y//frXF9ff9M5NHQB1CqpesSDc+XoVhAarXNH661t9+p2Nqt96D7ZbvjvAp0y0vSLCtb6DgFq3LamC4NQCYJc68TVpT7JYe1ibuu3jXxjq1UO6I0/btVdy9PENLRPyOxHaRt10oypI2/7bfqkc/e++GsXdl5CG3Fcw+a8xiXUcfcpqi9abKqm0Kqam1760bT9pQJ3SKv+o87EqP9f0uvOCzXd19eSJE+Xfdk4IxfOQXkOdRC3XNh7WxZzQPnRF6y0ZtNqP1H5jGnS14NI0H8LkrvdUep2zVl36tn8otg11/WtaV//bllVM/sMPfGDT/KZ4XRebm/ZD2wj1JZrK7YrKngvE1mqa2rnKr2yANhT/QtdU/nKh9Wya9GV9TdOQW6b7arI6vbjlWd9c5bn97Sa9NY21aBuhfn+fY2lTVug4qs5pVWiZqYJW29O2HZs0LKp8T8vZNPlcaFzH91M3/rVZvk6fWqbPGJGPu6y24Y/XpuozNKH1cqXU6hCiGrqSQoIxZ7WAJSe399T6A74i1PlqWmco2tRn3zpX3amOdPx2bPpb02yesPpUHdnJQEL3Oxbub30Q1E4qwtrJ5tugla3rb8v/7ZalffQH3mz5rhnZEF3qM1UQnFoA7FIn/klYbWcXXsLazNWTO5jqt+Fnjx/f5GdtfUNU+V3VNqqmu1iZhs4P2g+bZvvlJzZsGdsXV0NC5eq3reNuO+ZxdC2rC138ZGhSaVVMTa99adt+8hvrpP3mFVcUJ0+dWs25SJWP2byQn2s5aaTqvGDzQ7qysoUfz+XXit92TghtR2i/VE7beGi/fd0Ifx+6MmUdDQFa7cfS/SZXcm+3VHqds1Zd+ra/xVkXPz6luv4NxWO9NtRiYWi+v2/+zVU237bVtB9VfYm2Mb8tczqvEluraWpnX2/mk237hn5fV8vZ31U6dhMz2r72UckI83O3/Dq9WHl118tt1q86NmH14/f7+xxLU1l1x9Gl/z1lbaPV9rRtxyYNiyrfE75vtfV5Yx2/1rpdx4h8bDs29qTf/nhtqj5DE1PWYhOlVocQ1dCVZI7lYk4UcjChddx5bU7I/jpD0aY++9a5HZOCm+7W1UdC7S5e93hDwdS9Wyo0352mv7WsnSiEu023rfy2C7WlW57241W/9uqNbdvyXcXt0qU+UwXBqQXALnXia1JtooSCMtv2228jP8miO1uUmLEAIrr6Rp3fnXr66eA2qrbtouNTfZgpOFlHUVTtV1cNGTGPo09ZXejiJ0OTSqtianrtS9f2U2fKki2m7yYfq/LzpvNCSFehaX4898sN7Z9oGw/bxJw2fYo6pqyjIUCr/Vi63+RK7u2WSq9z1qpL3/b3+9oiFBNd3Fgm+l7/NsXjpvnub4udivc2+BPC3Q/F6bZ9iaqY35Y5nVeJrdU0tbP8T8uY6dpP10uG79/yu9A1lbucygz5vF+W8PXhP7Xm4+olVF6TLtz1m/q9obI0zfrSXY6la1n+8l3631PWNlptT9t2bNJwne/JV13fWtdPRdvl9XefMSL/vBIqp65s4Z4HRN8+QxNT1mITpVaHENXQlaSG9BvbDzwKBncfPFg+yqSAp31scpimdYaiTX32rXMTgY5V752//08PbwyUuQJxB7oMN2CH5rui1Xzto28KsP6JxS039Fv4JxR3X5tOFm3QvrUlVRCcWgDsUidVmrQOmrWp2zH0fcgdvPVfJ9TWN+r8TuWFtiGqphuh43MJ7VcfDRkxj6NvWW3RelMllVbF1PTal77tJ90pTkrTdT6mD/NW+XnTeSGkq9C0UDxXOebjmu8ub7SNh6Ip5rTphNah+loyaLUfS/ebXMm93VLpdc5adenb/lV97SGuf0OxV9g+heaHprnb9+Ns3X64fYMQbWJ+W3LXpwuxtZqmdnb1FvK/kH+HrqlsOU3Tk+Ay349DZbk+LbpoPVSeP5ZSt76o6/dq37S8b9rfrkmWrmX5x9Gl/61ypwpabU/bdmzScJ3vWSxx169atsrnuyzv+nVoX42mfXYJleNruek80LfP0ITWyZVSq0OIauhKcgVjuE5kJ24FN3ulid+R8x2mzTpD0aY++9a5e0yqA2V0LVi783wBCjcghua709wThY8f+Jt+C788DdypDmQ6Bj22tg5d6jNVEJxaAOxSJyFNyl+6JFkMLWvldfWNOr9zcbfhUjU9NM2lar+6asiIeRzrltVE33PREKTSqpiaXvvSt/3M582Xq3yszs/dMgz3vGDzXV2FpoU6gHb+0TuglUAJbV/+buXUxUPRFHNC+9CFKetoCNBqP5boN3XnlFzIvd1S6XXOWnXp2/6hPtpQ179N8bhtvLb+ggaj3Tvlm/ajSfdtYn5b5nReJbZW09TOvt783yH/NjTPlrflQgO3RqgsadsdODWNqJ/apJc67bU9V9T1e92yfLoeS9ey/OW79L+nrG202p627dik4TrfE65vreunLk3L6+91x4hEqBx3WpvzQN8+QxNT1mITpVaHENXQleQLREFAWTQbHPEdSu+M1XzfYdyTfZt1hqJNffatc1cEvkjdeSZ+1bPqSL9D32Tx5ysIqw79+UIdans3p3tiafot3H3V/HU70D5d6jNVEJxaAOxSJ74m1Uaa5mrMltFv+YI+hmcXhmpfffzLltX7IrVsH9/Q/JDfVW2jarqLf3w+of3y90W/675rJHTecTUS4zj6lNWFoc//XUilVTE1vfalTfvJTxQf3Qssxd0u5/uQn4u684KtG9KVO82P54am6/VfoUeohbZt5egY6+JhU8zx90GdUKuTNkxZR0OAVvuxRL+x81HMPuDQ5N5uqfQ6Z6269G1/vy865PWvG8stfqusrvHapunju132w92+reP2JURTzG/LnM6rxNZqmtrZ15t81NWb79+aX3cdZsu5CQYjpJWmxEQbvbjlaR3r57ZZv67fa+Vb/134/f62x9K1LPc4hH9Oq2PK2kar7Wnbjm01HPI9Id+y9bv66Tp+bfND8a6uXB9/Wf12x2ubzgOib5+hiZzjbKnVIUQ1dCVJMNqmmT4yZB/fMeQQNl+ZNj266Ta+Tu4azNF8c5ymdYZC22+izTIh3IEjH3+ehGiPvFqdmMCEBG11KLF++KOHNt2VZEK29dVONk917Q/Q2bb93yIUUK1cM3//uqD125IqCE4tAHapE1+TMr89LLBpnnzhzz71qU3BxPU192N5XX1Dy4T8rm4boekufpD2Ce2X8Mv26yQ037atebGOo2tZXdB6UyWVVsXU9NqXtu2nTpSd781X7HwuqnzM5lX5edN5wddVaFoongsr29el0SUeNsUcfx9e/OY3y/2sO2+4aL0lg1b7kZvfaKClrSaqkK7dC7wmYmwzNrnrPZVe56xVl77t7/e1FTOHuv612Kskhq3vx/k28VpIk1rfn960Hyqvqi8hmmJ+W1T2XCC2VtPUzqFrP/mo6cb3b98/pQ+7PvN1IA1YglJULeP2ad3EhKjTS6g8/3q5SW/ufHc52x9to+rasuuxdCnLP46qa4AQWmaqoNX2tG3HJg2LKt8TWtZdv4ufinX8WstUxbuqckM0jdc2nQf69hma0Lq5Ump1CFHlXElTpE19LrnOdRLy71KyE4AF6650qc9UQXBqARBdQxum7CeptCqmpte+zFnnigtuR7IvKWKOz9LPt2i1H7n5jX/B2gfpsUuSJcY2Y5O73lPpdc5adcmx/asGkaZErJg/p3hMbK1m6f2uOobo947BlNscrbYH7eZPzm1YanUIUeHocWlTn0uuc7v7w+1E65H5LhfdPl3qM1UQnFoARNfQhin7SSqtiqnptS9z1bkGhEJ3MPUhRczxWfr5Fq32I7Xf2MCqXoHi3gmn7x7o9YH2FNptu3ev1rj07ru3vWNrOVDj34Vv2jzzzDPlxzP95Q23PG1brxlytVe3ft9tpkbbzJlUep2zVl1ybP+pJ1lixvzc9elCbK1mTu0cmyH6vWMw5TZHq+1Bu/mTcxuWWh1CVDh6XNrU59Lr3L24l/3mFVd0fs2RS5f6TBUEpxYAl+5j0I4p+0kqrYqp6bUvc9S5Lg51XO5rDdYldszxmWM7dAGt9iO139jAql5FYK89scSFEivSl/9kiQ10ap6Wv/6md24MzIaeKpG27JVHeq2B/woRbd9eUaDfes+9vW5W1K0vum5zCHLXeyq9zlmrLjm2v2lxikmW2DE/d326EFurmVM7pyB1v3cMptzmaLU9aDd/cm7DUqtDiApHj0ub+qTO49KlPlMFwakFQHwM2jBlP0mlVTE1vfYFnU+DpbcDWu1Har8JDaxqQLPq3epKuLjvlBbua0favLpLSRrbXujVYKFpLu76ous2hyB3vafS65y16kLcnTZzah9iazXocHlMuc3RanvQbv7k3IalVocQFY4elzb1SZ3HpUt9pgqCUwuA+Bi0Ycp+kkqrYmp67Qs6nwZLbwe02o/UftM1yWJ3lPvmfizTT3hoG3cfPFi+vsvumrXtqTz348DCT7LUrS+6bnMItL2cSaXXOWvVJff2nztzah9iazXocHlMuc3RanvQbv7k3IalVocQFY4elzb1SZ3HpUt9pgqCUwuA+Bi0Ycp+kkqrYmp67Qs6nwZLbwe02o/UfhPjSRYXP+Fh6+o1PydPnSqndXmSpWl90XWbQ5C73lPpdc5adSHuTps5tQ+xtRp0uDym3OZotT1oN39ybsNSq0OIKnUlhS7y5kyb+szZMafYnl3qM1UQnFoAzNnHRNMrRQzfH+130+tFpsAUtDRlP0mlVTE1vfZlDrEktlbHOAfkfr5dF7Taj9R+E4oxdUkWVzs2X988sfe4K+HhruvH6cc/85nyyZJQPNY6+r399l0b32RpWl903eYQ5K73VHqds1Zdcmr/2PEwdnkpmFM8JrZWM9d+1xI125Yptzlabc9ctRtiTvpzybkNS60OIarUlWTONeZA4pC0qc+cHXOK7dmlPlMFwakFwJx9TKybZNFHfafOFLQ0ZT9JpVUxNb32ZQ6xJLZWxzgH5H6+XRe02o/UfhOKMXVJFqF1lAjRvsn00XyLw1r2N6+4spxuZSgJYsvq6ZKbbr550/aUpLF1lFz58EcPFa/6tVdvlNm0fp9tpkbbzZlUep2zVl1yav/Y8XCM+NqV3PXpQmytZk7t7LJEzbZlym2OVtszV+2GmJP+XHJuw1KrQ4gqdSWZc405kDgkbepzSMfUBXXM7OkU27NLfaYKglMLgDmf/ETfJEtK5qilKftJKq2Kqem1L7nr3Ce2xoZibu3QFbTaj6X7Ta7k3m6p9DpnrbrMVbe5xl+fObUPsbUa4ud8NNuWKbc5Wm3P0rU7B93m3IalVocQVepKIslyKUM6pu74m9vAsE+X+kwVBKcWAHM++YkpJlnmqKUp+0kqrYqp6bUvuevcJ7bGhmJu7dAVtNqPpftNruTebqn0OmetusxVt7nGX585tQ+xtRri53w025Yptzlabc/StTsH3ebchqVWhxBVjEpyXwfgmvuOZ3cgUdP0eL8tp8f97dUF4mP33V++Y1nz9KoCex901fQzzzxTXHHV722U97Z3bN0oz7avdfW/Xlfw71/72kucO5bDa/tNtFkmBvoYqNWJzI6vqf7r5ofas6pdhkLbbUuqIDi1ANilTrpiPrD3rrs2vQbkyRMnNvmC+2hkF59TWdffdNOmJIu/vmnc98eq39pXt3x7NYqoO38Zc9WStjNVUmlVTE2vfenTfuZ3bkyUznxf9TUmDVmc1Tp/+IEPrEps1kHIr33/76MxK8M9Fp2H3HKFX4bbR4ihOa27ZNBqP5buN7mSe7ul0uucteqSsv1DMa0uPouu1+ChmBeKv1OJr13RtuYCsbWaqbQzmh0O7dNUQavtGaIdu+rSls/lWjflWHYbtI+5Ump1CFGtW0m+8/h3oPvz7becwJxa73+2dy3763/2+PHa6UJO99CfHSn/VuDy3y+t7bmBQmVpmRdeeLH8bcu4g6p9aVOfQzqmL7im+m87v6q93XYZii71mSoITi0ApvQx8wE3gFjQUGJF7e/6RVufcn9/8MDdGwFRqHx3/etvemfpg7auf37xf7tlSRM/+pP/rtS/v7zvzy5z1NKQ56KupNKqmJpe+9Kn/czv/IunJo25y+tj0231XeXXtp75v+irMXffQuVWHVsszU1ZR0OAVvuxdL/JldzbLZVe56xVl5TtH4ppom0f2I9pTfPdmFcVf8eOr12Z03mV2FrNVNo5pBOBZuMzZW2j1fYM0Y4hLYgmXbrLT/laV9tLNZbdhpzjbKnVIUS1biXpo5TuRyz9RrbfVcFCuB/e1HxlAZU5lGMZVdNDSEC2PX/7wt9H31HXoU19DumYvpDb1H/d/FB7tm2XVHSpz1RBcGoBMKWPhTSl90taMBBdfCo0352mv319atpvv/71xXe++91N++LvW2hf3fK0H3XnL5c5amnIc1FXUmlVTE2vfenTfk2aMDQtpDHhltFGByG/Du1HV42FygjpqurYTj39dBTNTVlHQ4BW+7F0v8mV3NstlV7nrFWXlO3fNT6/+M1vdr4Gr4p5VQM/Y8fXrszpvEpsrWYq7Yxmh2PK2kar7RmiHbvqMtdrXTtvhI4tJTnH2VKrQ4gqRiW5SQ3fUXzH0GCs3UVu+MvoaRR7ZMp9XKpquta/++DB8vEuObjmW1khxxTuoLCc3Z/flzb1GaPO2+ILuan+m+aH6rOqXYaiS32mCoJTC4ApfSzkA3VJlj4+555HNF/H45u2t26SRdSdv1zmqCVtZ6qk0qqYml770qf9Qn7XRWOG3Q3U5Oci5Neh/eiqsVAZ/rS6Y9N+xNCc1l0yaLUfS/ebXMm93VLpdc5adUnZ/qGY1hTDulyDi6qY58ffqcTXrmhbc4HYWs1U2hnNDof2aaqg1fYM0Y5ddZnbta7QeqZblenPT4mOMVdKrQ4hqhiVdPSxxzYcVa/l0eu7DN8xQoOY7oCsi9Y153Zxp9u6cuaTp06V893gVeWYWk93EuhdlW9485uDg6p9aFOfQzqmL+Sm+m+aX1Wfoqq9UtOlPlMFwakFwJQ+FvIB90QvuvhUaL47TX9rWTf4GP6+NP0Wfnl15y+XOWppyHNRV1JpVUxNr33p035tNOESWt6d1uTnLq5fh8rtqrGmfRN1x+bi7ltXpqyjIUCr/Vi63+RK7u2WSq9z1qpLyvYPxbSmGNblGtzFj3l+/A2t608bIr52ZU7nVWJrNVNp55BO0GwapqxttNqeIdoxpIU632/Sjtad0rWu0DIpxrLbMGUtNlFqdQhRrVtJavi6hvUdw37LuSzD57/TTh8dssFafZtBy9ZNdx1T78/T0yz+9nzHFHLy//KWt5SPiVm569KmPod0TB2jO/jdVP9t51t9VrXLkHSpz1RBcGoBMKWP+T4g6pIsbX3Kn2/fUfHnC90toPdS2rwqvfu/hXzWgqzmtw1Mc9TSkOeirqTSqpiaXvvSp/18vxO+rwpfY/JbexestGB33fjr6rfr51V+HdqPvhoLHYtN88sQdmyxNDdlHQ0BWu3H3PzG1VpMUpXbl9zbLZVe56xVl5TtXxfTQjFM87pcg9fFvKr4O3Z87cqczqvE1mqm0s51OkGzcZmyttFqe4ZoxzotVOlS86Qn/RZTvtY1VFbssew25BxnS60OIaoYlaQGVjmu+Y8z2oCpkLPY41T+sv48+8hP1XThbl9laTk/mIQcU4JwEzIx0D400WaZWGiw+zevuLLcpivWqvoXTfPd9qxrl6HQdtuSKghOLQB2qZOuhDRVl2QRTT6lIGd+Kt/68EcPXfLOWgUcW19+ZvN8f3T3LbSv0r0lWUTT+cuYo5a0namSSqtianrtS5/2C2lCaHpIY7a8OnHm/67+RJ2fV/l1aD+6aixURtW0qmOLoTmtu2TQaj/m5jemvdt2715NiUOqcvuSe7ul0uucteqSsv1D8UtUxTBR14f1y9Pvqpjnx9+md9QbVftWt62UaFtzgdhazVTaOaQJUaULgWb7oX2aKmi1PUO0Y8jvRZ3va/lcrnWNFGPZbdA+5kqp1SFEtW4lqXH97Jk5j//41NTQfroDuTFoU585O+YU6VKfqYLg1AIgPtaOnM9fMZiyn6TSqpiaXvsyRPvVde7gIks/36LVfizBb3QDxpTuhI1B7u2WSq9z1qrLlNp/6X3YEHM6rxJbq8m1ndFsf6bc5mi1PVNsx1yvdVOMZbch5zhbanUIUa1bSbqA0qNUbuPqXZP+u+WmhsSU4l2TbeozZ8ecIl3qM1UQnFoAxMfakev5KxZT9pNUWhVT02tfhmg/kizNLP18i1b7sQS/0R27JFmmRSq9zlmrLlNq/6X3YUPM6bxKbK0m13ZGs/2Zcpuj1fZMsR1zvNZNNZbdhpzjbKnVIUQVo5L0wS49qqSyZL95xRWTerzQRwFO++k+ihWLNvUZo87hH+hSn6mC4NQCID7WntzOXzGZsp+k0qqYml77MkT7kWRpZunnW7Taj1h+YxpVLNP/Va+gfNs7tpZ9Xlte74++4qrfK+dpnT/8wAdWJV4ss+rVBcKNm1WvRdDFn60vswvBurKtDPdY9FFPt1zhl2HHJkL7FhOVmzOp9DpnrbpMrf2X3IcNkbs+XYit1eTczmi2H1Nuc7Tanim2o99/nTopx7LbMGUtNlFqdQhR5VxJU6RNfVLncelSn6mC4NQCID4GbZiyn6TSqpiaXvuCzqfB0tsBrfYjlt/YxaGfULA73Cyxcv1N7ywvIEPLP/6Zz2zcSWvz3XX1Dmt7d7Red+LedfvZ48c3lvMvUv0nWZrKtvnuvoXKrTq2qn2LSe56T6XXOWvVhbg7bebUPsTWatDh8phym6PV9qDd/Mm5DUutDiEqHD0ubeqTOo9Ll/pMFQSnFgDxMWjDlP0klVbF1PTaF3Q+DZbeDmi1H7H8JpSEULLhf/vFXypeeOHF1ZR/eBd808dx/USF0HufVZ7eGa/5ugtXT764CYzQfvhJlqayQ2X40+qO7dTTTwf3LSa56z2VXuesVRfi7rSZU/sQW6tBh8tjym2OVtuDdvMn5zYstTqEqHD0uLSpT+o8Ll3qM1UQnFoAxMegDVP2k1RaFVPTa1/Q+TRYejug1X7E8ptQYsJeJeCbnhgJJVmEPR1i74x3kxj+Np776lc3Xtdlrytok2RpKjtUhj+t7ti0H6F9i4nKzZlUep2zVl1yb/+5M6f2IbZWgw6Xx5TbHK22B+3mT85tWGp1CFHh6HFpU5/UeVy61GeqIDi1AIiPQRum7CeptCqmpte+oPNpsPR2QKv9iOU3ocRE6GkPoymR0fS0iYvWs+RMqNyhnmQJ4e5bTHLXeyq9zlmrLsTdaTOn9iG2VoMOl8eU2xyttgft5k/ObVhqdQhR4ehxaVOf1HlcutRnqiA4tQCIj0EbpuwnqbQqpqbXvqDzabD0dkCr/YjlN3WJCSUY7EkOPeGh75zYPD35Yd89UTLEnjDx19Vv/5ss+mi+lfvBA3fXJllsPdFUdqgMf5pfhrBjq9q3mOSu91R6nbNWXYi702ZO7UNsrQYdLo8ptzlabQ/azZ+c27DU6hCiwtHj0qY+qfO4dKnPVEFwagEQH4M2TNlPUmlVTE2vfUHn02Dp7YBW+xHLb0KJCWEJDG1Hpo/J6wkSW/6/vOUtxW9eceWmeYaWsVduydzXbvnz7CP1of3QUyq2DTeRUle2X0bVtKpjC+1bTFRuzqTS65y16pJ7+8+dObUPsbUadLg8ptzmaLU9aDd/cm7DUqtDiApHj0ub+qTO49KlPlMFwakFQHwM2jBlP0mlVTE1vfYFnU+DpbcDWu3HWH4TSlpAe3LXeyq9zlmrLsTdaTOn9iG2VoMOl8eU2xyttgft5k/ObVhqdQhRveY//Mfi5FNPrX7BOnz7O98pfvyVP736VQ11Ho+2dW6kCoJTC4D4GDTRVTtDk0qrYmp67Qs6H5+p62gI0Go/xtIvSZb+zEHvqfQ6Z626EHeny9ziMbG1GnS4LLhmnQ9oN29yj7OlVocQ1fbbby/e+4d3rX7BOjx05Ejxn9/0X1a/qqHO49G2zo1UQXBqARAfgya6amdoUmlVTE2vfUHn4zN1HQ0BWu3HWPolydKfOeg9lV7nrFUX4u50mVs8JrZWgw6XBdes8wHt5k3ucbbU6hCi+tu//dviP7zut4q7D36k/Bv6IYdTZvbr3/jGako11HkcutS5kSoITi0A4mNQRx/tDE0qrYqp6bUv6HxcctDREKDVfqDfvJiL3lPpdc5adUG302SO8ZjYWg06XA5cs84rtqLdfJlDnC21OpSo9NjP1j/4g+Lf/i8/Ub5jDetuyuh1cTjqfH3rWuciVRCcYgDEx7Aq66OdoUmlVTFFvfYFnY9nOehoCNBqf9BvPjYXvafS69y16oJup2dzjMfE1nrQ4TKMa9b5xVa0m6fNIc6WWp2jqADGJFUQRKsAcUmlVYFeAeKBVgHyIZVe0SpAXIitAHmAVgHyoNQqogKIS6ogiFYB4pJKqwK9AsQDrQLkQyq9olWAuBBbAfIArQLkQalVRAUQl1RBEK0CxCWVVgV6BYgHWgXIh1R6RasAcSG2AuQBWgXIg1KriAogLqmCIFoFiEsqrQr0ChAPtAqQD6n0ilYB4kJsBcgDtAqQB6VWERVAXFIFQbQKEJdUWhXoFSAeaBUgH1LpFa0CxIXYCpAHaBUgD0qtIiqAuKQKgmgVIC6ptCrQK0A80CpAPqTSK1oFiAuxFSAP0CpAHpRaRVQAcUkVBNEqQFxSaVWgV4B4oFWAfEilV7QKEBdiK0AeoFWAPCi1iqgA4pIqCKJVgLik0qpArwDxQKsA+ZBKr2gVIC7EVoA8QKsAeVBqFVEBxCVVEESrAHFJpVWBXgHigVYB8iGVXtEqQFyIrQB5gFYB8qDUKqICiEuqIIhWAeKSSqsCvQLEA60C5EMqvaJVgLgQWwHyAK0C5EGpVUQFEJdUQRCtAsQllVYFegWIB1oFyIdUekWrAHEhtgLkAVoFyINSq4gKIC6pgiBaBYhLKq0K9AoQD7QKkA+p9IpWAeJCbAXIA7QKkAelVhEVQFxSBUG0ChCXVFoV6BUgHmgVIB9S6RWtAsSF2AqQB2gVIA9KrSIqgLikCoJoFSAuqbQq0CtAPNAqQD6k0itaBYgLsRUgD9AqQB6UWkVUAHFJFQTRKkBcUmlVoFeAeKBVgHxIpVe0ChAXYitAHqBVgDwotYqoAOKSKgiiVYC4pNKqQK8A8UCrAPmQSq9oFSAuxFaAPECrAHlQanVKojp79myxf//+Ytu2bcV1112HYa1M/iK/OXXq1MqTxiVVECQAAsQllVYFegWIB1oFyIdUekWrAHEhtgLkAVoFyINSq1MR1dGjR4tdu3YVx44dK86dO1d8+9vfxrBWJn+R3+zdu7c4dOjQyqPGI1UQJAACxCWVVgV6BYgHWgXIh1R6RasAcSG2AuQBWgXIg1KrUxDVmTNnij179gQH0DGsix04cKA4fvz4yrPGIVUQJAACxCWVVgV6BYgHWgXIh1R6RasAcSG2AuQBWgXIg1KrUxDVvn37ihMnTgQHzTGsi50+fbrYsWPHyrPGIVUQJAACxCWVVgV6BYgHWgXIh1R6RasAcSG2AuQBWgXIg1KrUxDV1q1bi+effz44aI5hXU3faRmTVEGQAAgQl1RaFegVIB5oFSAfUukVrQLEhdgKkAdoFSAPSq1OQVQaFA8NlmNYHyPJAgBtSKVVgV4B4oFWAfIhlV7RKkBciK0AeYBWAfKg1OoUREWSBYtpJFkAoA2ptCrQK0A80CpAPqTSK1oFiAuxFSAP0CpAHpRanYKoSLJgMY0kCwC0IZVWBXoFiAdaBciHVHpFqwBxIbYC5AFaBciDUqtTENXUkiwvvPBCceVVv1f88I/+2Ib9/lvf1vu7MVrvp3/hVcXBQ38SnI/FNZIsANCGVFoV6BUgHmgVIB9S6RWtAsSF2AqQB2gVIA9KrU5BVFNNslhSxH7funPnJctO1d531/sXm9QhyQIAbUilVYFeAeKBVgHyIZVe0SpAXIitAHmAVgHyoNTqFEQ19SSL7IN331387tVXb1puynbDu95FkmUkUgVBAiBAXFJpVaBXgHigVYB8SKVXtAoQF2IrQB6gVYA8KLU6BVHl8CTLVW9848Zvvf7rl17zmuLZZ89e8lvLvv3GG8tXjL38FT9e3H3wI+X8n/+VXy0ef+KJjWU1/RWvfGW53M3bt29s++RTTxWvvfy3y+m//O9/vVwnVGZompWhBIumy37kJ36y3K9Quf6+6Ekdm3bHe99bTlPZu/bsKbbdcuvGtrSubWuKRpIFANqQSqsCvQLEA60C5EMqvaJVgLgQWwHyAK0C5EGp1SmIaqpJFktUyNxvslgiIpRkeeTRR4srrrqqnHbq9Onic5//fPm3m2TR91mUWNHfSn78zKt+sVxXv7Wu1lG5mve6K68sPvHQQ5eUGdqOv/9uUihU7tlz5zbtiy3rTtN2dPz2qrQcnughyQIAbUilVYFeAeKBVgHyIZVe0SpAXIitAHmAVgHyoNTqFEQ19SdZZEp0KDGhxIOsKsmiv7Xum669tjj25JMb890ki/3tz7OEhmt6EuX0008Hy/Snmfn7X1euuy8yf//cJJCV9Wu/cVm5nK0zNSPJAgBtSKVVgV4B4oFWAfIhlV7RKkBciK0AeYBWAfKg1OoURJVDksVNPujvqiSLLa+nS/Q6LyUk9MSIu66bxHB/K4FR95SIW6bWq5oWSrKEyvX3JTSNJEt3UgVBAiBAXFJpVaBXgHigVYB8SKVXtAoQF2IrQB6gVYA8KLU6BVHl8iSLfd/EEhGar2Xfd9f7N+Z9+vEninvvf6BcRwkKJV/cJ0b8JIb7W3/rVV32fRWVrVd8hcq8//DhS6a5SR59l+U9e/eWf1eV6++LLetOI8nSnVRBkAAIEJdUWhXoFSAeaBUgH1LpFa0CxIXYCpAHaBUgD0qtTkFUU02yuK/X0sfi3e+e6Nskmq4Pwd+2a9dGkkNPlugj+TZPiQ43ceEnMUJJDftAvX3QPlRmaJrtm0zJEPtwvcoOletvWxbaH5Is3UgVBAmAAHFJpVWBXgHigVYB8iGVXtEqQFyIrQB5gFYB8qDU6hRENbUkC5a3kWQBgDak0qpArwDxQKsA+ZBKr2gVIC7EVoA8QKsAeVBqdQqiIsmCxTSSLADQhlRaFegVIB5oFSAfUukVrQLEhdgKkAdoFSAPSq1OQVQkWbCYRpIFANqQSqsCvQLEA60C5EMqvaJVgLgQWwHyAK0C5EGp1SmIasuWLeV3UEID5hjW1UiyAEAbUmlVoFeAeKBVgHxIpdehtHr27Nli//79xbZt28prCgyLbfIt+dipU6dWXjcOxFaAPECrAHlQanUKotq9e3dx8uTJ4IA5hnWxc+fOlR3XMUkVBAmAAHFJpVWBXgHigVYB8iGVXofQ6tGjR4tdu3YVx44dK68pQtcaGLauybfkY3v37i0OHTq08r7hIbYC5AFaBciDUqtTENUTTzxRHDx4MNgJwbAu9vDDDxf33XffyrPGIVUQJAACxCWVVgV6BYgHWgXIh1R6Ta3VM2fOFHv27AleX2BYKjtw4EBx/PjxlRcOC7EVIA/QKkAelFqdiqj27dtX3HPPPcXzzz8f7IBgWJ3Jb5Rg0VNRFy5cWHnVOKQKggRAgLik0qpArwDxQKsA+ZBKr6m1qmvREydOBK8zMCyVnT59utixY8fKC4eF2AqQB2gVIA9KrU5JVEeOHCm2bt0afHcphtWZ/EZPsJw/f37lTeORKggSAAHikkqrAr0CxAOtAuRDKr2m1qquJbjZDxvDdC07BsRWgDxAqwB5UGoVUQHEJVUQRKsAcUmlVYFeAeKBVgHyIZVeU2tVA92hAXAMS20kWQCgDrQKkAelVhEVQFxSBUG0ChCXVFoV6BUgHmgVIB9S6TW1VkmyYGMZSRYAqAOtAuRBqVVEBRCXVEEQrQLEJZVWBXoFiAdaBciHVHpNrVWSLNhYRpIFAOpAqwB5UGoVUQHEJVUQRKsAcUmlVYFeAeKBVgHyIZVeU2t13STLCy+8UFx51e8VP/yjP1bay1/x48V79u4NLrsU0zdufvoXXlUcPPQnwflDW5v9GWOfSbIAQB1oFSAPSq1OSVRnz54t9u/fX2zbtq3sbGBYG5O/yG9OnTq18qRxSRUECYAAcUmlVYFeAeKBVgHyIZVeU2tV1xShAfC2ZkkWG5w/dfp08drLf7u4defOS5YN2fvuev9kkhFzsnXrdYh2ke+NAbEVIA/QKkAelFqdiqiOHj1a7Nq1qzh27Fhx7ty5YAcEw0Imf5Hf7N27tzh06NDKo8YjVRAkAALEJZVWBXoFiAdaBciHVHpNrdXYSRbZyaeeKn7mVb9YPPvs2U3LhuyGd72LJEsCW7deh2gXkiwAUAdaBciDUqtTENWZM2eKPXv2BDsdGNbFDhw4UBw/fnzlWeOQKggSAAHikkqrAr0CxAOtAuRDKr2m1mqKJIs/7RMPPVS8+rLLyteJ/fK///WN5IsG8u01Yz/yEz9ZTq9a1kyvtfql17ymuOO97y1e8cpXlsv9/lvftmne3Qc/Us6zp2mU9NHTNVbm4088sVGeP+9zn/985To6rrffeGM5Ta9F03ZC07QfP/8rv1qu4++Tlrt5+/aN7et4bbqZn9yoq5PQ/vv1evrppzf2R/Pcp4weefTR4nevvnrTPvvrv+GaNwfXsd99jSQLANSBVgHyoNTqFES1b9++4sSJE8FOB4Z1sdOnTxc7duxYedY4pAqCBECAuKTSqkCvAPFAqwD5kEqvqbU6RJLl8IMPFk+dOlX+/cG7794YoA+tW7WsmZIB+naIEhX6W68ns2+J+PPc5ZXk0O+Hjxwpfupnf24jAeLOU1maJrviqqs2JVxed+WVZbJD0zVfy2q+Eg7+NP3tJlncfVJZ9pSP/a11VBdVT49U1YmV7e+/X6/u/mh/f+03LiunaZ5t013GX9+O319Hf69jJFkAoA60CpAHpVanIKqtW7dudFYwbF0bq6NqpAqCBECAuKTSqkCvAPFAqwD5kEqvqbU6RJJFg/962sOexqhLslQta+YmA2yaEg960iI0z08qyOxpjtA8W8ee5DCzJ0K0v2+69tri2JNPlstq3dA0N8ni7pP7O5RkcZ8YMauqk6r99+vV3abmXfXGN27sm56yUcLHX8Zdv2odd5t9jCQLANSBVgHyoNTqFES1bqcWw1wjyQIAbUilVYFeAeKBVgHyIZVeU2s1RZLFfVrDBu/1tIWexlBioCrJUresmZsMsGlNSRa/jDZJFn8d1yzp4a7rTjt77tzGfvj75P/WvlgiR4kaf19s+VCdVO1/Vb3aNq2+3LLcZUJtGlpnXSPJAgB1oFWAPCi1OgVRkWTBYhpJFgBoQyqtCvQKEA+0CpAPqfSaWquxkyxKNugbIfZEhhIur7388jLhomW33XLrpkF6JRnes3dvq2VlSgboFVnuOpYc8JMJtrym3Xv/A+XvpteF2eu+3OnaF03/9ONPbJSj7eqJjvsPH75kmvsNFH+f3N/6W68aq3sqpK5OqvZff7v16u+DytTrv5QUCu2Xv77Nf/3Vbyh23nHHpuTLOkaSBQDqQKsAeVBqdQqiiplksQ6u3Qkj00cA1SEKLd9k1mmL1Ynqan5Hbyir2+7YddJkJFkAoA2ptCrQK0A80CpAPqTSa2qtxkqy2PWnPv7uDs5rvgbzbZ6SL/ahepmejNCH3zXv6GOP1S4rs2s1vb7K317VddzFREW7D9/bPHe6tqFEhpIY/nZD09z98PfJn+dfv/sftm+qv6r9d+v1k488smkfrM3cp2D8/XTXt2lKvOi1aXVJoS5GkgUA6kCrAHlQanUKokqRZLEEgP22u4hyM7+jV2fvu+v90RIfXbbb1WLuZ8hIsgBAG1JpVaBXgHigVYB8SKXX1FqNeT06hKW8VhvadCy79uzZ+K3r97dc/47J3tAX81VhMpIsAFAHWgXIg1KrUxBVyiSLTO9OjdkRGtK6dKB1V00OSZaY+xkykiwA0IZUWhXoFSAeaBUgH1LpNbVWSbKMZ0pa+N91meqxaazBPn4fmt/HSLIAQB1oFSAPSq1OQVQpkyzWEbLf6rzpHbH2eK/7W8u6jyHrcWi3A2vLaroeG9ZyN2/fvrHt0GPKoTJD06wMv5yrr7mm+K3f+d2NjtwnHnqoePVll21sw45DiQtNk9njy1XLulb1aLUd91uuv37jWO2RbLdO6srwp+vduKH91LIxjSQLALQhlVYFegWIB1oFyIdUek2tVZIs45l7bWzXjfZ9lymZbtzUtbv7GrgYRpIFAOpAqwB5UGp1CqJKkWSxTprM/SaLJUpscN/9rbto9NE9TXM/+OcmWfQtEiVW9LeSCD/zql8s19VvrWsf2dM8fUhPiQ6/zNB2bP9tG5Z4UTn2UUL9Pvzgg8VTp06Vf7tP6Nhxu0+IVC1r5m8r9AFEO1btp32HRb/dOgkd99lz5zaVrfW1bGg/YxtJFgBoQyqtCvQKEA+0CpAPqfSaWqtbtmwpr1NC1xYYltJIsgBAHWgVIA9KrU5BVCmSLO4gvhIdGvjXIL+sKsmiv7Xum669tjj25JMb892EgnvHkPtbiRM3sSPTkxqnn346WKY/zcx/XNrfppIVutPHnlCpS7JULWvmb0umJ030/Rp/uzIlavx5Vcf9sfvuu6RsGUmW/hAAAeKSSqsCvQLEA60C5EMqvabW6u7du4uTJ08Gry0wLJWdO3eu2LZt28oLh4XYCpAHaBUgD0qtTkFUqZMsblJAf1clWWx5S04oSaAnMtx13cSD+1vJhrrvvrhlar2qaXVJFvtbT4foCRV3m/5x1y1rFprWJ8kSOm7/OMxIsvSHAAgQl1RaFegVIB5oFSAfUuk1tVafeOm65uDBg8FrCwxLZQ8//HBx3333rbxwWIitAHmAVgHyoNTqFEQ1xJMs9v0PSxBovpZ9313v35j36cef2Hj/q157peSLnkSxhIKfeHB/62/39VgqW6/QCpV5/+HDl0yzJI//ejDtu/3WvNdefnm5rMrfdsutmxIcSpDYO2KblpXZ/tu+hF4X5pYXqoeq4/anK6FkrxRz9zOFkWQBgDak0qpArwDxQKsA+ZBKr0Nodd++fcU999xTXseErjEwLJbJx5Rg0RNUFy5cWHngsBBbAfIArQLkQanVKYgqRZLFfX2VfXTdltETGZquD9fdtmvXRpJDiQB9JN/mKRHgJxTsb5Xj/76Y2Lj4oXf7oH2ozNA02zeZEiv2sXm9Usw+fK9j05Mvtp6eKrGP0cv09IjW07yjjz1Wu6yZu8+hD9+/+a1vvWQ/2xx3Xdnuftq0mEaSBQDakEqrAr0CxAOtAuRDKr0OpdUjR44UW7duLa8nMCyVycf0BMv58+dXnjc8xFaAPECrAHlQanUKolJHIzRYjk3T/CTL1Ez+NCapgiABECAuqbQq0CtAPNAqQD6k0itaBYgLsRUgD9AqQB6UWp2CqEiy5GUkWepJFQQJgABxSaVVgV4B4oFWAfIhlV7RKkBciK0AeYBWAfKg1OoUREWSJR/Tq8z0+q/Qq8emYiRZAKANqbQq0CtAPNAqQD6k0itaBYgLsRUgD9AqQB6UWp2CqEiyYDGNJAsAtCGVVgV6BYgHWgXIh1R6HUqrZ8+eLfbv319s27atvKbAsNgm35KPnTp1auV140BsBcgDtAqQB6VWpyCqLVu2lB91Dw2YY1hXU+d1TFIFQQIgQFxSaVWgV4B4oFWAfEil1yG0evTo0WLXrl3FsWPHinPnzgWvMzBsXZNvycf27t1bHDp0aOV9w0NsTQOJ2rQ2lSTlkKBVgDwotToFUe3evbs4efJksBOCYV1MnVYF3jFJFQQJgABxSaVVgV4B4oFWAfIhlV5Ta/XMmTPFnj17gtcXGJbKDhw4UBw/fnzlhcNCbI0Pidr0NpUk5ZCgVYA8KLU6BVE98cQTxcGDB4MnUQzrYg8//HBx3333rTxrHFIFQQLgZrhLKK0t4S6hVFoV6BUgHmgVIB9S6TW1Vvft21ecOHEieH2BYans9OnTxY4dO1ZeOCzE1riQqB3exkxSDglaBciDUqtTEZU6tvfcc0/x/PPPB0+gGFZn8hslWPRU1IULF1ZeNQ6pgiAB8B/gLqH0toS7hFJpVaBXgHigVYB8SKXX1FrdunUr16HYKKabm8aA2BoXErXD25hJyiFBqwB5UGp1SqI6cuRI2cH176jGsCaT3+gJlvPnz6+8aTxSBUEC4EW4S2h4m+tdQqm0KtArQDzQKkA+pNJraq3qeiLUB8Kw1CbfGwNia1xI1I5jY+lnSNAqQB6UWkVUAHFJFQTR6kW4S2h4m+tdQqm0KtArQDzQKkA+pNJraq2SZMHGMpIs84BzyDhGkmU9lqhVgFSUWkVUAHFJFQTR6kW4S2gcm2MHNpVWBXoFiAdaBciHVHpNrVUGSLGxjCTLPOAcMo6RZFmPJWoVIBWlVhEVQFxSBUG0ehE6sOPYHDuwqbQq0CtAPNAqQD6k0mtqrfbtX77wwgvFlVf9XvHDP/pjpb38FT9evGfv3uCyY5huTPrpX3hVcfDQnwTnY+PbWH1sYmtcuEYdx+Z4jeqDVgHyoNTqlER19uzZYv/+/cW2bdvKkyWGtTH5i/zm1KlTK08al1RBkAB4EbV5qIOFpTXV+9xIpVWBXgHigVYB8iGVXlNrtW//0pIslsQ4dfp08drLf7u4defOS5YN2fvuej8JkIwtRvuN1ccmtsYl5jXqJx56qHjFK19ZJm5/+d//evH4E08El0ttOSRp53iN6oNWAfKg1OpURHX06NFi165dxbFjx4pz584FT6AYFjL5i/xm7969xaFDh1YeNR6pgiAB8CIxO7BYe5tjBzaVVgV6BYgHWgXIh1R6Ta3Vvv1LP8kiO/nUU8XPvOoXi2efPbtp2ZDd8K53kWTJ2GK031h9bGJrXGJdo37w7rvLxMrnPv/58rfOJ1N5Os5PKk4hSTzHa1QftAqQB6VWpyCqM2fOFHv27AmeNDGsix04cKA4fvz4yrPGIVUQJABeJFYHtsn81z/YnUTW4V2azbEDm0qrAr0CxAOtAuRDKr2m1mrf/mUoyeJP013pr77sso2+pCVfNEBvfcwf+YmfLKdXLWumO8t/6TWvKe5473s37nT//be+bdO8uw9+pJynp2k07ed/5VfLO+G1PfcJm0cefbT43auvLv+u264GefV0js1TX7iuLLOqMlU/b7/xxnK6Xq+m/Q1N07L+tnUcbdf360rTd+3ZU2y75daN5dwnBELb8utU827evr1cPtR+VlYXG6uPTWyNS4xrVFevofljm59U9H+PYXO8RvVBqwB5UGp1CqLat29fceLEieBJE8O62OnTp4sdO3asPGscUgVBAuBFYnRg25h/gSzTnUW/9huXlR1gd9kl2Bw7sKm0KtArQDzQKkA+pNJraq327V+G+ov+tMMPPlg8depU+bf6kpaMCK1btayZ+qB6fY8G+vW3Xk9mr/Px59nyNmirRIjbj3UHSKu2a2Va0kPb0zQlJF535ZXBssyqytR+XHHVVeW6Kk9Jm9A0/a1p7h392qaSN23Xd+tDyyghYskh/zhD2zp77tymMjTdnlIKtV8fG6uPTWyNS4xrVF+jvoUSgZqu5dsmFLsu6yZpNV+mpOIbrnnzpt/SRNX+VU2PYXO8RvVBqwB5UGp1CqLaunVrZSDBsK42dqBNFQQJgBeJ0YFtY6ELJ/fCyl12CTbHDmwqrQr0ChAPtAqQD6n0mlqrffuXbZIsGvTXUxb2VEddkqVqWTN30NOmKVngP7USWl7bu+qNbyz/1nQNtFqftmq7VYO+dWWZVZWp5XXcb7r22uLYk09WTrOkiGsazD399NOt1tc0tz78frx7bHXbcstwywy1Xx8bq49NbI1LjGvUuiSLprkJz4ePHCl+6md/bkODXRKKXZat8nf/t5atSlSGpmt5/V7X5niN6oNWAfKg1OoURBUjIGGY2diBNlUQJABeZKjzRagjqffOqtOpTqH76gDrlNbdpePPczua/jralv/Kg9A0K3sIm2MHNpVWRU56PXv2bLF///5i27ZtZTtj0zC1h9rl1KlTq5ZaLmgVIB9S6TW1VnXeDfV/mszvL8rUt7PBfBukVL9NT3VoQNMGMP1165Y1s2XcPmbbJIu7rFt23Xb1d9Wgb6gss7oyzSwJ45bvTtMTK/46rjWtr8Fd99jddtFv99hC+yez47Ay3N+htu9j8r0xILbGpe85xLU6vYXm6emSkPbrfL3vsr6/+7+1nq5TXVOi8mP33Recbttb18bSz5CgVYA8KLU6BVHFCEgYZjZ2oE0VBAmAFxnqfGEdR7dDqLvjrMPp3gGk5W2aJT9CdxfZPF0AWjmhO3vavgZB6wxlc+zAptKqyEWvR48eLXbt2lUcO3asOHfuXLDtsXFM7aF22bt3b3Ho0KFViy0TtAqQD6n0mlqrffuX/kCj+mi6eWbzDTiXlwOKWlav5HEH8zVIah+1blpWZn1Kdx0bBNU8d/DUlvcHVNXXVCLCnVa1Xdue24e1Pqjmvf7qNxQ777jjkkRDXZmffvyJ4t77H9hYTjcu3X/48CXT9BSJu22Vo213Wb/LYHJoW379+b/d9utrY/Wxia1xiXGN6vuXa/JX/3wwtSSLv39102PZHK9RfdAqQB6UWp2CqGIEJAwzGzvQpgqCBMCLDHW+8DuOrvmdU5nbIbVp1vENzbN13CSOrMtrEIa0OXZgU2lV5KDXM2fOFHv27Am2NzYtO3DgQHH8+PFVyy2PpWsVICdS6TW1Vvv2L62/aP04PW3sDrprvhIaNk/9QvtQvUx9QfsuwtHHHqtdVmZ9UL2qy99eqH/qT7P9dfulTfuoQdiqJ7XV1w3dlV5XphI1/v6HpmlZd9uariRI2/X9Y68bTK7all+G/9ttP7deuthYfWxia1xiXaPqCTH3rQfy7bffcOPGk1mWTPRv6Gvr6+ss6ycV3d9atipRGZpuZaxrc7xG9UGrAHlQanUKoorVqZWp86YTeWj5JrMAEBpUHcL8IDaEjbHN1DZ2oE0VBAmAF4nVgW0yO790SbJU3V3kX8SZhdZxrexUv3SB6q4bmjaEzbEDm0qrIge97tu3rzhx4kSwvbFp2emXdL9jx45Vyy2PpWsVICdS6TW1VofqX65rU7t2a+rLYs02Vh+b2BqXmOcQJSSUvNP4lpvYdBOB7nT/vJAqyaJ5blLR/+3unyUqbRuh6TFsjteoPmgVIA9KrU5BVH0Dkj8Iar81qOkvm4P5QazO9G2IGMmgLttMabGORzZ2oE0VBAmAF4nZga2zrkkWm1Z1d5F7B48SJXV39rR9DYJ1hoewOXZgU2lV5KDXrVu3lj4Yam9seraEi8gqlq5VgJxIpdfUWh2qf7muhfqgY5n6rXp6ZAr7krONFd+JrXHJ5RwyN1tC/xitAuRBqdUpiKpvQAoNgurxylzvpunSadYd8nNKssQ6HtnYgTZVECQAXmSoDmzXJIvMvUvHf51C1bzQnT2hVx6EplnZQ9gcO7CptCpy0OtQWsLi2Bw12JalaxUgJ1LpNbVWc4mJU7l20zX3GP3ROdpY8Z3YGhf61ePYEvrHaBUgD0qtTkFUfQOSPwhqd9PYb3VC3bu93d9a1n1PrAY23U6rLavp9qimPnJt2w4NmIbKDE2zMvxyrr7mmuK3fud3NzrN+vj1qy+7bGMbdhxKSGiazN6BW7Wsa6F99jvqVcuoLu5473s3HgfdtWdP+QFDLafftn5TGaH6DB2PldXHxg60qYIgAfAidGDHsTl2YFNpVeSgV7SUl81Rg21ZulbrOHv2bLF///5i27ZtpY9g0zC1h9rl1KlTq5ZaDqn0mlqrW7ZsKa/bQudfDEtpOmeMAbE1LmrHUPtiaW0s/QwJWgXIg1KrUxBV34CkjrCSLDZAL3O/yWID+zZo7/7W+yOvuOqqcpr76h43yaLX+CgRoL+VOLB3Veq31rUPdmne6668skx0+GWGtmP7b9uwxIvKsdcL6ffhBx8snnrp4kx/u0/o2HG7d9hXLWtWtc/2ATU75qpl3LrQMamu7bVs7vbalqHpVp+h41nHxg60qYIgAfAidGDHsTl2YFNpVeSgV7SUl81Rg21ZularOHr0aLFr167i2LFjxbmX+lkhv8HGMbWH2mXv3r3FoUOHVi22DFLpNbVWd+/eXZw8eTLYnhiWynSuUFJ2DIitcSFRO44toX+MVgHyoNTqFETVd6AnNDivRIcG9TWQL6tKsuhvrfuma68tjj355MZ8N+HgPuHh/rYkg2t6AuP0008Hy/Snmakc9+PV/jaVlNFTMPaESl2SpWpZs7p9bnNc7n65CRIr246jbRnusZJkaQcB8CIMDI9jc+zAptKqyEGvU9OS4rc96WhPQYaWG8L8eDwFm6MG27J0rYY4c+ZMsWfPnqCvYNOyAwcOFMePH1+13PxJpdfUWn3ipfP9wYMHg22IYans4YcfLu67776VFw4LsTUuJGqHtzGTlEOCVgHyoNTqFETVd6AnNDjvDozo76okiy1vyQklCfynOqqSAkok+EkM19wytV7VNDc5od/uNuxvPeWiJ1TcbfrHXbesWdU+u9tss4x+NyVZ2pTh/ibJ0g4C4EW4S2gcI8nSjRz0OqUki56IVGLFfQpy3fe8v++u9/eOK37MmoKRZElDrrF13759xYkTJ4K+gk3LTr90DbBjx45Vy82fVHodQqvS1T333FPGgFBbYlgsk48pwaKB+QsXLqw8cFiIrXEhUTu8jZmkHBK0CpAHpVanIKqYSRbdCWvf9bBBEs3XshpwsXmffvyJ4t77HyjX0WCOki/u0xb+AIv7W3+7r/lS2RoYCpV5/+HDl0yz5IR+u68H077bb8177eWXl8uqfH3/xE1e6DsmNgDVtKysap/bHJe7jKZre1VJlrZl+L/d41nXSLLMG+4SGt7mepdQKq2KHPQ6lSSLHw9imeIKSZZ5sHSthti6dWvppyFfwaZnS9JvKr0OpdUjR46U+lKbYVgqk49pcPj8+fMrzxseYmt8SNQOY6rfsZOUQ4JWAfKg1OoURKWORujk2WQawFeSxX01lXsnrEx3x2q6Ps5+265dG0kOPVmij+TbPA3wu4Mq/gCL//tiYuPix93tg/ahMkPTbN9k7utR9Eox+/C9jk1Pvth6+v6Jvjdj6ymxYR+hP/rYY7XLmoX2WdvRQJQlSULLhI69KslStZ2m+nSPx6b1NfnTmKQKggTAi3CX0PA217uEUmlV5KDXvrE3tvkxxDc3privEdPyiumKMRZH9d0vzVNc02+ZvbLSXda+KVZXthujpmBjx7YxWbpWQ0xFv1g7W5J+U+k1V60CTBViaxpI1Ka3KSQphwStAuRBqdUpiEonytAFCYb1MfnTmKQKggTAf4C7hIYx1e+c7xJKpVWRg16nEnvrkiya5j4d+fBLF672xKfNU2JFf7s3ANhNGPYki79sm7JJskyHpWs1BH3nvGxJ+k2l11y1CjBViK0AeYBWAfKg1OoURMWFIhbTxr6QTRUECYCb4S6h9Db3u4RSaVXkoFe1cegcOrTVJVlC8/SUip5E8RMh7u9QksVPmnQpewqm9loqS9dqiCH0q8Slnvzq+9o911xN6W8lOGOUK4tdXgpbkn5T6TVXrQJMFWIrQB6gVYA8KLU6BVFNZaAHm4eNfSGbKggSAAHikkqrIge9TiX21iU0lAjxvzEWM8nStuwp2JIGaX2WrtUQQ+hXr9x9y/XXB19B29Via0rfWZxyUsW3Jek3lV6H0urZs2eL/fv3l9+iU7thWGyTb8nHTp06tfK6cSC2AuQBWgXIg1KrUxDVli1bygGR0EUJhnU1dV7HJFUQJAACxCWVVkUOetW5MnQOHcM0mOt+U03fM3v7DTcWZ8+dKwdm773/gXJ63Su9/N9KmNh30EIDvDatTdlTsLFj25gsXashUutX/fKrr7lm43tG9h2+vhZbU9I3SZZpkkqvQ2j16NGjxa5du4pjx44V516KP6G2xLB1Tb4lH9v7Uh/l0KFDK+8bHmJrGkjUprWpJCmHBK2mA712tyVqsC2lVqcgKr3v/+TJk8FOCIZ1MXVaJfoxSRUElx4AAWKTSqsiB72qkxQ6j45l7gfs3Y/Qt/04vf9bT6qovJe/4seLTz7ySHCAt6psDTBrELfug/xDm9prqSxdqyFS61fasCdY3ISG9KCkyx3vfe+GXm25pnmmQV+rvg4t2fqJhx4qXn3ZZRvTLdGj/dE02Y/8xE+WiaC68my67Z97rtF3mjQvtS1Jv6n0mlqrZ86cKfbs2RNsPwxLZQcOHCiOHz++8sJhIbbGh0RteptKknJI0Goa0Gs/W6IG21JqdQqieuKli5+DBw8GGxDDupg+0q1vSIxJqiC45AAYgrsO0toS7lBIpVWRg17VzqHzKDZNU3stlaVrNURq/erpMkusuK/WU6JC3z9RckJ/66kz+x5K07xQksXWUeJD5WsdTdPfhx98sHjqpRhk+2P7UPc6QL88/wk1d/+UjPmZV/3i2k/ptLEl6TeVXlNrdd++fcWJEyeC7Ydhqez0S+e8HTt2rLxwWIitcSFRO7yNmaQcErQaH/Qax5aiwbaUWp2KqNSxveeeezYurDCsi8lvlGDRU1EXLlxYedU4pAqCSw2AIbjrIL0t4Q6FVFoVOeiVJEteRpIlDbnG1pT6tSSGPS0is6e6ZO5TIzIlQKq+ZRSa5/6tBE7VE2PlawNvvHHjaZY2SZZQeXrypek7TrZsKiPJsj6ptbp169agH2JYahvr/EBsjQuJ2uFtzCTlkKDV+KDXOLYUDbal1OqURHXkyJGyg6uOBoZ1MfmNnmA5f/78ypvGI1UQXGoA9OGug+FtrncopNKqyEGvOneG2hubpqm9lsrStRoipX71hMfrrrxyY8BZSY2r3vjGSxIktnyKJIstoydS9DSL+zRNU5LFljMjyTIsqfSaWqvERGwsG+v8QGyNC4nacWwJ8RWtxge9xrMl9XGbKLW6VFEBpCJVEESrF+Gug+FtrncopNKqyEGvW7ZsKQcrQ22OTc+W3IFdulZDpBwQtsRIaJouSPXKrffs3VtOV0LGEhVN86r+9l8Xpm+yXPyuyuXlq7x0ntp2y62bkidKnNh2QmXfe/8D5Tz/dWG2nL+elZvKlqTfVHpNrdWUmsKwOhvr/EBsjQvnkHFsCfEVrcYHvcazJWiwLaVWlyoqgFSkCoJo9SLcdTCOzTF4ptKqyEGver3iyZMng+2NTcv0+j59J2mpLF2rIVJdHPpPiZjZEydnX/JFJSb0ZIte4fXyV/z4JcmO0DyVq8SIW4YlNy4mVDZ/qF7L61VhVo4SPPYRfdsffbxe8z75yCON5Wk6SZZhSKXX1FplwAUby8Y6PxBb48I5ZBxbQnxFq/FBr/FsCRpsS6nVpYoKIBWpgiBavQgBcRybY/BMpVWRg16feOKJ4uDBg8H2xqZl+uaYXom5VJau1RBjxcK6xMSQSYvcbEkXoKn0mlqrTZqyBKSSd2ZK/MnvQ8s3mdbTU1x+QnMoG1KvbbbVZ3/mUodjnR+IrXEZIy5/4qGHyhsO/JsKxrAhzymuLSG+otX4pNDrunocS0Pr2hI02JZSq1MS1dmzZ4v9+/eXd2uqoTCsjclf5DenTp1aedK4pAqCSw2APmrz0MkdS2uq97mRSqsiF73q9Xv33HNP2akLtTs2rqldlGDRU0cXLlxYtdryQKuXMlYsrLsAzPXicAibYwytIpVeU2u1SVP+U17223+1Xi7WRa/vu+v9ayUy2myr7f6suy8xLdY5b6zzA7E1LkPHZb3GUwO5esWmfuspTnt6tK+to6+x+gBLiK9oNT6x9RpDj6k1lCp+LkGDbSm1OhVRHT16tNi1a1dx7Nix8rUYocbDsJDJX+Q3e186iR06dGjlUeORKgguNQD6DN2BxS7aHINnKq2KnPR65MiR8jV8amNsWqZ20RMs58+fX7XWMkGrlyL/CJ2rU1vdBeBYAyw5mNprKaTSa2qtNmnKT7LINKjifisoJ+uiV73qbypJlnX3JabFOueNdX4gtsZlyLicKt6uo69U+9RkS4ivaDU+MfUay/dTayhV/FyCBttSanUKojpz5kyxZ8+eYINhWBc7cOBAcfz48ZVnjUOqILjUAOgzZAfWTHci6NHPPkFJwbLpVQZtlhnb5hg8U2lVoFeAeKDVSxkjFmL9bUkXoKn0mlqrTZoKPcmi7w/Zb/Xlfuk1rymeffbsJb+1rPuNobsPfmTTYIotq+n2qpGbt2/f2Hab7xZp3dA0K8Mv5+prril+63d+d2MwR685efVll21sw45DgzKaJvuRn/jJcnrVsq7VbSt0PG59VC3j78vpp59uXEfTm+rXzF9OTynZtFC7ttlnt/wqG+v8QGyNy5Bx2b6TJh8Mze+jhZC+fD00lZ1ygLjKlhBf0Wp8Yuq1rx79eW1ipa0nq4r5ofVCsdwtax1bggbbUmp1CqLS60pOnDgRbDAM62KnT58uduzYsfKscUgVBJcaAH2G7MCa6U7Ft1x//aaP7tbZuo9iTulVCGZzDJ6ptCrQK0A80OqlbNmypby4Cp2vsenZki5AU+k1tVab+pfSW903WWzwMjQYrwGYK666qpx26qVrFb1ORH+7SRbdbKPBTv2tAZKfedUvbgzka133FSSvu/LKMtHhlxnaju2/bcMdhPmpn/25jUGbww8+WDx16lT5t/uEjh232y+tWtasbltVx3P23LlN9RFa5rmvfnXTvmg5vw5tmw8fObJpm1X1q2XN/OVsWlW76u+mfbZy6mys8wOxNS5DXqPWDepqWh8t+Fr3l21TNkmWNKDV+MTU67p67BIr3W1U9S3axM+YtgQNtqXU6hREpddhuM6CYevY2CJPFQSXGgB9huzAytTh1F0FdjePOqGh5Vxb91HMdddPYXMMnqm0KtArQDzQ6qXoOz0nT54Mnq+xaZlea6vvBy6FVHpNrdWm/mUo2aBEhw16yOoG47Xum669tjj25JMb890Bendw0v2tQRQ3sSOzu8xDZfrTzPxBIH+bGqDRHbH2hEpdkqVqWbO6bdUdT9MyXzpzZtO++OX6g1zqT9vTKO6x+r/NQtM1rU2SpWqf21w3jNXHJrbGZchr1JC/181ro4VQksXXQ5eyh7I5XqP6oNX4xNRrXz3681wNaV5TTNHyfsyvWs+PnzFtCRpsS6nVKYhqyICEzd/GFnmqILjUAOgz9PlC2X97gsVPfmie+yim7hjQMm5Acy8aLaDa+gqCujB1A6q//huueXNwHfs9lM0xeKbSqkCvAPFAq5fyxEvx4uDBg8HzNTYte/jhh8tvKy2FVHpNrdWm/mUo2eD23/R31WC8LW/JCQ2q+E9u2N9+uU39PrdMrVc1TeVUDebY37qbVk+ouNusGngNLWtWt62q42mzTN0gcGgd63e7y/nrucuHpmta2yRLaJ/b2Fh9bGJrXIa8Rq3yYVlfLbRNsrQteyib4zWqD1qNT0y99tWj5nWNlSFzY75u/gitF+rDxLIlaLAtpVanIKohAxI2fxtb5KmC4FIDoM/Q5wu9BsGCkRvsFATdxzsV3DSt6QLQDaQKsFrOXcZf33801NbR30PaHINnKq0K9AoQD7QaRq/bveeeezbiAzYtU7sowaKnji5cuLBqtfmTSq+ptdrUvwwNUGgww+4stb6c5mtZvfrV5n368SeKe+9/oFxH/ToN0rs34bj9QC3j/tbfbn9TZeumnlCZ9x8+fMk0Sw7ot72GRL+17/Zb8157+eXlsip/2y23bhqkUd/zPXv3bpRTt6wtU7WtquNpc8z6290Xfx39bcdf9xoj/7dZaLpNC7Wru7z+rtrnJhurj01sjcsY16h2k59+lwOtN9y4kcDto4Uqfem3O61N2UPZHK9RfdBqfGLrtY8e+8RK/W1W1bdoEz9j2hI02JZSq1MQ1dABCZu3jS3yVEFwqQHQZ8jzhYKSLqjtyRKZJUn8hIm/jl2Eux1OzdNHUi1whu6E89evWsfd5hA2x+CZSqsCvQLEA61Wc+SlizW9dlfnaGxapnbREyznz59ftdYySKXX1FpVm4X6P2ahPqE7oCLTIIum6wO0t+3atdFn02CL+nI2T4Mcbt/P/Vvl+L8vJjYuPjltH7cNlRmaZvsm0wCOfexarxexD+zq2HQXrK2nO2zd7xCqz6v1NO/oY4/VLmtWtS3NCx2P9kEDQNa3Di2jdd19+eQjj1TWk33sV9Ob6tesanpVu7bd5yaT740BsTUuTeeQFCYfM525Pt9XC3X6Mqsq29eDu05KG0s/Q4JW45NCr131KOsaK209WVXMr1rP1bev63VsCRpsS6nVKYiqysFDnVn3A4NdTespq+fegTSk+UFs6ubu75B1t249jS3yVEFwqQHQJ0VArDIFKPcpEp2TLOHRJ8mi37pQs8dD3adibBl//ap1hrY5Bs9UWhW56fU73/lO8dBLnbw777yTAduRTR80VzscPny4OHv27KqFlg1aBciHVHpNrVWdf0P9HwxLbfK9MSC2xoVzyDg2ln6GBK3GB73GsyVosC2lVqcgqioH9wcb7bcGG/1lc7AuyQM9ijxWMsisbn9T7l+XegrZ2CJPFQSXGgB9hgyIltwITZOfuo9i6k6C0KOYvj9b4kZ3Ado0fxn/UU7Nf/3Vbyh23nHHaOeFOQbPVFoVOen1+PHjxS233FI88MADxRe+8IXS30I+gA1j6uuoHT7+8Y8Xu3btKp9UWDpoFSAfUuk1tVaH7F9imGtj9bGJrXHhHDKOzfEa1Qetxge9xrMlaLAtpVanIKoqB6+6o3usO7nXNX8gtc40yDrlJEvK/etSTyEbW+SpguBSA6DPUAExdP6RuU+wVD366T6K6T9qbeW6T8H4Pu+ub9OkOXsHtH4PbXMMnqm0KnLRqxIsd91114YvYtOzD3/4w+VTLUsGrQLkQyq9ptbqUP1LDPNtrD42sTUunEPGsTleo/qg1fig13i2BA22pdTqFERV5eD+IKd+61U99luDQu73CdzfWtZ9X6zuNncHMm1Z9715N2/fvrHt0OBpqMzQNCvDL+fqa67Z9I49vX/v1ZddtrENOw4NpmqazAZVq5Z1zd9n21ZdPel3Vdl+fdnf/v694Zo3b7rb33+lkV/X9hRA1T6529K8qoHsKhtb5KmC4FIDoM9SA+KYrwqTzTF4ptKqyEGvL774YrFjx47ynBtqc2w6pidalvzqsKVrFSAnUuk1tVb1qkZd14XOwRiW0sbqYxNb47LUa9SxbY7XqD5oNT7oNZ4tQYNtKbU6BVFVObg6ukqy2IC+zP0mS91AvQYkr7jqqnKavcZHf7tJA73qR4kV/a2B/J951S9uDPJrXXv1j+bp9T5KRvhlhrZj+2/bsMSLyvmpn/25jSTB4QcfLJ46dar8231Cx47bvYO+alkzf1sPHzmysS3Nq6on/a4qW8uFkiz+/ln9aBn99p9y0XS3rm1a1T7pb3e7obawckI2tshTBcGlBkCfJQZEac6+BROaP4TNMXim0qrIQa/6IPPDDz8cbG9sWnbs2LFi//79q5ZbHkvXah1Kvsk3tm3bVp6nsWmY2kPtcuql/vXSSKXX1FrdvXt3cfLkyeA5GMNS2blz58rzxRgQW+NConYcU8ydO2g1Pug1ni1Bg20ptToFUalRQo0VSjYo0WGD7O7AvOa5v/W31n3TtdcWx558cmN+KGngz1PixE3syPTExumnnw6W6U8zUzl1rwRSUkZPwdhTJHVJlqplzeq2pb+r6km/q8r2y7C//f3TbxsA9sv2y3Gn1bWdLV/VFm75vo0t8lRBcKkB0KfqfDFXU+JTT8m532gZw+YYPFNpVeSg1xgDSorJ9jRomycNm+zTjz9RlmcxVwl6NxaaheLKOqbyqrblmrvdtuvEsOeee6646aabVi23PJau1SqOHj1aPuWkJJwG6kK+g41jag+1y96XYvehQ4dWLbYMUuk1tVafeOm8fvDgwWB7Ylgq080uuullDIitcSFRO7yNmaQcErQaH/Qax5aiwbaUWp2CqLokWfwBjrrkgcwSCEpAnH3JAdx13QEa97cG9v0khmtumVqvalpT4kN/68kTPUXibtM/7rplzZq21ZTQCJXtl2F/h9pFA8F6DVho39x13WlN+6TlQ+U1GUmWecNdB+MYSZZu5KDXdbWk874SK+6ThusmA9t+7ysUV7ra++56f+cESd12+5TXxeaowbYsXashzpw5U+zZsyfoK9i07MCBA+X3r5ZCKr0OodV9+/YV99xzT3muD7UlhsUy+ZgSLBrou3DhwsoDh4XYGhcStcPbmEnKIUGr8UGvcWwpGmxLqdUpiKpLkkV3zdqTDDbYoflaVgMcNk93w957/wPlOhr40QC+7oq1wRF/oMT9rb/dV2+pbA0ihcq8//DhS6ZZ4kC/3deDad/tt+a99vLLy2VV/rZbbt2UTNBAkw1WNS1ry7jb8l8XVlVPdWX7deLWl7t/tuzrr35DsfOOOy4ZZPLXdaeF9snfbqgtrJyQkWSZN9x1MLzN9Q6FVFoVOei1Kva2sdB5fV3T+d2P+VUWY/ttEzqu1W23T3ldjCRLGnKNrRoMPnHiRNBXsGnZ6dOny+9fLYVUeh1Kq0deuobaunVrec7FsFQmH9PA1Pnz51eeNzzE1viQqB3GVL9jJymHBK2mAb32t6VpsC2lVqcgKnU0Qg1nAy7uq6Lcu2ZlupNW0/U6ndt27dpIcujJEr3CyuYpIeAOjrh/qxz/98Xkw8WPrdsH7UNlhqbZvsncV6nolWL2MXodm558sfX0FIi+N2Pr6QkOrad5Rx97rHZZs6ptaV5VPdXth+Zp0Mh/Ckjz3P2zaVrWEiX6bebXrVndPtl2tW6oLdxyfJM/jUmqILjkAOjCXQfD21zvUEilVZGDXqtibxtTDHCfnvTNPW+7rxHT8jrX6zxu8Urf69I8nff1W6Zkf11cvvqaazbFuND22m5Lccu9CUPzFU/tFZoqz+Kau0/u3355b7jmzWU81TqyPk9l+jZ2bBuTpWs1hAbo5IMhX8GmZ0vSbyq95qpVgKlCbE0Didr0NoUk5ZCg1XSg1362NA22pdTqFESlRgpdkGD9zR+cGsJiDCLFMPnTmKQKgksPgC7cdTCMqX7nfIdCKq2KHPS6TuytS7JomvsEov9kpeYp2aG/lRz5mVf94kaCPfSqTHc9K1PruWVecdVVm15bpm+36eaAPtvS78MPPli+QlN/64aApic8/fJsH7SMfisJs+5TLmPHtjFZulZD0HfOy5ak31R6zVWrAFOF2AqQB2gVIA9KrU5BVFwoxjd/wCi1aYDJPn4fmj+kjX0hmyoIEgA3w10H6W3udyik0qrIQa9q49A5tI3VJVlC85Rk0JMdfmxyf9clPvwy/Xn2FIn7NIn/dErbbem3fWfNnmbpmmRxY6KWsyc1Na+vqb2WytK1GmId/WLD25L0m0qvuWoVYKoQWwHyAK0C5EGp1SmIigvF+OYPGKU03eWr13j5r0oby8a+kE0VBAmAAHFJpVWRg17Xib11MUZJD/+pxtRJltBTlH23ZX/rqRk9zeKWH1ouVJ5MsVHHXLV/XW1Jg7Q+S9dqiKH7zubjlsgcot+nbyHqVX+hpGlutiT9ptLrUFo9e/ZssX///vJbdGo3DItt8i352KmX+hhjQmxNA+eQtDYV/QwJWgXIg1KrUxDVli1byou30EUJhnU1Bd8xSRUECYAAcUmlVZGDXnWuDJ1D25qSCO530sqnP264ceMbXvfe/0A53X9dmDtQWpeocOe5rwfTPH0zxX8Fmb1KTOVon+q2pd9K/Nggsb+t115++cZrxbbdcmtjksUvz5Z9/dVvKHbeccem5EtfGzu2jcnStRpiXf12NV+f0ru+g+R+e6jO3nfX+zvrwH3Nnq+33GxJ+k2l1yG0evTo0WLXrl3FsWPHinMvxbJQW2LYuibfko/tfanPcOjQoZX3DQ+xNT6cQ9LbVPQzJGgVIA9KrU5BVHrf/8mTJ4MnUQzrYgq6urthTFIFQQIgQFxSaVXkoNcYg7TuR+XdD9xfTFSEP3zvDpS6v+uSLPqtxIpt603XXlv54XvdYa/9qtuWfusJE5Wn5T/5yCOb9kOvCrOyNIj8+299W7mO5mngV0/VWDIpVJ5N07K6C3/dV4XJSLKkIdfYOnaSRSbd2XeO3GVD5iZM2ljT+SA3I8myPqm1eubMmWLPnj3B9sOwVHbgwIHi+PHjKy8cFmJrXDiHDG9j6mdI0Go6ePKsuy3xabK2lFqdgqieeOmC6eDBg8ETJ4Z1MX2kW9+QGJNUQXDpARAgNqm0KnLQqzpJofMoFs9ivSpMpvZaKkvXaoih9RtKsvjTlAi17xgpuWrJFyVYNE1mSceqZc3cdaQhP8lSlci11/Tpb62jp9xs/7TO6668spyu30PakvSbSq+ptbpv377ixIkTwfbDsFR2+vTpYseOHSsvHBZia1w4hwxvY+pnSNBqGnjyrJ8t8WmytpRanYqoFJTuueeeUS58sPxNfqMEi56KunDhwsqrxiFVEFxyAAzBXQdpbQl3KKTSqshBr2rn0PkUi2MagLaP34fmdzW111JZulZDDK3fNkmWww8+WH7HSH8r2WEJxtC6Vcua+eu4SRZLntgrAt1XEiqxad9vUlLlLddfv/EkWsykZ1dbkn5T6TW1Vrdu3cp1KDaKjXV+ILbGhXPIOLaE+IpW48OTZ3FsKU+TtaXU6pREdeSliyQFJ50oMayLyW/0BMv58+dX3jQeqYLgUgNgCO46SG9LuEMhlVZFDnrVuTPU9tj6pkHj2B8GV3stlaVrNcTQ+m2TZCm/y3TjjRtPqNQlWaqWNatLsriJFFteT77oCRZN+6XXvKZ8MkY6/KO7/7i44qqryt9dX1kW05ak31R6Ta1VYiI2lo11fiC2xoVzyDi2hPiKVuPDk2dxbClPk7Wl1OpSRQWQilRBEK1ehLsOhre53qGQSqsiB71yMZiXLeEisoqlazXE0PoNJUrcb7JYEkRPl+gJFfepkaqESWhZs6Yki7+8JVnsb5V99TXXlPu27ZZby+8uWfLFXW8oW5J+U+k1tVaJidhYNtb5gdgaF84h49gS4itajQ9PnsWzJfVxmyi1ulRRAaQiVRBEqxfhroPhba53KKTSqshBr1wM5mVL7sAuXashhtavn/TQkyj6JoolNi5+I+XyMomhZZXYcBMhSnzYk11Ny8rqkiz29733P1DOc18Xpt9KwijB8o6b3rnp91jfY5EtSb+p9Jpaqyk1Zf5s3xmybwl97vOfDy4vP3W/JzS2ufoLze9q/vF9+vEnile88pXlN5tOP/101GOfWl2GbKzzA7E1LkPHZeyiLSG+otX4oNd4tgQNtqXU6lJFBZCKVEEQrV6Euw7GsTkGz1RaFTnolc5lXrbkDuzStRpiaP36g8T+6/A0X6//snlKvti3UGRKdGgQVfOOPvZY7bJWnptk0W8latzvrYQ+fC/TPG3LTQC5v8ewJek3lV5TazWlpnx/lul1dv5r76Zq2seYSRbfYr/K7313vX/SSRXfxjo/EFvjMlRc9uOxxcGqpO3cbQnxFa3GZyi9LsGWoMG2lFpdqqgAUpEqCKLVixAQx7E5Bs9UWhU56HUILcUemFF5S737dckd2KVrNQSxMC9bkn5T6TW1VlNqKpRkUfLPXrfnLjtFS5lkCdXNuhY7aZPaxjo/EFvjMlRczj1pG9uWEF/RanyG0usSbAkabEup1SmJ6uzZs8X+/fuLbdu2lQ2FYW1M/iK/OXXq1MqTxiVVEFxqAPRRm4dO7lhaU73PjVRaFTnodQgtpRyYkS3p7tc5arAtS9dqCGJhXrYk/abSa2qtptSUPyiq34o3ek2e4qS+F6TvCNkTV27sVJxzn8Jyv0n0iYceKl592WUbd7K7CRv/aS/d5V5XVt16fiyv2q6Oy31KTccUmuYfn+bJrD7cbYX2p24f3PLsBoy68my63w6af/P27eW81DbW+YHYGpeh4nIoyZJT0ja2LSG+otX49NWrYo/FCDeGtDU/xqWwIbbh2hI02JZSq1MR1dGjR4tdu3YVx44dK86dOxdsPAwLmfxFfrN3797i0KFDK48aj1RBcKkB0KdrQLSOqF1wyfRaEgWf0PJNpvWm/G7nVEF1jsEzlVZFDnrt27nsYik7eaGLzHUtdtImpi25A7t0rYYYQr9YPFuSflPpNbVWU2oq1Bd907XXljHS+pUa0NffWt6NnUqEuHeou3Hq8IMPFk+dOlX+rTvZLWFiZSphoN/6hpKmaSDW/TaRH/Oq1pO5sbxqu9rXK666qlxe6yohEprmlufHcnee/g7tT90+dCnP/Z6TzbN2GHLQeqzzA7E1LkPFZd/H9bsuaatlqpKLoXmWyAyto221SaRa2UPYEuIrWo1PH70q1vgacV+d28bcmBSaH8OG2IZrS9BgW0qtTkFUZ86cKfbs2RNsMAzrYgcOHCiOHz++8qxxSBUElxoAfboGxFBHVL/HfDd7SksVVOcYPFNpVeSg1z6dyzoLXaT5/sjdr/1tyR3YpWs1RGz9YmltSfpNpdfUWk2pKb8v6lqo3+ZO07pXvfGN5d8WbyxuKemgOGkxzU12hF4dVFdW3Xru/uh31Xa1nI5TCaRjTz5ZO809Prdu3HlV+yOr2oeu5Sn2+08P+evZsqlsrPMDsTUuQ8Vl83H5vVlT0rYpuWjzLJEpU3LUHUxWglZ96DaJVK0zlC0hvqLV+HTVq/w7RkyIVU6dDbEN15agwbaUWp2CqPbt21ecOHEi2GAY1sVOvxTYd+zYsfKscUgVBJcaAH26BkT/Ykvm3vE2N0sVVOcYPFNpVeSg165aqjP5XdVFmuuP3P3a35bcgV26VkNs2bKl9NmQr2DTsyXpN5VeU2s1Zkz0LdQXNXNjTdU0xSolAhQX3YSGllFcUkxz5+nvquREqCyzqvXc/anbrplirhIgblnutLPnzm2UVxd7m/YntA9N5fn7SpIlDbnG1nVIeQ5xrev5JKQj8/sqjWm6m8SR2Q1I2nZTInVIW0J8Ravx6arXKq2YVd2M58+7+pprit/6nd/dmF+3nsy0ar/dOFZ146B7HtDf7g0V/u+m7bexJWiwLaVWpyCqrVu3VjorhnW1sUWeKgguNQD6dA2IfkdUv3UXn3vxVRV4tKwuCBV0QnfS27KaHrqDPRS0QmWGplkZ/jbsQrBqn939q9oHK7uLzTF4ptKqyEGvXbVUZ1UdT98fbZCFu1+725I7sEvXaojdu3cXJ0+eDPoKNi3Ta231/cClkEqvqbUaMyb65scX10Ixw5+mvpzuIlfscqe99vLLN/qr2265dVNM9W80sLvLNe/1V7+h2HnHHZfsT9V67v7UbffTjz9R3Hv/A+XfWk590/sPH75kmvukaF3srdqfun2QKT7bK1z88vS37Y9/w4Qt569n5aayseI7sTUuKc8hrnU9n7iDsmZtkiz+Oq5ZX9pdNzRtCFtC/xitxqerXuuuLTWt6WY8m6f45c4LPTHmbsPfrrRr2q97Zagb9+rGjZq238aWoMG2lFqdgqiGCkjYMmxskacKgksNgD5dzxfWEdVgqpn7TZa6wKOgVncnvf5W0Azdwa7foaDV9TFrfxtN+6y/3f2LEThlcwyeqbQqctBrzNhb1fH0/VF/q5PJ3a/dbY4abMvStRriiZf86+DBg0FfwaZlDz/8cHHfffetWm7+pNJraq3GjIm+dR0U9afZ+m5c0zTFRvVrdYOO4pH6t1aG+nxVN9kofumudOtHuhZaT9vSOtr+c1/9auV2Fa91I5PNU6IjNM09vrrYW7c/dceumK0bkzTvk4880lheaLv+75Q2VnwntsYl5TnENV8zroX81qZVJRdDiUx/urap6W0TqaFzSypbQv8Yrcanq16rri2r5lUlMvW/aVTzFItc82OztNf1laHuNvx13N9ttt/GlqDBtpRanYKohgpI2DJsbJGnCoJLDYA+Xc8XoY6oEh2WbKgLPPpb61bdSe/+7c+rClpdH7P2t2HT6va5aR+6Bk7ZHINnKq2KHPQaM/bK76ou0swfLw5scPdrX5ujBtuydK1Wodft3nPPPaXPhXwGG9fULkqw6KmjCxcurFpt/qTSa2qtxoyJUzf1D/0bB7DxbKz4TmyNy1DnkNC1rVlVH/Ri/zecdK2a505XwlJ96lDSNDTNyh7CltA/Rqvx6arXuuu7UExtm2RpE4u7vjLU3Yb+rho3arv9JluCBttSanUKohoqIMUwC2oKImMFkjbmC0uDTaFAPEcbW+SpguBSA6BP1/NFqCPaNvDY8naXgAKkeye9W45fblPQcsvUelXT/G3YtKp9dpePFThlcwyeqbQqctBr7NgbukiT/rj7NY7NUYNtWbpW6zhy5Ej52l35BzYtU7voCZbz58+vWmsZpNJraq2qzULn3rmZ4qDdFRuajw1v8r0xILbGZSnnkKnZWPoZErQanz56VbJD14D2lpBy7OaGGzfGh0I34+n60f7WPN3sW/UkmeKzle2aytANwrqGtXIuXpdWvzLUrkXtb10va7n33fX+jZtu226/yZagwbaUWp2CqHIKSHI8d1BHwtKgiwZq/GVDJqceItmRapAnBxtb5KmC4FIDoE/X84WvWZmCmxtcqgJP6O569056X2fu76qg1fUx65CW6/a5zT5YOV1sjsEzlVZFDnq95ZZbimeeeSbY3ti0TFrWgO1SWbpWAXIilV5TazWn69G+pgEiu2khNB8bx8bqYxNb47KEc8gUbY7XqD5oNT599apxFfsWb9WTX+50mcaebB29uaTqw/eKzzZu45qNZ7k34mpa1Y2Dmmc3OWp5xX5b7rZduzaNNbXZfpMtQYNtKbU6BVHlFJDMwd0BWzmmfYfBXTZkcnaSLGltbJGnCoJLDYA+Xc8XplkFDjP3DgRZVeBpupPe15n/OxS02t6xb/tWpeWqffaDaozAKZtj8EylVZGDXj/0oQ8Vjz/+eLC9sWnZF77wheLOO+9ctdzyWLpWAXIilV5TazWn61FsXjZWH5vYGhfOIePYHK9RfdBqfNBrPFuCBttSanUKosrJwUNJFn+aMpX28SEN5lryRQOfmiazu86rljXTIKkGT+9473s3sp/uq03cAVQ3Y+oOzNYN/Npgs/bNfRon5muGhraxRZ4qCC41APoQEMexOQbPVFoVOej11KlTxV7uZs3C9IFzfeh8qSxdqwA5kUqvqbW6ZcuW8poudA7GsJQ2Vh+b2BoXziHj2ByvUX3QanwYU4pnS9BgW0qtTkFUOTl4myTL4QcfLD8+pL91t7klK0LrVi1rpgSJXvdz8/bt5d+6412/VYbNszvTqz7E6//trqPyNE2JF/sQuKYP9cRNChtb5KmC4FIDoA8BcRybY/BMpVWRi14PHTpUfPzjHw+2OTYNO3HixKKfYhFoFSAfUuk1tVZ3795dnDx5MngexrBUdu7cuWLbtm0rLxwWYmtcOIcMb2PqZ0jQanwYU4pncxwn6kup1SmIKicHb5NkUeJC78ezJ1TqkixVy5q5CRKbpmSMnjrR0ybue/lk9kSKu577d2gdmfbNPoKoee57+nKzsUWeKgguNQD6EBDHsTkGz1RaFbno9cKFC8WHP/zh8okWvZIq1PbYOKYL9Xvuuae8aF/ah7N90CpAPqTSa2qt6mlBPTUYOh9jWCp7+OGHi/vuu2/lhcNCbI0L55DhbUz9DAlajQ9PnsUzkiz/QKnVKYgq9ySLngKxb7JYQkNPiugJFfe1W/66dcuauQkSm+YmWfzl+yZZZHXl5mQkWeYNSZZxjCRLN3LTq14dpqcl1M7YNEzJlSNHjqxaaNmgVYB8SKXXIbS6b9++Mrkduk7CsJgmH9MAsWK9bngZA2JrfDiHDGNT0M+QoNX48ORZHFvK02RtKbU6BVFpMCHUYFM0P1GiJ1H0fRMlJ/T74vdOLi8TLlp22y23bkpYKAliH7VuWlamAKLXe7nr+MmTe+9/oJzX93Vh9gFwzXv91W8odt5xx6YkUm4mfxqTVEFwqQHQh7sOxrGxdZWCVFoV6BUgHmgVIB9S6XUorSq5vXXr1o2EN4alMPmY7sAf80lVYmsaOIektynoZ0jQanx48iyOLeVpsraUWp2CqHSiDDXYFM2SLHq1l+zlr/jxjQSIzdfrv2yeki/uh+r1lIg+YK95Rx97rHZZmSVI9Cqv0PYuJmou/fC99kMJHT21cvbcuY0kS906Mq1jH+W3abmZ/GlMUgXBpQZAH+46GN7meodCKq0K9AoQD7QKkA+p9IpWAeJCbAXIA7SaBp4862+qsyU9TdaWUqtTEFVOSZahzZIsbiIkpeX+qjAZSZZ5w10Hw9tc71BIpVWBXgHigVYB8iGVXtEqQFyIrQB5gFbTwZNn/WxpT5O1pdTqFESlRgoN7GHDJln09It9/D40PxeTP41JqiC49ADowl0Hw9jc71BIpVWBXgHigVYB8iGVXtEqQFyIrQB5gFYB8qDU6hRERZKl2oZKsuij9/6ryHI1kizLgLsO0tvc71BIpVWBXgHigVYB8iGVXtEqQFyIrQB5gFYB8qDU6hREpcG80GA5hvUx+dOYpAqCBECAuKTSqkCvAPFAqwD5kEqvaBUgLsRWgDxAqwB5UGp1CqLasmVL+aqq0IA5hnU1kiwA0IZUWhXoFSAeaBUgH1LpFa0CxIXYCpAHaBUgD0qtTkFUet//yZMngwPmGNbFzp07V2zbtm3lWeOQKggSAAHikkqrAr0CxAOtAuRDKr2iVYC4EFsB8gCtAuRBqdUpiOqJJ54oDh48GBw0x7Aupo906xsSY5IqCBIAAeKSSqsCvQLEA60C5EMqvaJVgLgQWwHyAK0C5EGp1amIat++fcU999xTfug9NHiOYXUmv1GCRU9FXbhwYeVV45AqCBIAAeKSSqsCvQLEA60C5EMqvaJVgLgQWwHyAK0C5EGp1SmJ6siRI8XWrVvLb2pgWBeT3+gJlvPnz6+8aTxSBUECIEBcUmlVoFeAeKBVgHxIpVe0ChAXYitAHqBVgDwotYqoAOKSKgiiVYC4pNKqQK8A8UCrAPmQSq9oFSAuxFaAPECrAHlQahVRAcQlVRBEqwBxSaVVgV4B4oFWAfIhlV7RKkBciK0AeYBWAfKg1Opbb9n+N+e///3VJABYl1RBEK0CxCVlhxW9AsQDrQLkA/1ggDwgtgLkAVoFyINSq9fv2PmV57/xwmoSAKyDApQC1SpmRQWtAsQjpVYFegWIw4ULf1e85d23XFhJKzpoFSAe9IMB8oB+MEAe0A8GyIMNrd5w+657TvzlydVkAFiHs3/1XLF15+1/sYpZUUGrAPFIqVVxw87dD37x9OnV1gCgL8m1SmwFiAb9YIA8oB8MkAdoFSAPNrT65nf911/b/9FD31pNB4A1uP/IJ8+/9Zbtb17FrKigVYB4pNSqePPNN1924J77vrPaHAD0JLlWia0A0aAfDJAH9IMB8gCtAuTBhlavu+69/+iGXbufeu5rX1vNAoA+fOe73yveufs9z1130/Z/uYpZUUGrAHFIrVWBXgHWB60C5AP9YIA8ILYC5AFaBciDS7R63c03/+t37933db1DDAD6cddHPvrClu07fr0UVSLQKsD6DKFVgV4B1gOtAuQD/WCAPCC2AuQBWgXIg6BWb7h99x/8ySce+u5qGQDowGf//M9/cNOuO+5fySkpaBWgP0NqVaBXgH6gVYB8oB8MkAfEVoA8QKsAeVCr1Rt27rrl1n1/+OLz33hhtTgA1HH++98vPvSxe7/5kqj+TI9arqSUHLQK0I2xtCrQK0B70CpAPtAPBsgDYitAHqBVgDxordXr3vXul2/dufvLH3vw4e/zXj6AMAo8Hz/66IUbd+3++pbt2//TSj6DglYBmpmCVgV6BagHrQLkA/1ggDwgtgLkAVoFyINeWlUW5vdvvvn179hx+5euvfndBYZhm+36HTu/8tZbtr895UfI2oBWMazepqJVgV4xrNrQKoblY/SDMSwPI7ZiWB6GVjEsD5uSVgEAAAAAAAAAAAAAAAAAAAAAAAAAAAAAAAAAAAAAAAAAAAAAAAAAAAAAAAAAAAAAAAAAAAAAAAAAAAAAAAAAAAAAAAAAAAAAAAAAAAAAAAAAAAAAAAAAAAAAAAAAAAAAAAAAAAAAAAAAAAAAAAAAAAAAAAAAAAAAAAAAAAAAAAAAAAAAAAAAAAAAAAAAAAAAAAAAAAAAAAAu5brt//ofb92941/8wZ7jspe97bYCwzAMwzAMwzAMwzAMwzAMwzBsrvbP3/mev1BO5J/d9J4DL/3+hVXGpAPXbf+XP/TOPY/+P2/9w2/e/NiTxUPPnCsNAAAAAAAAAAAAAABgzjx69qtlTuS9T/5F8e/+8KPf/Cc33fGVl1234+WrDEo9/9cbdv+n//5dd379vtNfXhUHAAAAAAAAAAAAAACwTP7i+ReK//fuP3r+n9x4x1tWqZQwP/TOPQ/+yt33f/PF899frQoAAAAAAAAAAAAAALBszl/4u+L//NNPffe//4M7P/2y6977j1ZplX/gH2/dfeVvfPTj314tDwAAAAAAAAAAAAAAAA5bjjxx/l+8c88tq9TKiut2/qv/YdveF5WJAQAAAAAAAAAAAAAAgDD/r537X9z0jRZ9JZ8P2wMAAAAAAAAAAAAAANSjb7T80B/s+fLF14ZtufUV/+aOD724mgcAAAAAAAAAAAAAAAA1/NofP/Cdl71t+2Uv+yc33vG+nZ/589VkAAAAAAAAAAAAAAAAqOO+018ufuidex592T9/53v+4tGzX11NBgAAAAAAAAAAAAAAgDqe+873iv92665vvey/u2H382de/PZqMgAAAAAAAAAAAAAAADTxsrfdVrxM/wAAAAAAAAAAAAAAAEB7SLIAAAAAAAAAAAAAAAD0gCQLAAAAAAAAAAAAAABAD0iyAAAAAAAAAAAAAAAA9IAkCwAAAAAAAAAAAAAAQA9IsgAAAAAAAAAAAAAAAPSAJAsAAAAAAAAAAAAAAEAPSLIAAAAAAAAAAAAAAAD0gCQLAAAAACyGC3//98XPfuCeshP8j7fuKr723b9ZzQEYFnwRAAAAAGAekGQBAAAAgCBfeuFbxT+76T0XO4ye/c97DxYH/+Lp1ZL5wMD2dNlz7Isb/vUfD31iNXW+4IsAAAAAAPOgvI7RPwAAAAAALm6S5Rf+6N5ymgaGd37m8xvT/z+7/6j43g9+UM5bhzd94tHi3975x8WvHzwcpbwqGNjuT6w2qiqHJAu+CAAAAACQI+V1jP4BAAAAAHAJJVmMunldcQebYyVtqmBgux+x2mjItp46+CIAAAAAwDxQn54kCwAAAABcQlMi5aoHPnWxM/mSfeDzT62mdocky/QhyRIffBEAAAAAYB6oT0+SBQAAAAAuoSnJ4s6/7uFPr6ZeHDz+xJfOFv/rXYcudjYd02ug3IF19xVRvqnMLmX5aF331Way/8vbd278Dg1sh9aR6dVWf/7X31gt9Q/cf/rLxb+540Oblv2fbv/Axvdq3ONzE1HnL1wo/h//9X3ldKvbT375rzaWffUfP3DJfv/B0ePF5//668Ur3nfwkukuVcfg15e/Pf84bPlYbdRUjrs/vj+1aZO2xxOi7TEYXbcVOoYmXxTPfvPbwX0yUxmfPvfV1dLt6srawV9XuMdl/lpVpnuMfn24y6qcLvXVpS36tHmTZkWbYwYAAAAAMMr+ov4BAAAAAHBpSrK4iQL3qQRN1wCpvrux73N/WU7XwGbZ8QyUVVWO6FqWoUFSe0pAg8kaQNU0fQ/E1vUHtkPraJDbnWaD0lrWnuTRdO3bqW98s7jl058r99UGqPsmWWTXPPhYWab7xJBMdfTkc88Hy3aPQQPHGlh3j8GtX397NoCsY7FpluyI1UZ15bj7Y9vt0iZdjsenq5912VboGDStzheFrz/5grtP/rG0rauq5KgwX7P9aetPfn2Y2Ta7+lrbtujaDm002/aYAQAAAACMsu+pfwAAAAAAXPomWarwB3CNruWIqrKMquSGO4Dqr9smIWL7V7WsT98kizv47baDWz+hMmx7NrhtuGXYflRtL3S8sdqorpzQ/nRpky7H05YqP+uyrapjqPNFYev582yf/GNpW1ff+v7fBhMG7nJd/cmtD5XpPmEkYrRNqC1itINP22MGAAAAADDKfqb+AQAAAABwiZ1kqRq87FqOqCpL1A1eV81rO+Ct7T3y7F/VLutSNbAbGtBuM2DstoO7z6o3d/Dcby932abt+eWqPWK1UV05/v50aROV3+V42lLlZ2235bZJW180qhI8oSRL17oKHZd7TPJVt8wmf6qqDyNG2zTtc992cOlyzAAAAAAAhvqIJFkAAAAA4BK6JFlC8/WKnXcePVa++sfKkfkD1m0G8NuWJerKcwdK3cHWpn1wB3PvPP7Fxv01bGBYljrJ8vXvnd9Yrs6atueXq+OL1UZ15fj706VNVLddjqeKtn7Wdltum/jbrvJFw/UdtZn/urAqf2pTV662bf/9pI5bZp1p36rqw+jTNm3aIkY7uHQ5ZgAAAAAAo+wn6h8AAAAAAJemJEubAU6ZPrr9p08/W377QL+7JFm6liXaljfnJEubQeAuA9+x2qiuHH9/urTJukmWLscg2m5rnSSLv09m/+Nt7y+/J+LSta6E+0SMu592PFV+F6KqPowubdOlLWK0g0uXYwYAAAAAMMo+qf4BAAAAAHBpSrLYIK0/AF01PfS6H1E3QNy1LBEauDXcee7AdtV0w91el9eFhQa3RWgwt2rAuGrg1z/Otq9EMroMfMdqo7py/P3p0iYqv8vx+HT1s7bbqvr+iWg6PtXVK953sFVbdq0r4R6DmTu/qUyXqvowurRNl7bo0w51x9LlmAEAAAAAjLJPqn8AAAAAAFzqkixV8+oGKasGrKsG3vuUZVQN1LYpU1aVELH9q1rWp2oQOFR/Vcu6269LsnTZL9Fl4DtWG1WVI0L706VNuhyPS9djEF221ccXRdW2q+hSV/50M79+qsr0qaoPo2191SVDQvXRpR3aHkvb5QAAAAAAjLL/qH8AAAAAAFxCiQANXu78zOc3pvuDssIdpNRrjfx1QoPGTXevdylLuAPIGqz987/+RvmNBxt4tenuIK47MKtyD/7F05vWcbflL6t90zcztG//9s4/Lv7joU+Uy/kD3NqPT3zp7Mb+y2ImWUL7JXQcv/ennypu+NRnN9qrywC1iNVGVeWE9sc/nro26Xo8Ll2Pocu2+viicLcRMv+1YV3qyrC2MHOPRfhlVvlTVX0YXeqrS1t0KTd0LCHNtj1mAAAAAACj7JPqHwAAAAAAFzfJ4tv/vPdgOYgbQoOUb/rEo5uW14Dwf/joJ8q/Q4O9WufK+45sWkcJhT5lGRoU9cv8n27/wMa00MC2tucO6JrpuxAaHHepWtavG9WjXvvkLqPybCA3ZpLFpmu//s0dH9ooT6Z6WyfJoukx2qiqnLr9adMmXY/HpesxdN1WX1/UoP7/ce+fbdpnTa97Oqat/wr3OKq0ZGXW+VNVfRhd6kvT2rZF13aoqh9fs22OGQAAAADAKPuL+gcAAAAAAADGx00SNCUteKUVAAAAAMC4kGQBAAAAAACYEO7TS6EkS9WTLAAAAAAAMDwkWQAAAAAAACaE+ySLEin2XRBNd1+lFUrAAAAAAADAsJBkAQAAAAAAmBhV3wVR0qXqGysAAAAAADA8JFkAAAAAAAAAAAAAAAB6QJIFAAAAAAAAAAAAAACgByRZAAAAAAAAAAAAAAAAekCSBQAAAAAAAAAAAAAAoAckWQAAAAAAAAAAAAAAAHpAkgUAAAAAAAAAAAAAAKAHJFkAAAAAAAAAAAAAAAB6QJIFAAAAAAAAAAAAAACgByRZAAAAAAAAAAAAAAAAekCSBQAAAAAAAAAAAAAAoAckWQAAAAAAAAAAAAAAAHpAkgUAAAAAAAAAAAAAAKAHJFkAAAAAAAAAAAAAAAB6QJIFAAAAAAAAAAAAAACgByRZAAAAAAAAAAAAAAAAekCSBQAAAAAAAAAAAAAAoAckWQAAAAAAAAAAAAAAAHpAkgUAAHrzF3/xF8W+ffuKrVu3Ftdddx2GdbItW7YUd955Z/Hoo4+uPKo/U/XFJRxjThazPc6ePVvs37+/2LZtW3Bb2DRM7aN2OnXq1Krl+kObY7KYPsV5HWtjMWMXAAAApIEkCwAA9OLee+8t7rrrruLEiRPF888/X3z729/GsE72wgsvFF/4wheKQ4cOlYNMFy5cWHlXN6bsi0s4xpwsVnscPXq02LVrV3Hs2LHi3LlzwW1h0zC1j9pp7969Zbv3hTbHzGL5FOd1rK3Fil0AAACQDpIsAADQmePHjxcHDhwIXghiWB974IEHioceemjlYe3JyReXcIw5Wd/2OHPmTLFnz55gmdi0TTqSnrpCm2NV1tenOK9jfa1v7AIAAIC0kGQBAIDO6JUFuqMudPGHYX1MdwbrFSxdyckXl3CMOVnf9tBdxLrzPFQmNm07ffp0sWPHjlVLtoc2x6qsr09xXsf6Wt/YBQAAAGkhyQIAAJ3Ru6H16oLQxR+G9TW9d7wrufniEo4xJ+vTHvp2Aq/2yddocyy2cV7HhrY+PgcAAABpIckCAACd0cVd6KIPw9axPoMGufniEo4xJ6M9lme0ORbb8ClsaOvjcwAAAJAWkiwAANAZBgewFLaEgaolHGNORnssz2hzLLbhU9jQ1sfnAAAAIC0kWQAAoDPrDg7oFRlXXvV7xQ//6I9t2O+/9W29X8ei9X76F15VHDz0J8H5qU3b//lf+dXi8SeeCM6PaUNuSzZk3aYaqAr52+uuvLJ49tmzweVdi13fqY5RdvfBjxSveOUry+P75X//64P5iGsx/WUI30vZHtg0jTbHYtuQPmXx7HevvnrT9JNPPVWe/1OdL4fue3S1NvFinZgytePv43MAAACQFpIsAADQmXUHnGyQwC507fetO3desmwO1uXi+313vX+tQZCpD3SsY6kGqkL+pnbwB6lCFru+Ux3jB+++u/i137is+NznP1/+/sRDDxU/9bM/l52frKuPrpaiPczfLKH38lf8ePGevXuDy6a02L6r8twByk8//kQ5qPsjP/GTxemnn46aEPO3FdNSadDM2p9B8PWtrx+k9J+QpfYp1+RfV73xjcVrL798040CigE63zQdc99zbBf/Guo8vu52uqw/NX318TkAAABIC0kWAADoTN/BATN/0FumAYI2g95TtC4X3ze8611rDQpM7UI/pqUaqAr52yOPPlomJVSf7rK+xa7vFMdYtY85ampdfXS1FO3h+9up06eL117+262TyLEGKFOfK2K31VADsyna3DUGwcexMY8ptU+5Zv715re+deN4Ne3qa64p3nDNmxvroK9uu/jXUOfxdbfTZf3U59Ou1sfnAAAAIC0kWQAAoDN9BwfM/EFIGzSw37qY/aXXvGZjgMr9rWXffuONG3eI6xVJ7sWvLeu+Ounm7ds3tq27iTXgqen2SqVQmaFpVoZfjgY3fut3fnfj4ltPEbz6sss2tmHHoQt6TZPp7m9Nr1rWtbpthY5H060e7njve8t60DHs2rOn2HbLreWy+m3Lyqr2o0vdrmupBqpC/qa2cBMQdfXoDqxULdfWUhxjVcJI+6rXomm633Y24K92t7Y0s3qq84kqP3DrS9t3yzafryrb14eejmhT93X702Qp2sP3N5n2/Wde9YtBffu27sChmdsWofnrWOgY17VYx91kKdrcNdUNg+DD25jHlNqnXDP/+shLx6rXrGqazi/6262D0PlS891zrM5HdX0Qt4zU/Zy2+6F5emLT344bLzTPTWorRireuxrx15c2Q+vYb19fofq1ZXUsobiqtqvrV3axPj4HAAAAaSHJAgAAnek7OGBmA3TuBaj7TRb9r0FTu8h2f+vC94qrriqn6Q5xXWy7F7/6W68J0SCr/taFsA1u6rfWtVcqaZ4GoXVB7JcZ2o7tv23DLpBVjvtqpsMPPlg8depU+bf7NIEdtzsQVLWsWd22/HkPHzlyyTyrBx2P6tkGEfxtVe2H1m1Tt1bOOpZqoCrkb2+69tryGDTfjquqHt3jD/mPldPGUhyj2rYqyeL6vtt27nwdj+pIg05tfNMvy9+OOxBlpuSeO4AVKtvXh1uWbbONr3fxyxTtEdK5Py32AKWO2R+E9NuiqhztW5sks1ueu59qO39bof2p2wf/uFMm2FK0uWuquyUNgrf1Hy1b1Y6heV18eEj/CVlqn3LN/OvoY4+Vba460DlUx2DnGB1XKFY999WvXnJuajrPu22Xqp9Tt4y/H+qPaZq/HU2zNvdjounOXcZf3+rIX0d/++Xr76p4pHKq4mpdv7Kr9fE5AAAASAtJFgAA6EzfwQGz0EW4Bk/8u+5tAMX9rb+1rgbJjz355MZ89+LXHVxxf1uiwTUbkAmV6U8z8y/g/W3q4lkDTDYYVDf4ULWsWd22/HkyXdBrMNvfJ7vwtzr1163aD7ccv0z/97qWaqDKrffQPretRy1nfmNmg5S2XpOlOMbQ/svcQaPQcYcGg9xESBuf8H+HtqMBMxtsNguV7evDLauLr4f2ocpStEdI5/60mAOUOt7QIKRfD1XlqG7bJJnd8uraSn+H9qduH7qUt26CLUWbu6ZjWdIgeBf/aWpH32dkbXx4SP8JWWqfcs38S/uvOtBxyc++dObMRh2o/t04JVOscpex8lTXofO8ynDPuW6d1q0X8q+qZV1rux9mdW3u1pGmu/1Hdxl3/ap1bHvuuqF9snhUF1e1vLYZ6ld2tT4+BwAAAGkhyQIAAJ3pOzhg5l/cytwLWP8C1/8tswtyXeiePXdu07r2t1+uLoxDF/dmbplar2pa3eCD/a2BDw0Gudv0j7tuWbO6bYWWrxp49geP3HLr9sMtxy/T/72upRqo8utdA1N+e7apx9ByXS3FMVa1gzsIWbWMjlMDWjL/6R4t3+QT/m9/ng0eW7l1ZVfpQ2W1bSN/PXf5kKVoj9D5zZ9WNaAYWrdqWTPVjevPZn49VJWj5bTNpiSzW15TW4X2R9b2uJvKW6ftU7S5azqWJQ2Ca7sqr8l/6tqxymf6HpO7Xmz/CVlqn3LN9S+dX3/jP/1meSxuHeiYQ21YVU+h87xfb27d1K3XZRtmXfbDrK7N9VvaM9+ystxl/PWr1jFz1w3NN5+yv+WfMjeumpkfh46rrfXxOQAAAEgLSRYAAOhM38EBs9DFrZ5ksacC7GJW87WsPmhr8z79+BPFvfc/UK6jAQYlX9xXg7gXwlrG/a2/3TtaVbbuNgyVef/hw5dMswSFfrt3DGvf7bfm2QePVb5ek+RejOvi+z17926UU7esLVO1LTs220//Dl23HlROVZKlbj/8+quqW/1e11INVOmY/MEY+YE/ONNUj7ae7z/6u62lOkYNDtkrdvTb9RP9DrWVpuluc/MJ19r6hP/b/9t9fVGbsl19hMpt4+v+7zpL0R6+v8lc/dn+xRqgdLXsTnfroU05oYE/d5qbzK7aT81r2p8ux23l+fu6ziB5Kg2a6ViWNAhu1uQ/Oif561g7+sdiZtvte0xaL7Sv6/hPyFL7lGuuf/l/Wx3oOKpiVds+iOa5MSR1P6cu3rjHIp8KHYvfdipTCX75n03zl3HXt/mvv/oNxc477tjwJXeerWt/V8Wjqrga6muGlmtjfXwOAAAA0kKSBQAAOtN3cMBMF9EaDLA7/WTuALFMg8aarve537Zr18bFqC6wNahg83SBHLr4rbqovngxf/Hd7Pau+FCZoWm2bzINONg73HWnog0m69h0UW/raSDHfVWSBny0nubpdTJ1y5pVbUvz3OPx3zXvH3dVkqVun7vU7bqWaqDK/M0dNPEH9arqUetqIMaWDfmPldnGUh2jTPtifuIegyzUVpoW0qF8pK1P+L/dv1VvbtkqR9Prynb18clHHtm0nba+7v+usxTt4fubziXabx2nfl88jngDlDre0CCkWw915bRNMrvJbP8Y3W1V7U+X4/bL09+xEmwpNSjTsS1pELyr/1S14zo+LBvKf0KW2qdc07GbT/nTXU1erK9LY1WXPshQ/Zym8txjcc/9dfHC6sON8377uuvbNPlR6DWgKk/zQn0BPx5pu5puZnG1qV/Zxfr4HAAAAKSFJAsAAHSm7+AAhtXZkANVY9mUjlGDQbv27Nn4rUGkt1z/jk3JqLlbivawwT0bYPMH05oGFLsOUMpCA37uoKC+9VFVTmjgLzTNHaC0YwwlWer2p+1xp0ywpdagjnNJg+Bt/UfLVrVj1Tzf56bgPyFL7VPYcCY/8pOMXUw+NERc7eNzAAAAkBaSLAAA0BkGB7AUtoSBqikdowaT3Lt8NTDaZ4AxZ1uCz2GbjTbHYhs+NQ9TQiSUIO1iQ8XVPj4HAAAAaSHJAgAAnWFwAEthSxiomtIxuneG2x3e9kqdpdgSfA7bbLQ5FtvwqfxNr6h1n7rqa0PF1T4+BwAAAGkhyQIAAJ3ZsWNHcfr06eCFH4b1Md31uXXr1pWHtScnX1zCMeZkfduDwdG8jQFxLLb18SnO61hf6xu7AAAAIC0kWQAAoDOHDx8uPvGJTwQv/jCsjx07dqzYv3//ysPak5MvLuEYc7K+7bFly5bybuVQmdj0rc+AOG2O1Vkfn+K8jvW1vrELAAAA0kKSBQAAOnPhwoVi9+7dxSc/+UkGnrC1TQMGuqv3O9/5zsrD2pOLLy7hGHOyddpDbXHy5Mlgudi07dy5c8W2bdtWLdke2hyrsr4+xXkd62PrxC4AAABIC0kWAADoxfnz54tDhw6Vd/jqLk4M62u6I3OdAYMcfHEJx5iTrdMeTzzxRHHw4MHgABg2bXv44YeL++67b9WS7aHNsSrr61OC8zrW1dbtSwAAAEA6SLIAAAAAAHRg3759xT333FO+Gz808IpNy9ROGgzXkwN6gqAPtDnmWgyfAgAAAID5QJIFAAAAAKAjR44cKT8+HLrbGJuWqZ30tIGeHFgH2hwzi+VTAAAAADAPSLIAAAAAAAAAAAAAAAD0gCQLAAAAAAAAAAAAAABAD0iyAAAAAAAAAAAAAAAA9IAkCwAAAAAAAAAAAAAAQA9IsgAAAAAAAAAAAAAAAPSgTLL8t1t3feu573xvNQkAAAAAAAAAAAAAAACaKJMs/+ym93zp+HPPryYBAAAAAAAAAAAAAABAHS+e/37x31x/+9+87IfeuefBg3/5pdVkAAAAAAAAAAAAAAAAqEMPr+ghlpe97G3bL/u1P37gO6vpAAAAAAAAAAAAAAAAUMObH/z0hf/m+tvf/rKXXffef/RPbtz9Db7LAgAAAAAAAAAAAAAAUM/5C39X/It3vudbL7tu+798WcmW7a/8kTv/+MXVfAAAAAAAAAAAAAAAAAjwGx/9+Lf/8dbdV15MsKz4oXfuuWv745//wWoZAAAAAAAAAAAAAAAAcLjv9JeLH3rnnkdXqRUHvTbspju+suf4F0m0AAAAAAAAAAAAAAAAOCjB8n/fdue5f3hNmM91N//T/9sf3PlhvTqMb7QAAAAAAAAAAAAAAMDS0TdYXvexh79VPsFSmWBx2bL9lT/0B3d+7f+478j3jz/3/KoYAAAAAAAAAAAAAACAZXDmxW8XNz/2ZPE/bNv74j9/5x1vWmVQWnLdzf/0ZW+99fX/7Kb3fOllb7utwDAMwzAMwzAMwzAMwzAMwzAMW4r9dzfsfv4fb92942XX7fxXq8wJAAAAAAAAAAAAAAAAAAAAAAAAAAAAAAAAAAAAAAAAAAAAAAAAAAAAAAAAAAAAAAAAAAAAAAAAAAAAAAAAAAAAAAAAAAAAAAAAAAAAAAAAAAAAAAAAAAAAAAAAAAAAAAAAAAAAAAAAAAAAAAAAAAAAAAAAAAAAAAAAAAAAAAAAAAAAAAAAAAAAAAAAAAAAAAAAAAAAAAAAAAAAAAAAAAAAAAAAAGTPdTff/E/f/K7/+ms33L7rnht27jp+/Y6dX7n25ncXGIZhGIZhGIZhGIblY2/fvuN5XdffsHP3g7+/7b/+1nU3bf+Xq0v/0WDMAcMwDMOwKVqUfpM6Oi8Vcsvbb9vx3f0fPfStE395sjhz9mzx/DdeKAAAAAAAAAAgL1781rfK6/ovnj5dHPzTw9+7/rYd39u6Y9eBl67//9VqKGAwGHMAAACAKbN2v+m6d7375TfcvutrDz/26fMXLvzdqlgAAAAAAAAAmBPHvvCF4qbdd7z49h07fnk1JJAcxhwAAAAgR1r3m27cteu3d/zh/ue/893vrVYFAAAAAAAAgLmiRMfeuz/8DY0HrIYGksGYAwAAAORMY79Jd5Oos8OdJAAAAAAAAADL4tZ9f/iixgVWQwTRYcwBAAAA5kKw36QPt7xz93ue424SAAAAAAAAgOWh76Fs3bn7y9dd995/tBoqiAZjDgAAADAngv2mrTt27X7ks5+9sFoGAAAAAAAAABaGvpOiD9KvhgqiwZgDAAAAzI1N/SbdUbJ1565v8cguAAAAAAAAwLK5+c6937zu5pv/dTlgEAHGHAAAAGCubPSb3nzzzZcduOe+76ymAwAAAAAAAMBC+fjRRy+89Zbtb1/lSNaGMQcAAACYKxv9pht27n7wi6dPryYDAAAAAAAAwFJ57mtfK96x4/YvrXIka8OYAwAAAMyVjX6T/tEPAAAAAAAAAFg2+jj9lu23fWuVI1kbxhwAAABgrmz0m/SPfgAAAAAAAAAAXHvzu4tVjmRtGHMAAACAOVP2m/QPAAAAAAAAAICImWRhzAEAAADmDEkWAAAAAEjO888/X3z4wx8uduzYUVx33XXYTOyWW24p9u/fX5w5c2bV0u3BJ+Zp6/gETAuSLAAAAADtIMkCkAFnz54tL1a3bdsWvJjF0pjqW/V+6tSpVUu0hzYbx2iz/Kxvm9Fe41mfNjt27Fhx2223FY8++mhx+vTp4tvf/jY2E3vmmWfK9t2zZ09x5MiRVYs3g0/M1/r6BEwPkizdoG+St/Xtk7os3QfWqUP0M57F8H0AIMkCMHmOHj1a7Nq1q7xYPXfuXPBiFktjqm/V+969e4tDhw6tWqQZ2mw8o83ysz5tRnuNa13bTE8raDD9hRdeCJaHzcfkE20u0PGJ5Vhbn4BpQpKlPfRN8rc+fVIXfIBrsVxtXd8HgIuQZAGYMHrNgu4CDAVCbFg7cOBAcfz48VXLVEObTcdos/ysTZvRXtOyNm2mO+N04RZaH5uX6YkUvfqrCXxiOdbWJ2CakGRpB32T+Vnb6wgDH7jUuBbL07r6PgD8AyRZACbMvn37ihMnTgSDHzastR0koM2mY7RZftamzWivaVmbNtMrCLgrcRmmJ1O2bNmyavlq8InlWFufgGlCkqUd9E3mZ10TxPjApca1WJ7W1fcB4B8gyQIwYbZu3Vq+UiMU/LDhTe8rbYI2m5bRZvlZU5vRXtOzpjbT/NB62DytzXkXn1iWtfEJmCYkWdpB32Se1uXchQ+ErU0dUnfTM+I2QD8WkWR55txXygOVPXj00dXUvJjDMUB3GISYlrXpbNBm0zLaLD9rajPaa3pGm2GuNfmDwCeWZW18AqaJrj1XOZK1UVlzhXPaPK3LuQsfCFubOqTupmddfB8gF4YYVy/7TSk6PO7ON9n+Q3+yWisNKSvys5//842yD/7p4dXU+JBkWSZ0OKZldBLzM9osP2tqM9prekabYa41+YPAJ5ZlbXwCpomuPVc5krVRWXOFc9o8rcu5Cx8IW5s6pO6mZ118H6r5u7//++Lxz50odr7/AxvjubJb9u4rjn/xi8Xf/uAHqyXnxVDj5F3JOsniM2aSgCQL5ErqDofek33lVb9X/PCP/lhpL3/Fjxfv2bs3uOw6psd/f/5XfrV4/IkngvNzsal2EodqxxxtKm02ZBt9+vEnile88pXFj/zETxann366+OlfeFVx8NCfBJeV1elzDO02tdnc2svMb7eczpld2uyGd71ro15d+92rr95UZhvr659ar0kXddZmu7GW8W3dfV/H2u5vkz+IdXQ8Vx9qe965++BHynOFlvnlf//rnfc9ZH3roa218QmYJrr2XOVI1kZlzRX5+Bz64+65YN3z3FSty/muy7krFx9Ifb73rU0dahl3nTloKXfr4vsQ5gcXLhR3Hri7jKNvffetxRdPnS6+/uKLxakzzxTv2HF7OX3nXfuzTrQc/tQjxR0f/FDxx/c9sOk4SLK89E9q5ppkGQqSLMvE73DENuvAWOf51OnTxWsv/+3i1p07L1k2ZO+76/2tOt5Dd+ZSWZ9O4hA2VDt2tVTldrGptNmQbaQByC71XqfPMbTb1GZzay8zt91yO2f2aTMd4y+95jXFs8+evWReWxurntpsN9YysimcS2Vt97fJH0QMHWt/5uRDbc47H7z77uLXfuOy4nOf/3z5+xMPPVT81M/+3Nr7n7oe2vgETBNde65yJGujsuaKfHyq/fEuVncumEosWte6nO+6nLty8YGh416bOtQy7jpz0FIuVlVXXXwfLkVPsNz1kUNlDFWC5exzz63mXOSFb35zI9GS+s1OqXCPMZdkEUmWSJBkgVzxOxyxze/AyE4+9VTxM6/6xVaDFm0Hc4fuzKWyPp3EIWyoduxqqcrtYlNps6HaKLSdJqvT5xjabWqzObWXmb+93M6ZfdpMx0iSpd3+T+FcKmu7v03+IGLoWPsz5ySLzD3vVO2rEi99nuJxLXU9tPEJmCa69lzlSNZGZc0V+fjQfYcUVncumEosWte6nO+6nLty8YHU53vf2tShlnHXmYOWcrGquuri+3ApbcZv7WmPUBImB0iyhFHZk0qy2DvrLKtnpkeMQo2mR63899tt33dX+SiW4W57z4fu3nhky8wv213+wL33XVK+u3zdcTXtm4716WefLd734YOblpHV7RNJluXgdzhiW6gD40/TXZKvvuyy8lFdvZbCOjYKyPYIr15vo+lVy1pn7i3XX7/xiovff+vbNrZZtZ725e033lhO12PCekWGpquTpbtZbPkpdxKHsKHasUt7hMrVskPbVNpsqDZyl9Wgm38hFWqrumWuvuaa4rd+53cH05isqc3m1F5mfdpN0zW4anf1aR33tR5a53VXXllO1++U1qfNtF+hAfKqY/Wn605+qyfVgcWWm7dv31S++2old15d/bpPCYTazV/fzC3H107ouJr2Q9N9f/JfJRdaR9Prjt/MX0b1aNPcY7XfbfZX05v8QcTQsb+vZlX75U+fmg81nXceefTR8ikWrWvzZdq2r3V/32O1bV9r4xMwTXTtucqRrI3Kmivy8aH7DjJfqxZ36vSu323OTe7f/v694Zo3b/Q/ZDo/+cneum245yfNd+NT1fnH1rvjve8t19O1yK49e4ptt9xaLqvf7rmqzTHquOqOo8u5awwfqNv/unp027jKT7rWd9X22tShlrFyZGNoqW4Z/9gsxredrrrQ/vvX0aFpts2qcrq2ubVjSG+hurJyu/g+XMp9f3akjJ91CRT3aRZ3jLfLeLRL27F0v3x3eX0nps0Ytfs6MN90LFXj11X7qNeN/fXXv75aqlsdTG1cXWVPJsmiyrFMmJIRquRvviTwUHZMy7qOK2fQ++0ePX68fCfcib88WS4n3G3LrKK1jk2rcuqm5UPH1Xbf9I4+OYKmaRltQ4kZK899bGwIZ4Dp4Xc4YlubDszhBx8snjp1qvzbvVsytG7VsgruGvxTQNffeuTXHQysWk+dhiuuumpjHRsQ0TS3EzOVgUSRus1CNlQ7dmmP57761UvKHcOm0mZDtZG/rNrHvZAKtdXZc+c2LSNtWidfy8R4FU0Xa2qzObWXWVO7uW3y8JEjG20iTdqgq9pKiWxLYLsXXamtT5tpn90Le5tW5aNuHej8o2WtbnTMVgfuXf+aZ3HHn1dVv1a2/q5qN3d9/bZpbjmudjSvjfbanEvdbfvbdH3D5oWOX8taWe4yNq1uwKVpfzW9yR9EDB37+2rTcvWhpvOOq3ebLxuyba38rtbGJ2Ca6NpzlSNZG5U1V+TjTRrW75h9B2nSPff4MaBK7/rd5tzk/u3vn39e0GCtu++yum3UnVvrjsldT+dEDQ7bgLNfR22Osek4upy7xvABPy7Y/ltdVdWj28Z1caFtfWt+zD7B0PVYt4zVQ1X/ITQ9VBdK4mi65mtZzVed+tO0jm23qpyqNg8tb/2fkN5CdWXWxfdhM+649pZbbyu++73vreZsRuPB73rPnnI5d6y7ajy67lsuXcbS/fLNNHZ95uy51mPUVfsvqsbJbX+0LT184O6jm5CqqoPQmPzUxtVV9mSSLFWPS7kZPktQuJkzN6ESwt22Gsdo49TuvoaWDy3bZd9CWILGFeQQzgDTw+9wxLY2HRgFfN1hYXd21HVgqpZVQLfOnC2rzot10urW0zbedO21xbEnnyynWQfPNf/Oi1TWp5M4hA3Zjm3b40tnzlxS7hg2lTYbqo38ZV3tVbWVe2e8lnE77iHtpramNptTe5k1tZs/sKoLKp0/Nc0uhnVO/aO7/7i8wNLv0IBHKuvTZu6+27QqH/3YffcFB5fdevJ/t50Xql+zunOhW7asTjtVx+VrL7SMfy5t2nfXN9x99H/XTasbcGnaXy3X5A8iho79fZVV7VcOPtR03qnajjuYZdNC5Wvaum1rZXW1Nj4B00TXnqscydqorLkiH2/SsH7H7Dv45wRXx3V61+825yb3b3//9PuqN74xuC2ztuc/93foPFcV19zBYv32122z/abj6HLuGsMHqva/bT36x+z+dpfTvLr61t/aP9fW6RMMXY91y4Tqsmm61YGZ6kJ9Pu2Xex2tdf1pTeWoX1jV5qHl/SegtY7r/35dmXXxfdiMm0zwkw8uXcejRdVYc5exdLd8bdd9gqSK0Bh11yRL1b63HWcXddv0GWtcXWVPIsniOqL/4R9/nvu7LjNoVG27yvm7LO8v23XfQoQEMoQzwPTwOxyxLRRY3Q6UBWHdoaE7OxS8qzowdcu6wdy2Y0mWuvXMrNOjjozu3gh1jIawPp3EIWyodjRr0x51nbYhbSptNlQbVS0r7YXaMrSMe8HgzvPXS2VNbTan9jLr2m52oWx/q2y9nkr7ptc4fPKRRy4ZKEhpfdpMx+jvY5WP+n5p5taT/7vtvKayQ+3mly3zy/G3ETquNsv09Q1/H/3fddPaDLhU7a+syR9EDB37+yqr2i9Nn7oPtT3vuOvIQnflhpbVtHXbtq+18QmYJrr2XOVI1kZlzRX5+NB9B//c4+pYfzfpvenc5P4dOja7lgvtW9tt+L9DZfVJsnTZft1xdDl3jeEDstD+h5ZNnWQJ7ZusTR1qGXedoeuxbhn3ON116qZX1YXMvY62dUPT6spp2+YyOzZrR/d3qJ7Nuvg+bKZqnNmnT5Il9Ioxd3tNY+miz9hyaIy6S5KlaZzcL79qH9vWrRhrXF1lTyLJ4jZQnckxumSvRNcG6rK8v2zXfRN6ROpTn/lM+YiT+246kizgdzhimx9YFeD1Hk8Fbf1WZ+a1l19edma0rAbv3OCtztp79u5tXFbBXI+pustacK9b79OPP1Hce/8DG+uo06e7MdxHc7WO+2htSuvTSRzChmrHru3hljuWTaXNhmojfztuR9p06LeVu4zKttcJaBkl0dzfQ1hTm82pvcya2k1/m/bcVz7oty6qlGB5x03v3PTbv7M9pfVpM+2be2Fv06p81J2u9vB919b3661pnv4OlV3Xbn7Zsjrt+Ntwj6tqP2wZ/e36k7+O/g75hrucv55+N02TL2of3nfX+zfuRnWX199V+9vkDyKGjrUPc/IhLVN33pFpYMV973vVOTpUvk1bp237WhufgGmia89VjmRtVNZckY83aTh238GPO6EYENJ723OT+7fm+f16zX/91W8odt5xx8Yxm3U5/4W22SauaRtVg/5dt191HF3OXWP4gC2nPp8G6f06bapH+zvkJ3491dW3LGafYOh6rFvGPzaL8W2nW12ErqPvP3z4kmlWv3V1qmVDbR5aXtN9f3d/+7o26+L7sJmmhIKxbpLFkiZdxtJFm7HlNmPUdWPfXcfJ3eX1lEvVPtYlWaYyrq6yJ5dk8bNvPk0N5NO1gbos7y/bZd/c8mT62M/pZ75cfrtFv0mygN/hiG0KvurA2COl+uCaG2Q1X8Hb5qlj436wXp0r+xDe0cceq1zWgvmb3/rWS7ZTtw11VvQ4rL/OxY7QxY+6abp1JlJbn07iEDZUO3ZtD7dc68gNbVNps6HayLZjFyV+RzrUVlpHHWy7UNKgnX0YUY+vL/nD96oDq6sU7eWW57ab3yZuu9mHLG1dzdO2VG7o9xDWp810XP4AuazqfBKqA9+/3d9d5oXKrmtjv300TVanndBx1bWze+yuP+kppaZ91/S649fvqmkyDeTbPty2a9dGO7Xd3yZ/EDF0rH2Ykw9pWt15x0zHY37mtrlr/v6Zrdu2fa2NT8A00bXnKkeyNiprrsjHmzRcd06Qde07yOriTp3e25yb3O+GaV6oX69lbVBev83qtuGfn9qcT6uWqxr0b3uMWlbTqo6jy7lrLB+wbbrHI6uqR//4q/ykS33721NZ6/QJhq7HpvKq6rLNdJWnughdR1ddW4e2a+Voeps2t+X9dvR/h3Qt6+L7cCnuN7ptTNenaoy3buy3KcnSNJYu6srvMkZdN/bddZzcXb5rkmVq4+oqexJJFrdiml6z1WVZ0aWBRJfl/WW77FuV8HhdGBh+hwMb1/p0ErFxjTbLz5rajPaantFmmGtN/iDwifVMgyTuHatTtzY+AdNE156rHMnaqKy5MoVzmj94OoRpgDb0dEVuVnUcXc5dxLWwtalD6m561sX34VJCr/XyqRoPrhv7Dc2LNT4uuoxRd0myNO3jOq8Lm9q4usqeRJJFWCXI3A/hhOiybJcGEl2WDy3bZt/qnGwsZ4DpQYdjWkYnMT+jzfKzpjajvaZntBnmWpM/CHxifdMdsHbHqu7AtteITNHa+ARME117rnIka6Oy5soUzmlDJ1l0N719gDs0PxerO44u5y7iWtja1CF1Nz3r4vsQpu5pltATKUbd2G9TQkEWY3y8zRh1lySLqNrHUDlt9lHLnv/+/7+9ew2+orr3/D+P5sk8mmfnyUz9n0zVv6Zqqv418z9VqVP518RzkkqszJjJhUo8YhSI4OWHotwC3lCiXEQ5UUm4qDFKxAsJyiBiIEEZgx71BDWQjJpREwMYD0oS4yCSqf7zWfTarN9i7b3X3rtX7768X1Xf4rf3Xr169WU3/ft+f939UeXy6uq7MkUWd4VpRez75S/N+7q32o6TO9Oe51/obLhQ2yNHj2bPv/xKtuHBh7MtP95p2knsBiqqyBI7NncnUxtNpzb2y+buDDGVUDQPJxzVCk4S6xdss/pFv23G9qpesM0IN/rtD8I+0a6I2SdQTfrdM6+RjEx9NVUVjmllFll0i6nQ7Y3qFv2WY5BjF/+vhSNmHbLuqheD7PsI8/PCv3z91yYv/Pqbb3Vyu35xQtwcs5tPtre/Uvg54VAOWkK59F65+UFy1DLI1Tih9aHxue/1K4a4fdh1V7W8uvquTJFF7Ar57g82ddorbr/3vkk7hvgrz8bdD282G8waZAPJIO17te03NrXZ+czPJn2u5dzy5I/Nz+7OoLaP//SpTrtUOwSqhROOagUnifULtln9ot82Y3tVL9hmhBv99gdhn2hXxOwTqCb93pnXSEamvpqKY1ozY5BjF/tAOGLWIeuuejHIvo/ubF44lN9WQcDNb1tujlk5YXe6O+/bOCnX7eo1r9giyyA5avHz1ApdmTNonlzPUfn9kSN5q8Fy8oOM2R9viry6+m30CQ9QZ0uXLjWXMIf+4yPKj5iTDbZZtYJtVr/ot83YXtWLftts2bJl5i9sQ9MSzYuY4y77RLsiZp9ANZlkQUGanHPg3KSZMcixi30gHDHrkHVXveD/7fHpVQRB9Znzpiaf8AB1tn79+uzVV18N/sdHlBu/+93vsttuuy3fMt2xzaoTbLP6Rcw2Y3tVK2K22T333JMdOHAgOD3RrIg97rJPtCdi9wlUk0kWFKTJOQfOTZoXgx672AfOjNh1yLqrVvD/9nhRZKk3c97U5BMeoM5eeOGFbMuWLcH//Ihy46mnnsqeeOKJfMt0xzarTrDN6hcx24ztVa2I2Wb79u3LHnnkkeD0RLPiySefzHbv3p1v+e7YJ9oTsfsEqskkCwrS5JwD5ybNi9jfIyz2gTOD38XqGYPu+ygWRZZ6M+dNTT7hAeruvvvuyx5//HFuqzGm0HrXiYb+wubEiRP5VumNbTbeYJvVLwbdZmyv8ceg22zr1q0mqa6/jgv1R9Q7tD/85Cc/yR544IHo4y77RLNjmH0C1WOSBQVpes6Bc5NmxKDnNy72gVMxzDpk3Y0/Rtn3URyKLPVmzpuafsID1N2ePXvM/ct1b0yi3NB6119yHDt2LN8acdhm4wu2Wf1imG3G9hpvDLPNdPWCbj8Q6o+od2h/2Llz58C/lLNPNDeG3SdQLSZZUJA25Bw4N6l/DHN+42IfGH4dsu7GG6Pu+wAosgAAAAAAAA9FFgAAgDgUWQAAAAAAwCQUWQAAAOJQZAEAAAAAAJNQZAEAAIhDkQUAAAAAAExCkQUAACAORRYAAAAAADAJRRYAAIA4FFmG8Jf/83+yjY9uNStv6R1rsj9/+GH+CQAAAAAA9UeRBQAAFK2peXVz3sQJz2AosgAAAAAAmswkCwpCzgEAAAhFlhrZ+czPsg0PPpz98Ikns+Mff5y/W5widobUYwQAAAAAYFgmWVCQpuUcAABoKvLqwzHnTU064XE31Hc3PlDJnaGMMQIAAAAAMCyTLChIk3IOAAA0FXn14Znzpiad8LAzAAAAAAAwGpMsKEiTcg4AADQVefXhmfOmVCc8b/3uoJmB4pHtT2Q3f2dt5/UN374je+bFf8re+ecj2T2PbD7jfZ9W4PMvvzKpD8WWH+/srMx/+sX+SZ+58dO9z5o26ud//fa32fd/tOWMNm5fVmi+GqN97e4MMX33G+Og4wMAAAAAoGj6HTSvkYxMfQEAgHjk1c/su8p5dc2jlCKLYtfP9mZHjh7Nnnh6z6T3VXU6/O67k1bUK//z1byXUyvZVqjuvG9j9vsjR7I//OlPwarVxydOZLfedfcZ71v6XCta923b98tfms9ff/Otznwf2Prf85aT56sd4Jev/9q8p/u+2fbuzhDbd68xDjI+AAAAAABS0O+feY1kZOoLAADEI69er7y6+i+lyGIrXvL+H/7QqVh125DuQtudRBvk7cOH83cn92N3nl4ruhe7g7obN2bndNt34/c9zBhD4wMAAAAAIAX9/pnXSEamvgAAQDzy6qfUJa+u/ksvsnTb6O5KtivJfc+vNoU+G3Zn8He4Xht80J3B73uYMXb7QgAAAAAAUDT9/pnXSEamvgAAQDzy6qfUJa+u/itdZHHb9opBdwZdFvXMiy+aS4hs1U4Rs8H67Qyj9G316wMAAAAAgFT0+2deIxmZ+gIAAPHIq9crr67+a1Nkcdt2029Fu/NQ/PCJJ7Nfv/Wb7Nl9+8zrUXaGovvu1QcAAAAAAKno98+8RjIy9QUAAOKRV69XXl39V7rI0m3Fd9NvZ7D3YPNXaq/LmmJ3hti+e40xtg8AAAAAAFLR7595jWRk6gsAAMQjr35KXfLq6r/SRRaxK0LhPignpNeK7rVjhVZ2tw0T6meQvruNcdDxAQAAAACQgn7/zGskI1NfAAAgHnn1U+qSV1f/lS+yuO9rZez75S/N+7q/2o6TG2zP8y9M2ujdNqK4O5b6Ud/Pv/xK5/5s7jTuOLVxfn/kiJmnHYt93260QfruV1mL6QMAAAAAgBT0+2deIxmZ+gIAAPHIq9crr67+K19kEbtSvvuDTZ0+Fbffe98ZO4PaPv7Tpya1s/PRZzuf+dmkz9THlid/bH72V7Y2vt/Xnfdt7Lzn7gyD9N1tjIOODwAAAACAoun3z7xGMjL1BQAA4pFXr1deXf1zwgMAAAAAADpMsqAg5BwAAECTUWQBAAAAAACTUGQBAACIQ5EFAAAAAABMQpEFAAAgDkUWAAAAAAAwCUUWAACAOBRZAAAAAADAJBRZAAAA4lBkARrs3XffzQ4cOGBi79692ebNmyfF0m99K7vu+usLCb/vp556qjPvgwcP5iMCUAXuscGNxx577Izvsh/33ntv8BhQh1i/YUNwmdzQOgitmzKPY0ePHj1j/r22zZ1r1gSXd1xx222rg+O04S+blrcsrFsAiEeRBQAAIA5FFqDmXnvttU4BRckXJWGmTZuWnXvuudnFl1ySzV+w0MQ1J9+/+ZZbJsW6e7+fbbh/YyHh9339jTd25n3ZxIQZz/nnn2/Gt3zFCjNeW4ipMz9ZHUrWuQmyIkPJbn9e7lgobrWXjgsPPPBAZ1+xxwQb7rHBjW8tX3HGd9mPW/7h28FjQB3i1jvuDC6TG1oHoXVjj2M27PHMfhf1nRuUprFFq5kzZ3b6vuiii86Yf69t8w/f+W5weccVd67fEBynDX/ZtLx22bWvan2oIDbMOrVYt6cixboF0B4UWQAAAOJQZAFq5MMPPzQFFSVI5s6bZ5ImV82d1ymgKPmiJMwPtz+Rbd31k8rFlid/bMb3nbvvMeO1hRgtxxVXXGGKRCq8VOkvb20RRQUMm7Cz617hJ6tDyTo3QVZkKNntz8sdi5sU1vq1yTUty0svvUQRpsFUALDbXnHtkhs6+4g9Trjx/YcfDn5n2xwbf/jDM9aTPXYpbrjp5knrWOt8UO52Wrh4cadvf76h8dU97nnggUnLuPy228yya18dZZ1arNt06xZAe1BkAQAAiEORBaiBt956y1z9ceG0aaagor/GblpSVAlNJX9VeNFf3mp5tdxlU4Fn+/btpiChJJQtoihBZf+Cv47r3iaM7V/yL1y0uFOE0bI+8sgjpqCEZtB2vfa21dm8G5aauHzhN7OJefNNXD53XjZxxRWT4uJLL+0kX7vF3PnzGxWhZXRj5sUXn7GeLr/qqs56nH3yuGDX7zWrbjPTDErTaFr1ccXJ76Tt25+vOy43Ljm53ULLVpXQ+ELjVlw2e/akZZx9sr3ZP0/uq1ofi1feYtoNS9OybtOsWwDtQZEFAAAgDkUWoOKef/757Io5c8xfUIeS500NLe/lV8zJfvazn+VrIr19+/Zll1xySXbjzctMQUJX3oTG1rTQsi5btcoUlH7y05/mawN1pgSq/m8vMpScbVKElnGUGCZpPep2+uay5cFlq0pofKFxx8YohQDWbe8YZd0CaA8dL/IaycjUFwAAQFOZ8yZOeIDq0r3kdeuPUHK86fHQ1v9e6i1NNK8Vq1dX9nZrKUMFJT17gMRbM4yaYCYGj2G+O2yn3jHK8Yh12ztGWbcA2kPHi7xGMjL1BQAA0FTmvIkTHqC6lAi5aNasbNXtt7cm+W8T/jNPLneZiSDNa87ChdnXL7jA3I5Ft9XSFTW61VZonHWOTVsezdbd+32zjPO/+c3sgpPLfMXJZSbx1gzajvq/nSgvhvnusJ16xyjHI9Zt7xhl3QJoDx0v8hrJyNQXAABAU5nzJk54gOpSIkT3T7fJ/4nZs83D1XWLJ13pEUqg1y1UPNLy6OG8c668Kps6dapJ+C9avrLURJCblNPtWMw97K+6yjybQZ/N+MY3TPHlm1dfbYoTChWDNHZFFZ7V4j6sW8+4seO8+rrrzNht4eobF83MZl95pVnGuUtuMM/v0HKXub6RjrsvE+XEMN8dtlPvGOV4xLrtHaOsWwDtoeNFXiMZmfoCAABoKnPexAkPUF1+omjhTcvMA5f1MNvpM2aYxL+uRLDJdJtgr+LzROzYVEzRWDVuJf1N8Sh/OO/8pd+atLxlJoL6JeVU7FLx5arrlnQeoqxikH24sP/w8DIenKyimztP92Hd5gHn+TivuvY6M3YVrkLLZkN9oP60HUPbl0gXw3x32E69Y5TjEeu2d4yybgG0h44XeY1kZOoLAACgqcx5Eyc8QHX1SxQp8a8rEWwy3SbYdTWIplW4SXldBWMLMm7o1lG2CBIboX4U7vzccdixqZiisWrcVUr6a16hMQwbZTw4WUW30LyHjTLXN9Ipel8m+scw3x22U+8Y5XjEuu0do6xbAO2h40VeIxmZ+gIAAGgqc97ECQ9QXUUkitykvLkKxhZknDC3jsqLINER6Efhzs/ehmrYKDMRRFKOxFtTsC+XH8N8d9hOvWOU4xHrtneMsm4BtIeOF3mNZGTqCwAAoKnMeRMnPEB1tT1RVGYiiKQcibem0Hb0b71HpAtdUTbMd0fTFH01WlNCVwKOcjxi3XaPUdctgPbQMSOvkYxMfQEAADSVOW/ihAeoLiVC9B1ta5SZCGr7ulaQeGuGrVu3ZgsWLjTbUzHr0kuzyy6/3MTseaef1WPj8oXfnHQFWihC+0udI7SMblyxaPEZ62n2ybDr8dKJ089DmnPlldkjj2zO1348TaNp1Yeep2T79ucbGp9Ct4sMLVtVwj7HKhT+VZWXXTHHLLv2Va0PPW9qmHVqsW7TrVsA7aHjTV4jGZn6AgAAaCpz3sQJD1BdSojoO9rW0PKXpe3rWlHm+kZ53nrrrezAgQMmdu7cmW3evHlS3PO972VXX3NNz9C+0aQILaMba9etO2M9bd++vbMeX3vttXztFuPgwYOdvv35hsan+MZFFwWXrSqh8YXGrfjBDx6YtIwvvfSSWXbtq0Vj3aZbtwCaTeeGeY1kZOoLAACgqcx5Eyc8QHUpmaLvaFtDy1+Wtq9rRZnrGwAAANWlc8O8RjIy9QUAANBU5ryJEx6guiiyUGQpMyiyAAAAQHRumNdIRqa+AAAAmsqcN3HCA1QXRRaKLGUGRRYAAACIzg3zGsnI1BcAAEBTmfMmTniA6qLIQpGlzKDIAgAAANG5YV4jGZn6AgAAaCpz3sQJD1BdFFkospQZFFkAAAAgOjfMayQjU18AAABNZc6bOOEBqosiC0WWMoMiCwAAAETnhnmNZGTqCwAAoKnMeRMnPEB1UWShyFJmUGQBAACA6Nwwr5GMTH0BAAA0lTlv4oQHqC6KLM0tsixeeUs274alnZi9YGE2MW/+pJh56aVJ4rKr5p4xL41B6+DAgQPZu+++m68V1MFVc+eabTfu0DgAAEAz6Hw1r5GMTH0BAAA0lTlvqtoJz5H33ssWX78kO2fKlOz//eT/R7QkPnvOF7J5ixZnb771m3xPgChxqe9oW0PLX5ai1/W1t602hYsrTu7XKmLMuuwyU+CYev75Zl4XTpuWzb5iTiduXLYsu/mWWybFhvs3Jolb/uHbZ8xLY7h0YiKbv2BhdvEll5gxnn9yrNddf3229FvfyjZv3pzt3LnTFGE+/PDDfK2hCvx9d8asWWbfc98rI8r8vgIAgLT0f3teIxmZ+gIAAGgqc95UpRMeFVhUXHly167s0OHD+btoA2373Xv2ZH8/bTqFFkfRif+6RZlJ21HXtYoqV117XXbx5Zdn07/xjey8884zhYtrliwxRYx1937fFDh+uP2JbOuun9Qitjz5YzNmjV3LsORbN5kijApEl152WbZ8xYrsqaeeougyZtp3qxKoP66MSod1C6BOdH6b10hGpr4AAACaypw3VemER1ewqMCC9npl//5s2qyL81dQMkTf0baGlr8so6zrhTctyy64cFo2/5uLsjvXb8g2/vCHwaJFk2LTlkez79x9T3b9jTdmF82cme3bty9fkyibv+9yJQtGwf6UDusWQJ3oeJHXSEamvgAAAJrKnDdV6YTnrM+dnf3pgw/yV2gr3T4Mp/gJmbZFmYmgUda1bgGm4kqoGNGG0NUuurUYxoPELYqk7ViVaJrQMo4rAKAf/d+e10hGpr4AAACaypw3VemEh+Q6hP3gNCVC9B1ta5SZCBplXWtaPXNFtwnTs1VUcNGVHqGCRBPioa3/3VzFoluIXaIH6c+eTdJujPx9t+lFFm65lJaWzd2uFO2Kw7oFUCc6XuQ1kpGpLwAAgKYy501VOuEhuQ5hPzjNT8i0LcpMBG38wQ+yiTlXZlddtyQ4ll5ht9Oi5Suz2Xpw/OWXZxdOn27e13NZrpq/wBQk9MB5+/D5KhdhVESx47z1jjvN2K++7rps7vz52dSpU7PpM2Zkl191lXmg/zeXLe+sA4yHf5xoeuK2bctbNtZvOqxbAHWi40VeIxmZ+gIAAGgqc95UpRMekusQ9oPT/IRM26LsRNALL7yQ3XTzzWa+l11+eTZ73vzsikWLTRLMFhNC0Ws7aVoVblSQuOyqudnMSy81YYswNi6dmG0KMm6ouJEirpw/P5s4uXwKXYUycfkVk8aiIsrEFVeYuEJtT45dD/XXsugB/6Hl1HQYD617d1u0ochSlWgiLZe7XSkEFId1C6BOdLzIayQjU18AAABNZc6bqnTCQ3Idwn5wmp+QaVuMMxF04MCBbPv27dnadeuyq6+5JpvIb4n19QsuMAUYU4SZO88UIIrYTvOXfssk29xQ3ylCRR9/XqExDRIk7cbH3//aUGRx50uiulis33RYtwDqRMeLvEYyMvUFAADQVOa8qUonPCTXIewHp/kJmbZFFRNBH374oSnAKJ566qls8+bNrd9OCpJ24+PvfxRZyomm7vOs33RYtwDqRMeLvEYyMvUFtMXWrVuzBx54ICrUdlQ/GmB+agsAKJ45b6rSCQ/JdQj7wWl+QqZtUZdEUNu3k4Kk3fj4+x9FlnKiqfs86zcd1i2AOtHxIq+RjEx9AW2hYsa6deuiQm1HpT7++tZ1UVHE/AAAZzLnTVU64RlHcv3EiRPZlQsWmnnbuPHmZdmxY8cmfb5j5y7z2tL7K1ev7rTv5XcHD2ZnnX32GX0M46OPPsq++LVzs/0HDuTv9KdpPv+lLxcy/zKMYz+oKj8h07aoSyKo7dtJQdJufPz9jyJLOTHM8l41d66ZbtyhcXSjz93lrMP6rcN6FbVxl5EiC4Aq0/Eir5GMTH0BbUGRBQDax5w3VemEZxzJdb+IYl+vu/vuSa/9AsW+l1/O5i5aZD5fcM01PYsej27blt20cmXfYkyM2CLLg49srk1RxUeR5TQ/IdO2qEsiqO3bSUHSbnz8/Y8iSzkxzPLWYex1XL91GXMd1y2A9tLxIq+RjEx9AW3RlCILtyEDgHjmvKlKJzxVKLKIiiIqoEi3IovaqBCjzxcvWZK9//7R/JPJ7OeH33knmzJ1atd2sWKLLLfdcQdFlgbwEzJti7okgtq+nRQk7cbH3/+anrit8/JqmqpEN/rMXc66FFmqEr3oc3cZKbIAqDIdL/IaycjUF9AWKjqECiqhUNtRqY9QQSUUg8wvVb8A0ETmvKlKJzxVuZJFV6a4r3tdyaIrRuxVLyG6VZi9gsUtfKhYoqLLtid2mFuJadnXrF9vPpO9zz2XTZ0xw7z/1a9f0CnOuEUW9efO245J72s6xSc//RlT4HELMxrTzInZnb5//cYbZjnt7c8+8amzzLjGRWPAKX5Cpm1Rl0RQ27eTgqTd+Pj737CJ2wtP/p+jvsYZ/W63JGrnjrtuRRa3jyqOvY7rty5jruO6BdBeOl7kNZKRqS+gLVRwCBVUQlFEcSJVMSRFv7FXx3BlDIC6MedNVTrhGUdy3RZRNG8bMc9ksc9ZcYscv9h/INv99J781Sm64sVOa4sgYp+TosKK5qX+9NoWU5559tns4KFD5mf3yhq3yKJpLp0zpzNWW8Txx+xOY+driygqwGh6jW3OggXmZ72nwsu4UGQ5zU/ItC3qkghq+3ZSkLQbH3//GzZx6/fz9QsvzBYtXznpvdQRsx8VtbyjxjD7fB3GXsf1W5cx13HdAmgvHS/yGsnI1BfQFioShAoqoVDbUamPUOEjFIPML0W/sX0OMk4AqAJz3lSlE55xFlncIoquIrHFi9Dnp64EmTBFFf1rCyN3rl03qV2ogHPe9BmmX7fwIf5rFTp0ZYm9miVUZFH/9nkwet/ejqxXkUXFFDsGl9pomuuWLs1eff31/N3xGMd+UFV+QqZtUZdEUNu3k4Kk3fhMmzbNrP+mRD9q4+57FFkGj15jr+P6rcuY67huAbSXjhd5jWRk6gtoCxUIQgWVUBRRTIgtXCgGmV+KfmP7HGScAFAF5rypSic840iuh4oofiHD/9w+j0VUtFBB5vkXX5x0VYn4V5r4RZFuRRb7s6420dUs/hUw7nR2LG6bYYosli3u9GqTGkWW0/yETNuiLomgtm8nBUm7+vP3Y65k6R3D7PN1GHsd129dxlzHdQugvXS8yGskI1NfQNVsHeDB7mobS+1DBZVQqO2o1EeoUBGKQeaXot/YPgcZJwBUgTlvqtIJT1WKLLqSRc8yCV0VIipsuEUIvQ49x8Qtxlj2vV5FFnuljJ2/rpDpVmTR63mLFmf33HffpDHq1mH3b9pkfnan0c/+7cJ0azD3VmeafxEP6R8WRZbT/IRM26IuiaC2bycFSbv68/djiiy9Y5h9vg5jr8qVURpHLLV3l6+q+0Qd1y2A9tJxLa+RjEx9AVWjRH6o8BGKQZL+Dz/8sGkfE2o7qocGmJ/axlL7UAEkFGobI7bP2P4kVbEMAAZhzpuqdMIzziKL5m3DPgze/dwtYNjCh22vW2z99u23zXv24fWh6cReSXL0D3/oWmTRtO5D6FWUsQ/P12cqoLhFHr22RSFL89EzYzT9P+3bN2lep4o4px98r/dVbNFVNnaetkAzDhoDTlEyRN/RtoaWvw7avp0UddlW6M7fjymy9I5h9vk6j73KWK8AUDwd1/IaycjUF9qrqklwzS9UUAmF2raNljlUAAlF7PqJ7XOQ9a22oW0Wiph+KdoAGIY5b6rSCQ/J9eG4twprAvaD0/zEUduiLgmrtm8nBcnF+vP3Y4osvWOYfb7OY68y1isAFE/HtbxGMjL1hfZSMjqU8A6F2palquOqihRXyKhtqKjih9rFUtvQNgtFTL9F9+eLLeJQwAHqxZw3VemEh+T64HRli33OS1OwH5zmJ47aFnVJWLV9OylILtafvx9XtchS51suaTp3eSkGFIP1CgDF03Etr5GMTH2hvZQwDiWoQ6G2ZanquJpM6zFUVPFjkPVd9HYsuj9fbP/D9A1gfMx5U5VOeEiuD8Y+C2act/ZKgf3gND9x1LaoS8Kq7dtJQXKx/vz9uKpFljrz1zHFgGKwXgGgeDqu5TWSkakvtFeqpPWoVwTos9AYQqG2KbXl6gYtQ6io4ofaxVLb0DYLRUy/Rffni+1/mL4BjI85b6rSCQ/JdQj7wWl+4qhtUZeEVdu3k4LkYv35+zFFluL565hiQDFYrwBQPB3X8hrJyNQX2itV0nrUZHWqcQ1j1GWJFVvMUaQo6MTegmzQB/SH1lUo1LafovvzxfY/TN8AxsecN1XphIfkOoT94DQ/cdS2qEvCqu3bSUFysf78/ZgiS/H8dUwxoBisVwAono5reY1kZOoL7ZUqaT1qsjrVuIYx6rLEqtIyF6XoZUq9jmL7H6ZvAONjzpuqdMJDch3CfnCanzhqW9QlYdX27aQguVh//n5MkaV4/jqmGFAM1isAFE/HtbxGMjL1hfZKlbQeNVmdalzDGHVZYlVpmYtS9DKlXkex/Q/TN4DxMedNVTrhqXty/aOPPsq++LVzh3oI/S/2H8jOOvvs7JOf/kz2/vtH83fbiSLLaX7iqG1Rl4RV27eTguRi/fn7MUWW4vnrmGJAMVivAFA8HdfyGsnI1FebjfsWTeOm5QolkUOhtrFi++3W58ORt65SqG1Kmkdo7H6o3Shi56MYdV5lKXo7ql1ofYRCbQcV2/8wfQMYH3PeVKUTnjYVWR58ZHO2Y+eu/FWW3XbHHZNetxlFltP8xFHboi4Jq527dmWXTszO5iy+Orv2ttXBZWlqXHXtddllV8zJNv7gB/naQF35xxuKLMWbNm2aWcZxh8bRJKxXACie/l/OayQjU19tljppO4oyCkCaNrSsoVDbWLH9DtLnuJS1LLHzUQwyr9j9qA5FxNTFN00XWt9+qB2A+jDnTVU64WlTkcUtqpw4cSK7csFCiiw5iiynff+++7KJq+Zm16y6bVIisumh5b385HfiH759e74mqu+1117Lbj/5vZ46dWo28+KLs9lz52UT8+abv6ZeeNOy4HLWKb65bLlZltknt8vsefOyWZdeapKKt6xalb300kv5WkCdaXu625wiCwAA7aX/l/MaycjUV5vFJlUVbmK1zgUQV6qktdqHxumH2lVdWcsSOx/FIPMqa/xNwLoCmsmcN1XphKcOyXUVUqZMnZrdd/KAp9t7acw33rys85lbZNn73HPZ1BkzTJuvfv2Czm3AVGDRewrdHuzqJTd0Xs9dtMi0+d3Bg9nMidmdaW2fdv7bnthh5r/u7rvPGNMnPnVWdu/Gjdmda9eZ6fV6mFuYjYvGjNMefOihbOasWSZpryslFq+8ZVJSsimhwspV1y0xCXwtr5b7448/ztdCvRw8+f196qmnss2bN2dXX3NNNufKK03y+OsXXJBddvnlJmwRxsbck8cBFTHcCK2nIkJFH39e7li0Dew4p588hmnsE7Nnm2X5wQ8eyHbu3Jm99dZb+dKiKSiyAAAAS/8v5zWSkamvNotNqircxOqw0w2ijHmkEjv2qo07pKxliZ2PYpB5lTX+JogtOg5zlQyA8THnTVU64alDcl0Fjc9/6cvZmvXrs2PHjmWH33nHvNZVKH6R5Zlnn80OHjpkfn5027ZOAcW/csV/beehQoo8/+KL2WfP+YLp15+/+O/te/llsy5VgBF33nVAkeVMH374oUna60qJb1x0kblSQrdoUkJchYmUCfkUMX/pt0xRwST1r7rKXBVxwYUXZjfdfLNJ4Gt5m0jLdeDk91hhizA2ltxwgyliuKGEc4pQ0ceflzsWbQM7zqNH2/2MqDapwi2XuN0SAADVoHP2vEYyMvXVZkqYhhLOoVBba9jpBlHGPFKJHXvVxh1S1rLEzkcxyLzKGj8AVJU5b6rSCU9diiz+LcFUxLBXlLifqQCzcvXqztUssUUWFUnOmz6jU0QRXf0Smof47+kqGBVd7JUzof6qjCJLf7pSQrdoUkJchQk3Ia9ng/hXSlyxaPEZVy4U+ewQv29dcWPn7V4VYce4YOFCU1TQ+Pfu3ctVEQAAAECF6Bw/r5GMTH212bCJ7WGnG0QZ80gl9oqATZs2Bd8PxbieGVLW1Q3qI7RtQ6G2sWL7je2zjFvlAUCRzHlTlU54mlRksT/rahRdzaJCxyBFFv/KE4osiKVng/hXSqw9eULjX7mgZ4fYoseo4fetK27svN2rIgAAAABUH0WW4igRHEo4h0JtrWGnG0QZ8xi3NixjrNhijmKQgo7ah9anH2oXI7Y/RWyfAJASRZYhqKChAsb9mzaZ1ypo+IUV/XzqmSoTptChIoqej+IWTlQ0sX34RRbbz+6n95jX/u3CKLIAAAAAAFKhyFKcYRPGZSSay5jHuBWxjD8a4MoKtW0bLXdoffqhdjFi+1PE9jksrqoBEIMiyxBsQWPBNdeY8eqh8m6xRMUTFTQ++POfza3CbBtdhWIfkC8qfNiH1L/0yiuTiixyqkgTfvA9RRYAAAAAQCoUWYoz7NUDeh1KKodCbYdRxjzGrYhl1Pt/feu6qKjrehpF7DqOXTex/SlSr+8qjQVAdVFkGUKoyIFiUWQBAAAAgPGhyDJ+ZSR3R7l9VKq/8I/tN7ZPtQ2ts1CobYjeDxVUQtGtjyaLXcex6ya2P0Xq9Z1iLLFXRrXxqiigriiyDIEiS3oUWQAAAABgfCiyjN8oBZAyaL6hRHMo1DZWbL+xfRYxTr0fKqiEInZcTRK7r8bup2ob2j6hUNuUUoxF7UL7jh+plw1AcSiyDIEiS3oUWdpJt9v7r//1v+qXuU58+tOfzt599928RZhug/fv/t2/y/7xH/8xfyeOpvu3//bfZpvy2/0VbdhxAaivN954I/vX//pfF3JcGeYYMupxjeMWAMCiyIJ+UiSfJbbf2D6LGKfeDyXBQxE7LnRXxDYrSoqxqF1o3/Ej9bLV2ZH33ssWX78kO2fKFJNDJOodeg75vEWLszff+k2+heuHIgsqif2gnWyRxSYH9fr222/P/tt/+2/mdTeDJAXVX6qiio9kJdA+d999dzZz5sxs+vTp+TvDiz2GFHlc47gFALAosqCfFMlnie03ts8ixqn3Q0nwUMSOC90Vsc2KkmIsahfad/xIvWx1dejw4ewr552XPblrl/kZ9aei2e49e7K/nzY9e/HnP8/frReKLKgk9oN28s4CsAwAAEWQSURBVIss8j/+x//I/uN//I/Zhx9+mL9zpkGSgldddRVFFgBJ6Bh27rnnZr/5zW+yf//v/33fq/D6iT2GFHlc47gFALAosqCfFMlnie03ts8ixqn3Q0nwUMSOC90Vsc2KkmIsahfad/xIvWx1pStYVGBB87yyf382bdbF+at6ociCSmI/aKfQlSxKHrpXsuhWPJ/61KfMrcT+w3/4DyYR6CcFd+zYkf2n//SfOm1solN96T3Fv/pX/8okQt3pQn2L+lfC9L777jO3AdLnV199tflMus2PZCXQLjqG2CtY3MJHEccQ9Xf99deb90UFaB0bBz2u7T950ioctwAA/VBkQT8pks8S229sn0U820afhZLgoVDbURT94P86KmKbFUXzCO1/oVDbGGoX2nf8iO2vbc763NnZnz74IH+FpqlrTpgiCyqJ/aCdbJHl5O9hnTj//PM7V7Eo+fdf/st/6SQJlTzUM1uOHDkyKSm4ffv27M033zQ/69Y9tkjjF3HcZKJ+1nMMlASVn/zkJ9lf/dVfTfpMSVGNRfP9N//m33SSkt3mR7ISaBd9/+3xxRZBpIhjiD3e2eOhLeIMclz77W9/25me4xYAoB+KLOgnRfJZYvstMwGteYWS4KEYdVwplz+2gKNochFnEFoXofUfCrWNoXahfceP2P7ahpxhs1FkKcjf/O3fZcePH89foa04YLaTmywMJfqUtDz5O9qkCP3lthKJs2fP7vyVdkyRJXRbMvuX4/5Y/Nfd5keyEmiPUJHYHlOKOIao/6985SvmZ71vb0c26HHN4rgFAOiHIgv6SZF8lth+y0xAPzTAlRVqOwr1EVpeP9RuULF9K/r1X7UrblIVkFJcVaO2oaKKH2qHM5EzbDaKLAWZNfvy2j7gBsXQQ6vOmTIlf4U28ZOF+utqN0Ho/mW4y00K2p/1l9v6K213mn7JSL/vmCJLr/n50wFoLv9KE78oUsQxRMdEHZMGOa6FiiyDzBMA0F4UWdBPqls6qX0o6e+H2jVRyuWP7VvRr/+U4xxGkcuWmuYfKqr4Me5xVhVFlmajyFIQFVj0gJsj772Xv4M20T0VZ8+dl+3esyd/B20SShbqVjf+a3vrG7XXrcPcpKASnf/5P//nzl94L1q0aFLxRIWTVatWmZ/d6ezPW7ZsMZ/5twtzk46x8/OnA9BctgDisu8VdQzR6y9+8YvZzTff3DkuSq/jmn+7MB0zOW4BAGJQZMG4xBZvBinc1ImWLVQY8EPtBhXbt6Jf/ynHOYwily212CujRr0qqqkosjQbRZYC7X3uueyz53zBrFSiXaGHVz25a1e+J6BtlOxziyzi/yW2koP2Ic7/8l/+S5M81HRKMqrdH//4R3MLHPu5Epz2QdSi/vTgaX329NNPT0omun37D773E532tebdbX7uuEK36wHQDKFjl9jjl//cqFGOIXqt2ySqQGINelzjuAUAiEGRBRgPJddDhQE/1G5QsX0r+vWfcpzDKHLZUG3KH6K56rp9K1lkAQAAwJncW3sBAJASRZZ2SPUcCwxP6zpUGPBD7QYV27eiX/8pxzmMIpcN1UaRpdkosgAAACAZXWVin/MCAEBqFFmKlaKYUUSf+iyUhA6F2iK92G0yzPYocnunHOcwilw2VFvqJLx+77pywUIzHxs33rzM3JHA/XzHzsl34tH7K1ev7rTv5XcHD2ZnnX32GX0M46OPPsq++LVzs/0HDuTv9KdpPv+lLxcy/6Kl3r6pUGQBAACoOD3fRbf2ss9eAQAgNYosxUqRAC6izxTjwmhSPpNG04W2bSjUtpfYvvr1U5Qilw3VljoJ7xdR7Ot1J38nc1/7BYp9L7+czV20yHy+4JprehY9Ht22Lbtp5cq+xZgYsUWWBx/ZXMmiio8iCwAAAAAAaASKLMVKkQAuos8U40J1Fbm9Y/sqa78pctlQbWUXWURFERVQpFuRRW1UiNHni5csyd5//2j+yWT288PvvJNNmTq1a7tYsUWW2+64gyJLQhRZgEiv7N+fHT9+PH8FAAAA34s//3n+E4C6o8hSrBQJ4CL6TDEuVFfsVTKKflfKqE1oP/FD7coQOx5FWWNCGuO4kkVXprive13JoitG7FUvIbpVmL2CxS18qFiiosu2J3aYW4lpOdesX28+k73PPZdNnTHDvP/Vr1/QKc64RRb1587bjknvazrFJz/9GVPgcQszGtPMidmdvn/9xhtmOe3tzz7xqbPMuMqg+dURRRYg0jlTpmSHDh/OXwEAAMBX11+KAJyJIkuxUiSAi+gzxbjQDilvazaMIgtIqLbU55u2iKL52Ih5Jot9zopb5PjF/gPZ7qf35K9O0RUvdlpbBBH7nBQVVjQv9afXtpjyzLPPZgcPHTI/u1fWuEUWTXPpnDmdsdoijj9mdxo7X1tEUQFG02tscxYsMD/rPRVeylDX3ycosgCR5i1aPOkASxAEMe74ynnnBd8nCIIYV3z2nC/kZ04A6o4iS7GU2A0VLkKhtjGK6DPFuIC22bp1q/l+9Au1w+h0zplSqIiiq0hs8SL0+akrQSZMUUX/2sLInWvXTWoXKuCcN32G6dctfIj/WoUOXVlir2YJFVnUv30ejN63tyPrVWRRMcWOwaU2mua6pUuzV19/PX83vdTbNxWKLAAA1JBuX6iTj1dfey1/BwAAoDgUWYqlBGuocBEKtY1RRJ8pxuVKlXxOmdQusu+U40R1aBuGvjN+qB1GlzoJHyqi+IUM/3P7PBZR0UIFmedffHHSVSXiX2niF0W6FVnsz7raRFez+FfAuNPZsbhthimyWLa406tNkSiyAACAUp31ubOzI++9l78CAAAoDkWWYsUmYRWxidgi+kx9iyVNFxqPH2o3iFT9SpF9pxwnqoPtXK5xFFl0JYueZRK6KkRU2HCLEHodeo6JW4yx7Hu9iiz2Shk7f10h063Iote6G8899903aYy6ddj9mzaZn91p9LN/uzDdGsy91ZnmX8RD+mNQZCmQEkaLr19inoGhFUu0I3R7CR0E3nzrN/meAAAAAAAYB4osxYpNwipiE7F1eAaF5h1aRj/UbhCp+pUi+045Towm9iojRb8rjdQmtF39UDuMTjnElGwRxc1Z2ofBu5+7BQxb+LDtdYut3779tnnPPrw+NJ3YK0mO/uEPXYssmtZ9CL2KMvbh+fpMBRS3yKPXtihkaT56Zoym/6d9+ybN61QR5/SD7/W+ii26ysbO0xZoUtP86qhyRRY9WFz3mH9y1y4eMt4yKq7t3rMn+/tp07MXf/7z/F0AAAAAQNkoshSrDgWRFLQ8oWSzH2o3iFT9SpF9pxwnRhO7bRT9tg/buVx1TcKXyb1VWN1QZCmIrmBRgQXt9cr+/dm0WRfnrwAAAAAAZaPIgiKkSj6nTGoX2XcRffFclzS0zkLbIhRq20tsX/36QRyKLL3pyhb7nJc6oshSEN1f/k8ffJC/QltxwAQAAACA8aHIgiKkSj6nTGoX2XcRfY3aR5G3xeqmjHkUTWMJrcdQqG0vsX316wdxyBl2Z58FU9atvVKgyFIQvigQ9gMAAAAAGB+KLChCquRzyqR2kX0X0deofcROr+g1jl7KmEfRihxzbF9VWfa6I2fYbBRZCsIXBcJ+AAAAAADjQ5EFRUiVfE6Z1C6y7yL6GrWP2OkVvcbRSxnzkCKvmFGb0PhCoba9xD5zqUnPWxoncobNRpGlIHxRIOwHQDr79+/Pbrzxxuzcc8/Npk6dmv3sZz/L/vKXv2S33HKLec+PRx55JDt+/Hg2MTEx6f01a9ZkH330kelTn1955ZXZ66+/bl6L+ly9enXnPb3euXNn9o1vfMNMv2DBguz999/vO99e/caMy//8wgsvzP74xz+e8ZnWxZ49e8x0rth2v/rVr8xn7vL2WjbLnw4AAKAKKLKgCEosh5LWfqjdIFL1K0X2XURfo/YRO72i1zh6KWMeUuR8yhozikfOsNkoshSELwqE/QBIQwn9m266KXv77bfNaxVcnn/+efOztXv37klFANF0ixYt6hQvfv/7308qfvifi9poXnpPhYply5ZlDz30kHltCy52HBIzX3H7HWZclv+ZCiehYkdMOy3frbfemn3ve98LFktCyyb9pgMAABgXiiwoQqq/8E955UCRfRfRlz4PJf79ULuQ2OkV3frop4x5SJHzKWvMKF6dcobKI3zxa+cO9RD6X+w/kJ119tnZJz/9mez994/m7zYfRZaCkFyHsB8AxbNXVujKlW7cq0Rc999//6QigYoD8+bNM1eEiP+52MKCnW/o6g8rdr7iFiyGGZcVmlZXrPjrJ6bdpk2bsldffTW4DN2WTXpNBwAAME4UWYBqiC0GdCsElFFMKGMeUuR8yhozitfUIsuDj2zOduzclb/KstvuuGPS67agyFIQkusQ9gOgeLbYodt0uVeQuNyrRCwVFdyrQ44cOWKKArbw4Bc2xC0s9LqaxOo23179xozLv9WYFfps2Pe0fGvXru1aTAktm/SbDgAAYJwosgDVEFsM6FYIKKOYUMY8pMj5xF5lpIi5agnlaWqRxS2qnDhxIrtywUKKLDVCkQWVxH4ApKFChG5NpeeCuM8usbrdsst9nsjcuXMnXZWiz3XLK5ctLHz44Yd9r56RbvPt1q/GHTMu93P7LBb7mV/4GeY9FVxWrlxp+u1WLAktW8x0AAAA40SRBagGJflDRQQ/1C4kdnpFtz76KWMeUtZ8UG1VyxkqNzBl6tTsvpP7nG7vpfHdePOyzmdukWXvc89lU2fMMG2++vULOrcBU4FF7yl0e7Crl9zQeT130SLT5ncHD2YzJ2Z3prV92vlve2KHmf+6u+8+Y0yf+NRZ2b0bN2Z3rl1nptfrYW5hVgaNr44osqCS2A+AtFSs0APo3eJHt2S/vV2WPlfBxC8Y6PNut9hSMcG/GsXXa769bt0VMy7/PSv02TDv6We3kOM/q6XXsvWaDgAAYNwosgDVMOpzXfRZqAgRCrUdRhnzkLLmg2qrWs5QBY3Pf+nL2Zr167Njx45lh995x7zWVSh+keWZZ5/NDh46ZH5+dNu2TgHFv3LFf23noUKKPP/ii9lnz/mC6defv/jv7Xv5ZbPeVIARd95VQ5GlICTXIewHQFq2MOEWMbrdssu9NZaKA+7VJaEigltYUZ+XXXZZzyJLaL79+u03Lv9zV+iz0BUr/drpZ93uy3LHZ4WWLWY6AACAcaPIMh5bt241yeGYUFugnzJui1XGPETThwoqoVDbovH9rIYqFln8W4KpiGGvKHE/UwFm5erVnatZYossKpKcN31Gp4giuvolNA/x39NVMCq62CtnQv1VBUWWgpBch7AfAMVRwUIPWLe30tLrHTt2TEr0S7dbdrnFB/+1CgR6CLztW7cjW7ZsWad4Yz+3/Wre+tkt7nS7nVavfvuNy3/tcj/TeHbu3JndeOONZzynplc7jc/e7ssKFUv8ZYudDgAAYNwosoyHkrOhhHEo1BZok3F/P/h+VkNdiyz2Z12NoqtZVOgYpMjiX3lCkaVaKLKgktgPgGLpigoVCOytqR577DHzn66lIkKvW4VZoStTVAjRrcfUtx6q7/ehYoX93H9uSrf5Sq9++43Lvx2XwhZo3M+0LlRscteF1audilZ+YcgfQ2jZYqYDAACoAoos41FGErfJf41fhWUreww/GmB+altnZV0x0436DX0XQ6G2SKOKRRYVMO4/+fu+qKDhF1b086lnqkyYQoeKKHo+ils4UdHE9uEXWWw/u58+lU/xbxdGkWX8KLKgktgPAAAAAGB8KLKMRxlJ3CYniquwbGWPQX389a3roiLVMrdF2dsWYVUssqigseCaa8zY9FB5t1ii4okKGh/8+c/mVmG2ja5CsQ/IFxU+7EPqX3rllUlFFjlVpAk/+J4iy/hRZEElsR8AAAAAwPhQZBmPMpK4TU4UV2HZyh6D+ggVVEKRapnbouxti7Cq5QxDRQ4MjyJLQXqtSHuplNoo3MpgCvqSqMrnVg2rqopjHeUgU9cvFAAAaKb58+d3biGYKjQPAKgKiizjUUYSt8mJ4iosW9ljUB+hgkooBplf7G3I6n4LskFoeUPbMRRqizSqljOkyFKsuuaEa1lksYWEw++8Yy6T0uVVMR58ZHOyIkTKvrup+vJQZAEAAHW3cePG7PrrrzdFED1XKkWsWLEi2717t5kHAFQFRZbxKCOJ2+REcRWWrewxqI9QQSUUg8wvtt8ilqEutKyh7RiKNq2XslFkaTaKLAUZpMgi/j3letE98FIVJVL23U3Vl4ciCwAAqKt77rnHFFfOP//8SVebFBkTExPZXXfdlc2cOZMiC4DKocgyHmUkcZucKK7CspU9BvURKn6EYpD5xfYb22cTHtCvsYW2YyjUFmmQM2w2iiwFGbTI4r+397nnsqkzZph+9BAgW3xR0UDvKT756c+Y97u1tdwigX6eMnVqtu2JHeYhRJpmzfr1pl2o724PI9I87fQ2NHa/f3t1Tuzy6Koet6DR62FI3ZbDGmR5pNe87Ji0ndyHO2n+vagdAADAuKjg8YMf/CBpaB5bt26lyAKgkiiyjMfDDz88KdncK9R2GJo2lBQOhdrWSRWWrewxqI9Q8SMUg8wvtt/YPlONs0waV2g7hqKqy9AE5Aybra7bt3FFlmeefTY7eOiQ+fnRbduyuYsWmZ9D03Zra/lFFl0xo4LEsWPHJl1B4/ettnMWLMh+/cYb5rXaXjpnTvb6//pfZhq9r2ncq0X8/q3Y5QmN1RYynn/xxeyz53yh73JYob779dftMzumfS+/bNaJ5qmCkF033XDABAAA46SChwofKYMiC4Aqo8jSXE1OFFdh2coeg/oIFSpCMcj8YvuN7TPVOMtURhEU/ZEzbDaKLAUZtciiBL6umLBXf/QqsnRra7lFAvdn/zO/bxUU1J8buiLkF/sPmIKEW2SxV6z4/Vuxy+MXNM6bPmNSscbOq9dyWKHl6dZf7Lz0s/q8bunS7NXXX89bdqdlBQAAGBeKLADajiJLcykBHEr4h0Jt66QKy1b2GB4aIPGvtrHUPlQA8UPtYsT2p4jtE+30N3/7d9nx48fzV2iauuaEa19kca/EsEl9XVWhqz9UAOhXlAi1tfwigVuMcF+HihJ+X5YKEFpGhQoOtjjh9y+9xtivyOLPf9QiS7f+BpmX2KKRX5jxUWQBAADjRJEFQNtRZGmuJv81/qjLpv+XQ21DobYhTVm/Gl+oAOKH2sWI7U8R26cUsc1QL9NmXZy9sn9//gpNcujw4eycKVPyV/VS6yKLEvZ6FogS+nLq2SATnVt43bl23aQCgJL/92/aZH7u11bcIkG/4oTbtz5zb6Gl/nX1it7XLbPcW3NZfn8yyPK409ufdz+9x3zW7RZeEpqvhPru1V+/eekqHttGy6XnwoTWg0WRBQBQNXoQupLgqWP+/Pn5HDFO2hZ+UaTo0DwosgCoKoosKEqdkuAaQ+iKk1CobZNp+UIFED9i10Nsf4pB1q3ahrZPKGL6jd1fKdiMj55frULLkffey99BE/zpgw+yxdcvyTZveTR/p15qWWRRG4UeoG4LAaLP3Yerq/hy483L8k9PXZGhh73rs5deeaVnW3GLBH4xwn/t9q33ThVITj0MXu+p4KJp3PEr7MPs/f5kkOX5p337Jk3vzr/bw+hDr61eyxP74HuNX8UaXbXy5ltvZQuuuaazLO52C1E7AACqYNu2bdn111+fTZs2LZuYmMjmzp2bJFasWEGivULKLLLMmDGj8yB8AKgKiiwoihLSoYR3KNR2nOo01tRib0MWewsytQ0VVEKhtrHUNrR9QhHTb2x/g4zRRRGnGLv37DF/5K38IdGMOOtzZ2cPPFSvqyddtSqy1J0KGvdu3Ji/OlWEuGnlLZ0rc3Bak/cDAEA96MoVW1xR8jtVLFiwILvrrru4mqFitB38okjRoXnoF+jzzz/f7GsrV67M5w4A40eRBUVRwjiUpA6F2o5TncZaN1pfoYJKKAZZt0Vvs9j+BhmjK3X/AMaDIkuJdHWI+ywS3e4sdBUJKLIAAMZPCXBdXZAybHFFiXaKLNVSVpFFsWTJknyuAFAdFFlQlNiksiI2sRx7NYBikCsC1D40rlCoLeJpfYUKKqEYZN0Wvc1i+xtkjK7U/QMYD4osJXJv/6XQrbXsc0owGUUWAMC4lZFkt8UViizVM8r237VrlymirVmzJlu1alV27bXXZgsXLswuuuiiTmFFodvPAUBVUWRBUWKTyorYxHKKPiVVv1WRqjgVI/b2Y4rYW5CJ2oe2TyjUtp/Y/mL6CkndP4DxoMiCSmI/AACM2yhJ9tigyFJd2g4qlGzZsuWM7ebG448/btqpmKJbfl1yySWd239t2LAh27x5c/bCCy9kBw4cyI4ePZr3jrLMnz+/U9RKFZoH0EQUWVCU2KSyIjaxnKJPSdVvVTRx+Ypeptj+hl0/qfsHMB4UWVBJ7AcAgHFT8jSUVC8yUhVZ9DwZNwmcKpqcXLbP5JkzZ05w2W3MmjXLtFMxZe/evdm7776b94Bx2rhxo9ku2kZz585NEitWrCjsO9sWHJvqhSILihKbVFbEJpZT9Cmp+h2WzhE1n5hQ237ULrQsoVDbOih6mWL7G3b9pO4fwHhQZEElsR8AAMZNiTq3IJIiii6ybNu2zSSW9bB+3YoqlBguIkgut0MdE+K2OKariULzKiL03bLPU0r5PWjSVTgPP/wwx6YaoshSnNhEeUySvGhljE3Th5LIoVDbGCn6lFT9Dqvo8VRt+Yqg/2M01phQ237ULrQ+/FC7YaTuH8B4UGRBJbEfAADGTUk6JetShi2u6N8ZM2aY204Nkxy0iWUlMG3yNEUsWLCglOQyxqvOxTr1pe9RytA87Hc3xfegSVfh6LlEZRybdJs+jk3Fo8hSnGGTqrEFEMWwRRBNGxqLH2o3rKKT4KK2oXGGQm1jpRjrKDSf0DKFQm37Kbo/KWM/LVPsPjDs9te0ofXth9oBqA+KLKgk9gMAwLgpSadkXcqwiVr9a5/jsXLlynwE8TTWUDK4yLAJTDtmjZ9EZrM0oVinvtzvWIrQPFJ8D5p0FY6l/kPHkyKDY1M6FFmKM2xSNXY6xbAJ2WHHNm5lrJsqKHo5U6y3FH02Wez6Yl0B9UKRBZXEfgAAGDcl6WxSNVUoKaj5KPSX5cMqa6wkMptN2zOUxC4yUifEy/guaB4pxl/G+k819m7Uv7vuUgTHpnQoshRn2KRq7HSKYROyw45t3MpYN1VQ9HKmWG8p+myy1FfKtMWR997LFl+/JDtnyhSTQyTqHZ895wvZvEWLszff+k2+heuHIgsqif2gecq4r3hM8CDUYrFd0WTat/xk3iCxZcsWk9RctWqVuTpl4cKFJvy/Ul+yZEk+x+GNOtaYIJHZfE3Yj8pYBs0jxfjrPPZuylim1PtUm1FkKY4SpqGEsx9q54qdTuFPG2vYsY1bGeumCopezhTrLUWfQC8qsKi48uSuXdmhw4fzd1Fn2qa79+zJ/n7a9NoWWiiyoJLYD5rH/yVb9wNX8tF9r4zgl+5isV3RZNqvtD9v3rw5uN+5oXZ69sDy5ctNIUXTzpkzx9z6R9M/9thj2YEDB0x8/PHH+RyK438XUwSJzOZrwn5UxjJoHinGX+exd1PGMqXep9qMIktxYpPQfgK6jOT1sGMbt9irARSbNm0Kvh8KHUuqRGMKbY9QqG0/RfcnKfrUdlDbmKjaNkN6uoJFBRY0zyv792fTZl2cv6oXiiyopCbtB/yl/ymhMY0rUJzQ+h1XAEWzz0eYN29ecJ9zQ+02bNiQbd++3RRSyqYx+InHooNEZvM1YT8qYxk0D41/xowZpsBa1PjLHHtZ3+Eylin1PtVmFFmKo0RwKOHsh9q5YqdT+NPGGnZsdVLGekyl6LEPUpyKvV2V2obGEwq1jZGiTzTHWZ87O/vTBx/kr9A0dc0JU2RBJTVpP/B/uWzrX/qzHpqJ7QpUg/9dTBFuIrPo5DKqoez9KEVCvIxl0Dw0ft36TwVW3Q6wCGWOvaxiRBnL5O5TU6dONVcTTps2LR8BRkGRpTixCWM/WVxGonnYsdVJEevxRyePMfosJtS2KOovNM5QqO04pBhjlZZb/79oHjGhtkiP3HGzUWQpCF8USNOKLFWJcdL83V+Im56Mb8sVTJqHu34psgDj4X8XU4SbyCw6udyLriiyx7SUwbOdyt+PUhTrylgGu88U8TwlV1ljT7XuQ8pYJi2Piis6B9FtGnU14bvvvpuPAKOgyFKcYR90rfdCSeVQqO0wYucR6l/fP70fE2o7Lpp/aJlCobYhev+vb10XFd36GEaKK0+KpnmH1mUo1DZGij6HVaWx4BRyx81GkaUgf/O3f5cdP348f4W2alqRxf1FsK1J6Lath7Ysb9u2K7f/Q1Vpvwh9N4oMJUfsPrhixYp8zuls27bNFHL0F+kTExPm+JIitCxaPi1X0epWIFJf/nYvOrQfpSzWjbIMu3btMv+H6flKq1atyq699lpzVcRFF100aX1rf0yhjPWveaRa9yFFLNODDz6Yfe973zPbRLF06VKzXWzoe6xtouLK0aNH8zmjCBRZxq+M5O6wBSDR+6GxhEJtY+k45c67W6hdDLUNjSkUahui90MFlVB066OpUhSC1Da0fUKhtimlGEvslVFFXhXVJBRZmo0iS0H0cBs95Abtdejw4eycKVPyV/Xn/3KpXwQpsrSjyGITeIoLLrggaZKwW6Re3jZuV3e+TV9e1Ie/bw4aW7ZsMfuyEphKutrkpRKx6ttG0X+5H2KfhaPiijvvomPBggXZXXfdleS2SXUtEKkfd79IEUqI2W2QolinfrUva58Ozd/G448/3tnnta0uueSSTuFBz1favHlz9sILL5SauC9j/dt1X8Z3Wez20PoMjccNtdN30ha49N3R9IsXLzb7ivpQPPXUU2a7uMGVK2lQZBm/FMnrImm+oURzKNQ2Vmy/sX0WMU69HyqohCJ2XOiuiG1WlBRjUbvQvuNH6mWrK4oszUaRpSB7n3vOFFqOvPde/g7aRA+uWnz9kmzzlkfzd+rP/4VZSRH9Eum+V0ZoHOPUtvWg+Wj5bChRcPvtt096r4xIvbxt3K5VCUxWxlVGVb6CSOPTdy82kam/1F++fLkppGha3WJHyWVN/9hjj3USlx9//HE+h/LYZUkZtriihH+RRZa6F4jUj7uvDBpVKNbZbaB92p2nH7Nmzers83v37q1Ekl7jCq3XmBj3VTjd2O0xb968SeMIhdqtXr3abBMVuA4ePJj3gnGhyIJ+UiSfJbbf2D6LGKfeDyXBQxE7LnRXxDYrSoqxqF1o3/Ej9bLVFUWWZqPIUqDde/Zknz3nC2alEu2Ksz53dvbAQ+O5j2gq+qXR/SWYIsupaEMy3p1vU5eX7drO73OVbNy40STmtE60PVJEyttJFWXQRKb+Un/79u2mkFI1GqO/zxcdtrhSdJFFfeiYkDJSFYjEjr8Jxbo6suu/jlfhoJkosqCfFMlnie03ts8ixqn3Q0nwUMSOC90Vsc2KkmIsahfad/xIvWx1pfwhmquu27eSRRagSfQLs/uLsRJ2+sXYfa+MKCoBM6y2rYe2LC/blSLLuNiigv8X8kWG/uI71e2k0J3Ws7/PFx0piyz+vIqOVGOXJhXr6qjOV+GgmSiyoJ8UyWeJ7Te2zyLGqfdDSfBQxI4L3VXpVnmaR2hfCYXaxlC70L7jR2x/bRObhP/dwYPZWWefne3YuSt/50wfffRR9sWvnZvtH/B8VtN9/ktf7tm3xLYrStnzizHoOqbIAiBIvwy7yRGKLKeCZHw5kXp52a4UWcZF60DrPmVoHikS2ejN/56lCIosANAfRRb0kyL5LLH9xvZZRMJen4WS4KFQ21j6/9ydf7dQO4yH1n9o/wuF2sZQu9C+40dsf20Tm4R/dNu27KaVK7Mbb16Wv3OmYYssRXrwkc0jFUVGnT41iiwACuEnXCiynAqS8eVE6uVlu1JkGRd/W6QIzYNEdvnK2LapChV1HjsA+CiyoJ8UyWeJ7bfMBLTmFUqCh6LKy6rzB/UVE2qLNFfVqG1o3/FD7XCmmCT8iRMnssVLlmSH33knmzJ1avb+++FbqFahyHLbHXeMVCQZdfrUKLIAKISfcKHIcipIxpcTqZeX7UqRZVz8bZEiNA8S2eUrY9u6hYoZM2aY73ER27fssbNvAkiJIgv6UQI4VBAIxSDJ4th+y0xAPzRAol1tY6l9aNn8ULsixM5P0W+eOhdRm36hdmWIHY+irDF1ozGEiip+qB3OFJOE163C7BUsfhFCn82cmG36USFm4qq5pgCgYoAKMvedXO+6zdgnPnVWdu/Gjdmda9eZtnptCwVu4cBOt+2JHWY6tV2zfv0Z7VT4Wbl6dacvtdfY9FrxyU9/plMUsn2tu/tu08/e557Lpp78vUXtvvr1CzpFo9D0bkHDXVZN546/25hd3ebbb/pu6ziGpqkjiixAYn7ChSLLqRh2PegZCepr3DF//vx8ycLUxh03RZa0kXo5rbYtb5X52yJFaB4ksstXxra121X/2geGr1y5Mh/B8Moee5EFIgDwUWRBPyn+wl9i+x2kz6rScoQKHH6oXRFi56foN8+yx95PkcuWWmzRbpCCXZvEJOF1qzBbWNn38svZ3EWLzM8qDuiZJSoOiIoBnz3nC51iiT5TseDYsWNmOs3LFjrUp9uPW2Rxp1Ofeq2ChNtO/c1ZsMC0UTHk12+8YQovVy5Y2Bmr35f1zLPPZgcPHTI/u+MITe+Pyy7r8y++2HVZ3TG7us231/T+fN11HIMiC4AgP+FCkeVUDLse6rI+27Ld27KcVtuWt8r8bZEiNA+KLOUrY9tqu2o+ihUrVuRzHl1ZY09RIKoi/UGD3U6pot8fTbQJ6xs+iixAekqkh4oAfqhdEWLnp+g3z7LH3k+Ry4Zq65eEt4UHtbNx3vQZphigQof9WfyihH8ViFt4cKftNV23z/SzxnXd0qXZq6+/btr2KpK4VJTRVTD2qpKYIou/rKIrX1Q08ucz6Hx7Td9rHcfQfOqIIguQmH6hdJMjbU3KFrUe7C/pVYhe9Lk7boosaSP1clptW94q87dFitA8uFqgfKNu2y1btpjttWrVKlN8WLhwoQkVJNS3jSVLluRzLM6oY4+J2ALRPffc02mXMlIkzTdu3GiKR+pfx9kUoXWn9al5pFCngkUT1jfSoMjSDvp/RQnnfqF2KJ7WbagI4IfaFSF2fop+8yx77P0UuWyotn5JeBVHLp0zp5PkVyFiwTXX9C0A+MWAoossli1cqK8P/vznvkUW+56uDDl46JAZR2yRxbazBimy9Jpvr+l7reMYFFkABOmXSTc5ol8025iUnT59uhlDEeEuV1XXZ13GOaoit+sooXGUQfNy129bv89V4G+LFKF5jONqgbb/NbnGp+/V5s2bg9vFDbVbs2ZNtnz5clNI0bRzTv5Cpe2l6R977LHswMmTecXHH3+czyEdzT80ztgookC0bds2s/zTpk0zt9jUcSpFpEiaqzCksfvLW2Rondx1113JrlCrU8GiCesbaVFkqb7YAomiW5FEn4WS0H6oHYpX9vqPnZ+i3zzLHns/RS4bqq1fEl63tbK3+LLse/6tq/TMEfcWWm4xoOgiyy/2H8h2P73HtFHfeqaJ+lbh4/5Nm8z7fl+itjNPnlOprYoqekaMWzzpNr392c7Tv12YO59B59tr+l7rOAZFFgBB+mVSv1Ta0C/HJGWHV5f1yXZvJrZrdfjbIkVoHooUVzyE8Nfkp9jE77x58zrboFuo3YYNG7Lt27ebQsq4aUw6JoyjQGTXm4or7joqOhYsWJAsaa6+tF5ShuahRGPR469jwULTh9ZRkaF5pFjfKAdFlmIVURDxqW0ogRwKtQ2J7aPb9BhN2es/dn6KfvMse+z9FLlsqLZeSXj/yg7LLZAo6W8f1q5bd7kPvncLB0UXWXQFi66o0Xz14HtbGFG/Go/e+6d9+yb1JVom94H5KhbZh/pLr+lPFUrCD77vNmar13z7Td9tHcfQNHVUySLL8ePHszvXrs2mzbrYrFiiHfH306Zny1atyv70wQf5ntAMbftL/9S0LPol3YaShvol3n2vjNA4eqnLODEYtmt1+NtikNi1a5fZbkpw64qBa6+91iS5L7roItOvDSU0y8BfkzfHOAtE6lP7dcqw+1CqpLn6cr+rKULzSDH+MtZ/0WPX9O66SRFFjxnloshSrBQJ4CL6jO0jdkwYTNkP+Vdfoe0bCrXtJbavfv0UpchlQ7Uph4jmquv2rVyRRQUWFVe+d//G7JX9+/N30QavvvZatnnLo6bYcuS99/J3UYYybk0TEzG3r1E795d3iiy9o984MRi2a3VoHWjd6/ZKoXVk4/HHHzftVExRUvuSSy4xxQyb4NYVAy+88IJJch89euovlMpmlyVlaB4kOptN29Tf/4sOuw+l2pfKWIZU34U6jr2OY0a5KLIUK0UCuIg+Y/uIHROqLbaoo+hX2FGb0L7ih9qVIXY8irLGhDQosjQbRZaC6AoWFVjQXrv37MnmLVqcv0IZ/F+yq5w4rstY67ROEY/tWh32igHdXknro1vMmjXLtFMxZe/evdm7776b91AdGmdoOxcZmgeJzmYrYz+y+1CqfanO34U6jr2OY0a5KLIUK0UCuIg+Y/uIHRPao2r7Tux4FOzP9UaRpdkoshTkK+edl7351m/yV2gjXc30N3/7d/krlEG/8FYl+lEb95f3qia5uU1cM7FdkYK2aeg4U2RoHiQ6m62M/cjuQ6n2pTp/F+o49jqOGeWiyFKsFAngIvqM7SN2TGiPsm911k+RV+mg2iiyNBtFloLwRYGwH5TL/yWbK1n6B0kCAEXxj2spQvMg0dlsZexHdh9KtS+V+V2YMWOGOX8oavxljr2ORZai1zfKQZGlWErshooXoVDbGEX0GdtH7Jhwmo5/Wm8xobaDiu1/mL6BKiNn2GwUWQpS5RV54sSJ7MoFC80YFZ/41FnZ/Zs25Z8W56OPPsq++LVzs/0FPAS1rjhglsv/JZsiS/8gSQCgKP5xLUVoHvoFmyJLc5WxH9l9SP+mSJqX+V2wz2ZauXJlPvfRlDn2otZ9ndc3ykGRpVhKdoeKF6FQ2xhF9BnbR+yYXPr+a7qYUNtBxPadql9Fv77VJrQuQ6G2g4rtf5i+gSojZ9hsdd2+FFkGYIssO3buMq8Pv/NONnNidrbu7rvN634efGRzZ9peKLJwwCyb/0s2RZb+ETNWAIjhH9dShOahRMC4/ppcz9DRPFPH/Pnz8zm2j5Y/tO2LDO1DtsiSImlexjLYfWXJkiX5XItR1tiLXPd1Xt8oB0WWYqVIuBfRZ8pbPmm60FhCobaDiO07Vb+Kfn0X2VdIbP/D9A1UWdVzhsrrfv5LX47KAfdTZF9FSZ23pshSkDoVWeR3Bw+anf3994/m73R32x13UGSJRJGlXP4v2RRZ+kfMWFEMJU21vscZbU7cIj3tY6HjTJGheaRKjPeybds2M79p06ZlExMT5pidIlasWNFZzqLUrTCkvvztXnRoH7Lj1jov2ijLsGvXLnM+sGbNmmzVqlXZtddemy1cuDC76KKLOmNWaD9MYZSxx4ZdhqIKFqOMedzrG+WgyFKsFAn3qj+DQvMNLV8o1HYQsX2n6lfRr+8i+wqJ7X+YvoEqq1vOMPaP7stQxFgosoRRZBlAqMjiv7f3ueeyqTNmmOX46tcv6BRfVGDRe4pPfvoz5v1ube3OetPKldlZZ59tPr/x5mXmM+k2ncaycvVq875uZbbtiR3mfRWCdMWNbV+H4o3GivL4v2QrYUWRpXfEjBXF8Le5/Stq973UwfZGSv4+niI0D0VZf02uAoUtrth5p4gFCxZkd911V6G3QatrYUj9uNt80NiyZYv5/1QJcxXhlDBXqDBn17ci5T6k/jUGjSU0RhuPP/54Z6zaVpdcckmngLhhw4Zs8+bN2QsvvJAdOHnOe/Ro/z+EKsIo639cBYs6r2+UgyJLsapeEElByxJK+odCbQcR23eqfhX9+i6yr5DY/ofpG6iyuuUMlROuSpGliLFQZAmjyDKAmCLLM88+mx08dMj8/OjJX9LnLlpkfg5N262tdlZdHbNm/frs2LFj5rZk7qVh3abb9/LL2ZwFCzrT/PqNN0xfek8/iwoul86ZY9pUGUWWcvmJASV/9Mu0+14ZoXH0U6exDqMKV20oqnTlRmh84wggFe1foeNMTFT1r8k1T40rZdjiioquRRRZ6lwYEvWj9aKEt7uPhELttM8sX77c7C+ads7J80Mtv6Z/7LHHTMJc8fHHH+dzSM9uA43Frq9QzJo1qzPWvXv3Zu+++27ew/hoXFqvdSpY1Hl9oxwUWTCqlEWGVAWGIsdcZF8hsf0P0zdQZaPkDJUnnTJ1anbfye+F/rBdf6R+78aN2Z1r15l+9dotHnT7w3Xbj/7A3f6BvPK49jNbhFBRQ58p7B/dx/apx1O4ffWap+iP8u37Ntw89CBjkV7jtGPq9gf/o1BfdUSRZQAxRRYVN7Rz2StNehVZurV1d1ZLxRT77Jde02ke1y1dmr36+uvmPRVe1MYN+0WqMo0T5dEv0G4CgCJL/4gZ6zCavnzD8NcJV7K0UxkFyHEVFzXvuiVn+9EyhZahyLDFlaKKLHY7pIyiC0MumzCfN2+e6bNX2H1m+/btZn/B6ChYoIkosmBUKYsMqQoMRY65yL5CYvsfpm+gykbJGSp36v5hu82b2pxr6I/gbeHg+RdfzD57zhc6BQ+3HxUk9Fr5Vjev6+eDB+lT3L56zdP+rD+y1zxVUHFz0DLMWLp9ZscU+oP/UdU1J0yRZQChQknoS6Qd8OChQ2ZH61Zk6dXW3VktW2TpNZ1lizDnTZ9hqpj+53VAkaVc+qXfTVxVObE/ffr0ScmKcYXGkUJoXuOKqtBY3P2EIku7bNy40SQktQ10bEoRKZ7nMYgmJmc1Xv97VHSkKLL48yg6ih4zAKREkQWjSllkSFVgKHLMRfYVEtv/MH0DVTZqkcXNubp5XVGeVflUW4CxP1sqXvhXmIj72v3ZzwcP0qd069f/LFRksYUja5CxxI5TP6tP9w/+R0WRpSB1KrKomKHLpuxOqx165sSE+WKqrS41cwsc2hnv37TJ/NyrrXZQfTHctu6Xptt0v9h/INv99B7zs9rpEjKN0a08apoiqoqpUWQpl59YUtKxqkWWpmNbnMlfJxRZ2sEWHvznQRQZuoVWits2gSJLt6DIAqBOKLJgVCmLDKkKDEWOOfVzeGL7b8ozfgCrzCKL/4fr3QoifuHB/uznkgfpU7r1638m6kfrRqGih1sgkUHGMug43T/49+c7qLrmhCmyDMDujHaH1b3mbCFE9Ll2KPuZdjz3gfXaQe39/l565ZWube3OesPNN58xn17z0A694JprzpjmVGHm1D309L4tuFSZxory+IklEvvjw7Y4k79ObILSfS91sG+WT+tc+37K0DxIdqfhf29TRNEFizqOGQBSosiCUSnBHypOhEJtBxHb96D9pi6MABjdKDlDv0DQq8hi29o/aO92yyxxX/ufqThhc7SD9Cm9+vU/02277HJ0M+hY+o0z9Af//cbQT11zwhRZUEnsB+XyE0sk9seHbXEmf53YBKX7Xupg3yyfv91ThOZBsjuNMrafW7CYMWNGp3A2rLLHzH4HoOoosmBUKQsWsX1TCAGap6wii7h/uN7t4e/+a/8z94/u9V5sn9KrX/8z98IA27df8Igdi3T7TBcAqFij9fTmW28F/+B/FOqrjiiyoJLYD8rlJ5ZI7I8P2+JM/jqhyNIO/nZPEZoHye40yth+bsFCt5XT7eVWrlyZj2BwZY+5iMIQAKREkQUAUEXkDM+kIsu9Gzfmr04VQm5aeUvn1mB1QpGlIHxRIOwH5fITSyT2x4dtcSZ/nVBkaQd/u6cIzcMmve1rFKOM7adtp/koVqxYkc95eGWNucjCEACkRJEFAFBF5AzP5F+Bo0dK+FfF1AVFloLwRYGwH5Rr+vTpnUTVOEPjaDutBzchR5GFIktb+ds9RWgeFFnSGHX7bdmyxRz7Vq1aZYoQCxcuNKHChPq2sWTJknyOoxt1zDFRdGEIAFKiyAIAqCJyhmdyn+Gt0O297LNS6qau25ciCyqJ/QBt5Sf5KLJQZGkrf7unCM1D+xK3bSqe1qXW6ebNm4Pr3g21W7NmTbZ8+XJTSNG0c+bMMVd5aPrHHnssO3DggImPP/44n0PxRt3nxlEYAoCUKLIAAKqInGGzUWQpCF8UCPsB2spP8lFkocjSVv52TxGah/YlbttUvHvuuces03nz5pn13CvUbsOGDdn27dtNIWVcNJa6FYYAICWKLACAKiJn2GwUWQrCF6We9IClIu/1x36AtlKizk3kUWShyNJW/nZPEZqHgisLIHUsDAFAShRZAABVRM6w2SiyFIQvSjoPPrI527FzV/6qWBRZgGIoeecmgSmyUGRpK3+7DxK7du3qXGmgWzdde+215mqDiy66yPRrY2JiIp8bAADwUWQBAFQROcNmo8hSEL4o6dx2xx0UWYCK8xPLFFkosrSV1rn2fT3nIrRNbDz++OOmnYopurrgkksu6dz+S1ca6NZNL7zwgrna4OjRo3nvAACgH4osAIAq+pu//bvs+PHj+Ss0DUWWghSxIpXwnzJ1anbfAw9kZ519dvaJT52V3btxY3bn2nWmf712iwF7n3sumzpjhvnsq1+/IHv//VNJGNvPtid2mH70+Zr1681n0m060Wd2Ghu2wPG7gwezmROzO9NpLIOOuVcfofGqwKLXik9++jNnjHWY5XfHsHjJkmziqrkUWYARUWQ50/Tp0814xhkaA8plb92k51yEtomNWbNmmXYqpuzduzd799138x4AAMAoKLIAAKpo1uzLsxd//vP8FZrk0OHD2TlTpuSv6qWxRZbPf+nLpiBw7NixbN/LL5t+1919t/n80W3bsrmLFpmf5Zlnn80OHjpkfnY/8/tRUUGvbRGi23S23a/feCM7ceLEpCtI1OecBQvMZ6K2l86Zkx39wx+ixxzbhztejePKBQuDV7IMs/z2MxVgRJ999pwvUGQBRqSksVvsoMgCAACAcaDIAgCoIhVYps26ODvy3nv5O2iCP33wQTZ77rxs9549+Tv10tgii3vrKrc4ICpgnDd9hikcyOF33slWrl7duZrDLTK4/fivu01n5+cWWWyxxBZP3NCVJeordsyxfbjj7VVkGWb5/XXotx2VxgG0URWu2lBw5QYAAEC7UWQBAFSV7sqjP/Z2c6NEveOsz52dPbkrzWMuytD6IottqysydDWHPospMvSaTtzbc123dGmnGOG3swYZc2wf7utuRZZey9GrP3c8/mdFKGI/AAAAAAAMhyILAABAnNYXWfTZzIkJ85kKEXoGSkyRod90up2XnZ9Ln2ks9jZbmlZXvAwy5tg+/Ncq/Ny/aZP52Rpl+d3bg9kKsn09KoosAAAAADA+FFkAAADitL7IosKCbpWl+erh8rqt1403LzPtehUZ+k2nq0b0mQ33gfKnChunHhivaVUsGWTMEtOH/1p92Ifq2/eGXX5xH+6vq3V48D0AAAAANANFFgAAgDiNLLKMm4oR927cmL86Vci4aeUtweehIIwiCwAAAACMD0UWAACAOBRZEvCvOvEfSI/+KLIAAAAAwPhQZAEAAIhDkSUB9xZcCt0qbPfTe/JPEYMiCwAAAACMD0UWAACAOBRZUEnsBwAAAAAwPhRZAAAA4lBkQSWxHwAAAADA+FBkAQAAiEORBZXEfgAAAAAA40ORBQAAIA5Flpb56KOPavEQ/qbuB6/s358dP348fwUA1fHiz3+e/1QsjnsAgKZI9X9lVVFkAQAAiEORZQgPPrI527FzV/6qGmLHRJFlvM6ZMiU7dPhw/goAqiPVcZfjHgCgKdr2B4EUWQAAAOJQZBnCbXfcUbkiS+yYKLKM17xFi82yEUQR8ZXzzgu+TxDDxGfP+UJ+pCoWxz2CSB9nfe5s8x0OfUYQRHGR6v/KqqLIAgAAEKd1RZYTJ05kK1evNvP5xKfOyrY9scMUKNbdfXfeIsv2vfxyNnfRoq5t7Un2Jz/9mez9949mvzt4MJs5Mdu899WvX2AKGCpmTJk6NbvvgQeys84+20x/78aN2Z1r13X661bo8Pv79RtvmPf3PvdcNnXGjM77mreExtStrV9kCY3dUh8au+1bUVZxSfMC0J1uv6TvyauvvZa/AwBoqzvXrjUFTQAoEkUWAACAOK0rsqiAMmfBguzYsWPZ4XfeMQUMFRounTPHvCf2qpBQWxVerlywsFNsUNFCbWwhxPZ19A9/yD7/pS9na9avN9OrLy2bLeY8um2bKeT41J+mU0FHNF87rmeefTY7eOiQ+dmd3h+TdGvrFln8eT3/4ovmr7P0mZZDn9lljr1SpigUWYD+9JfLR957L38FAGirBx56OFu2alX+CgCKQZEFAAAgTuuKLCosqCBx3dKl2auvv27eUxFhwTXXdAoPugJFV350a+sWNGzxxA1dTaLiiH/FiIoW9ooSTXfe9BmdAorV7X1Rn7qyxl6h0qvI0q2tW2QJzcte1RMqsrhX+6SmMQMAAAAAxoMiCwAAQJzWFVksW4SwRQZd7aEiggoP/hUmbtsP/vznM4osfntxixkyapHF9qerTnSFijtfv8jSq61fZPHH7hZT9LO2h0KFplDhJxWKLAAAAAAwPhRZAAAA4rSuyPKL/Qey3U/vMT+r8OFetaJ7Wd9z332dYkW3tio+3L9pk3lf07m33FLBQ1d/uMUMiS2y+P2pwKP+NP3MiQkzveahZ7u4BRJ3TL3auuOyP9tldG8Xps90GzQ73rJRZAEAAACA8aHIAgAAEKd1RRYVLXRrMM1HD5+3hQlRocI+OF66tVWBxD7MXgWJU0WNUw+P13sqkAxbZBG3P/swehVL3Ifw62qTG29elk8xeUwvvfJK17bqR8tp5x2al2j8ujpG79twH6CfmuYHAAAAABgPiiwAAABxWldk6SV0+6y2UpHl3o0b81enijM3rbxl0nNfUqLIAgAAAADjQ5EFAAAgDkWWnIoI9uH3OPNKG13V416ZkxpFFgAAAAAYH4osAAAAcSpXZNEzQY68917+qhx66L1uq+XeOqzt3NuTKXSrMPvsljJQZEE3+/fvz2688cbs3HPPzaZOnZr97Gc/M+8fP348m5iYMO/buPDCC7M//vGPnc8eeeQR09b61a9+Zfp4/fXXTZsrr7zS/BwSmu9f/vKX7JZbbpk0TxuaV2hMa9asMVeKSWie6nP1ye+efU+vd+7cmX3jG98w0y8wz0p6v+98e/UbMy73cy3vnj2nv/+h6e26tvr1YbnbQPqtU8ufDihT7HfM3Wf973abjykK//hs3+92rIhtxzEFAIpDkQUAACBO5Yosevj87sAvzWiPV/bvz6bNujh/BZymJNhNN92Uvf322+a1kpTPP/+8+VmfLVq0qJPUc+kzJRTdhJoSdsuWLTP9aZp+03ebr7V79+5J/Yvf5+9///tJicrQPNXGjsmO8aGHHjKvbXLUjkNi5ituv4OOS4lMN/kY6t/Xrw/R8t16663Z9773vWBiM7Rs0m86ILWY75iOOdpPLf/zNh9TXP5noWOFxLTjmAIAxaLIAgAAEKdyRZZDhw9nfz9tukm0o320/WfNvjx78ec/z98BTrF/jWyvXPHdf//9weSZ6LMNGzZM+lw/r127tvNet+n7zVfUxv1LccvvU4m8efPmda74CM3TJgHtfEN/qW3Fzlfc5OKg49Ln+gtyuw5C/fv69SGbNm3KXn311eAydFs26TUdUIaY79iPfvSjThFC/O92m48prtC0/rFCYtpxTAGAYlFkAQAAiFO5Iou8+dZvzJUM9lZVRHvinClTKLAgyCYIdWsb96+uRck2/1Y2lk32/eM//mMnQae/iH7sscc6CbVe0/ear+X+Rbfl93nkyBEzPzsGOy6bhBQ3CdjrL7+tbvPt1W/MuPx14b4X+tzXrw/R8qnI1S3xGVo26TcdkJr25X7fMX3+z//8z5127v6vtm0/plihz4Z9j2MKABSPIgsAAEAcc950w+13/u9jPX7pBoAqUPJOt3PRvfTd+/0rSebeZ999Pog+021g9K+SfkrM3XPPPdlvf/vbTsJNn/VKPnabr+X+Rbflj2nu3LmT/oLcjstlk4Affvhh3790l27z7davXdZ+4/LXhfueP73/LBbp14e2wcqVK8103RKboWWLmQ5ITftyv++YPtc+ar/H/neibccU93P/+NzrWGH1e49jCgCkUWSRhZwDAABoMnPedNN3vnvwn997P38LAKpNCT4978AmDPvdisYmOdVGoSSam3Cz06uNTQT6SUXx5yvdEnO2T5totfOy7Lhcdhol/vy/HPf1mm+3ft2fe42r13uhz30xfbhJV/+5Cr2Wrdd0QBm0H/b7jtnP7fuhBL+09ZhihT4b5j393OvYwDEFAAZ34sRfsiXfvv1EXiMZGTkHAADQVJ3zphVr1z372ptv5W8DQLXZZJ4Sf0oe9roVjU0sqoBy3XXXZdu2bZuUcOs1vc+dr+X+Rbfl96lEnlu0CSX83LGqz8suu6xnQjQ033799htXaF34fy3eb13160M/69Y8ljs+K7RsMdMBqcV8x9z9UvutrpQIJfiljccUK/SZe6yw+rXjmAIAaaggosJIXiMZGTkHAADQVJ3zphtuv/Nbu/Y+eyJ/HwAqQ0k+PZTY3n5Gr3fs2NFJjoWScpY+swk/92c34dZt+n7ztbrdXsft03+tZJ4e2Gz71q2Dli1b1km02s9tv5q3fnYTsd1ufdOr337jcl9rnjt37sxuvPHGznMj/PYhvfrQ+OyteaxQYtNfttjpgNRivmNukUHHGl2povfafkzxuZ+FjjdWr3YaH8cUAEjj5wcOZMu+s+6RvEYyMnIOAACgqTrnTdevXv3/rL7n3j/k7wNApShRqaSavZ2LHlpvk3b+7V4UNgGoz9wkouUm3NTGTyxaveYrSviF/kLd71P9+H9FrqSlkq/qWw/A9vtQYtF+7j/joNt8pVe//cblrkstr5K/7vK6n9vw12+vPpRg9te1P4bQssVMB5Sl33fM/U7YIoV9r83HFBvu8dm+FzreWL3acUwBgHTueujho1ff+u3P5TWSkZFzAAAATTXpvGn5d9f/9Je//nX+EQAAAAAAaJs33347W/7ddftMoqBA5BwAAEDTnHHexF+WAAAAAADQXnpw68r1G45ev3r1/5WnCgpDzgEAADRJ1/Omm7/73UVbd/2U+yQAAAAAANAyP3ryx39aesea2XmKoHDkHAAAQFP0PG9auX7Dpoe3bf/DscB9sQEAAAAAQLPoLzGfeHrPn29Zf/djeWogGXIOAACgzqLPm5beeedFK9atP/Lam2/lkwIAAAAAgKZ5+9Dh7La7v/feTWu+uyRPCSRHzgEAANTRwOdN16+8869WrF33rJ6O//zLr2Qf/PnDvCsAAAAAAFBXuorklf/5avbAY1v/uOy7a391/arb/+88FVAacg4AAKAOCjlvuvrWb3/u5u+s/f7SO9f88brV384IgiAIgiAIgiAIgqhv3HD7nf97+dp1j19z6z98Lf/Vf2zIORAEQRAEUeWo0nkTAAAAAAAAAAAAAAAAAAAAAAAAAAAAAAAAAAAAAAAAAAAAAAAAAAAAAAAAAAAAAKCy/sW/+P8B/xlrZ1EMr0cAAAAASUVORK5CYII=;" vertex="1" parent="1">
          <mxGeometry x="20" y="20" width="1625" height="677" as="geometry" />
        </mxCell>
      </root>
    </mxGraphModel>
  </diagram>
</mxfile>
